/* XPM */
static char * collectible_xpm[] = {
"64 64 11 1",
" 	c #40264D",
".	c #644574",
"+	c #563767",
"@	c #341E13",
"#	c #E8B414",
"$	c #3D3D57",
"%	c #573D7F",
"&	c #E8D560",
"*	c #8C57B4",
"=	c #7C3100",
"-	c #D17700",
"                                                                ",
"                                                                ",
"      ....................................................      ",
"      ....................................................      ",
"    ..++++++++++++++++++++++++++++++++++++++++++++++++++++..    ",
"    ..++++++++++++++++++++++++++++++++++++++++++++++++++++..    ",
"  ..++++++++++++++++++++++++++++++++++++++++++++++++++++++++..  ",
"  ..++++++++++++++++++++++++++++++++++++++++++++++++++++++++..  ",
"  ..++++++++++++++++++++++++++++++++++++++++++++++++++++++++..  ",
"  ..++++@@###$$%%%####$$$%%%%%####$$$%%%%%####$$$%%###@@++++..  ",
"  ..++++@@###$$%%%####$$$%%%%%####$$$%%%%%####$$$%%###@@++++..  ",
"  ..++++@@&&&%%***##&&%%%*****&&##%%%*****&&##%%%**###@@++++..  ",
"  ..++++@@&&&%%***##&&%%%*****&&##%%%*****&&##%%%**###@@++++..  ",
"  ..++++@@&&&%%***##&&%%%*****&&##%%%*****&&##%%%**###@@++++..  ",
"  ..++++==&&&**###&&&&---&&###&&&&---&&###&&&&###**&&&==++++..  ",
"  ..++++==&&&**###&&&&---&&###&&&&---&&###&&&&###**&&&==++++..  ",
"  ..++++==&&&--###&&&&---&&###&&&&---&&###&&&&###--&&&==++++..  ",
"  ..++++==&&&--###&&&&---&&###&&&&---&&###&&&&###--&&&==++++..  ",
"  ..++++==&&&--###&&&&---&&###&&&&---&&###&&&&###--&&&==++++..  ",
"  ..++++==&&&-----&&&&--------&&&&--------&&&&-----&&&==++++..  ",
"  ..++++==&&&-----&&&&--------&&&&--------&&&&-----&&&==++++..  ",
"  ..++++==&&&%%%%%&&&&%%%%%%%%&&&&%%%%%%%%&&&&%%%%%&&&==++++..  ",
"  ..++++==&&&%%%%%&&&&%%%%%%%%&&&&%%%%%%%%&&&&%%%%%&&&==++++..  ",
"  ..++++==&&&%%%%%&&&&%%%%%%%%&&&&%%%%%%%%&&&&%%%%%&&&==++++..  ",
"  ..++++==&&&*****##&&%%%*****&&##%%%*****&&##*****&&&==++++..  ",
"  ..++++==&&&*****##&&%%%*****&&##%%%*****&&##*****&&&==++++..  ",
"  ..++++@@###*****####%%%*****####%%%*****####*****###@@++++..  ",
"  ..++++@@###*****####%%%*****####%%%*****####*****###@@++++..  ",
"  ..++++@@###*****--##%%%**%%%####%%%*****##--*****###@@++++..  ",
"  ..++++@@###*****--##%%%**%%%####%%%*****##--*****###@@++++..  ",
"  ..++++@@###*****--##%%%**%%%####%%%*****##--*****###@@++++..  ",
"  ..++++@@###*****----%%%%%&&&####&&&%%%%%----*****###@@++++..  ",
"  ..++++@@###*****----%%%%%&&&####&&&%%%%%----*****###@@++++..  ",
"  ..++++@@---%%%%%----&&&&&##########&&&&&----%%%%%---@@++++..  ",
"  ..++++@@---%%%%%----&&&&&##########&&&&&----%%%%%---@@++++..  ",
"  ..++++@@---%%%%%----&&&&&##########&&&&&----%%%%%---@@++++..  ",
"  ..++++@@============####################============@@++++..  ",
"  ..++++@@============####################============@@++++..  ",
"  ..++++==&&&&&&&&&&&&---#####@@@@#####---&&&&&&&&&&&&==++++..  ",
"  ..++++==&&&&&&&&&&&&---#####@@@@#####---&&&&&&&&&&&&==++++..  ",
"  ..++++==###############--###====###--###############==++++..  ",
"  ..++++==###############--###====###--###############==++++..  ",
"  ..++++==###############--###====###--###############==++++..  ",
"  ..++++@@---$$$$$----$$$$$---####---$$$$$----$$$$$---@@++++..  ",
"  ..++++@@---$$$$$----$$$$$---####---$$$$$----$$$$$---@@++++..  ",
"  ..++++@@###%%%%%####%%%%%$$$----$$$%%%%%####%%%%%###@@++++..  ",
"  ..++++@@###%%%%%####%%%%%$$$----$$$%%%%%####%%%%%###@@++++..  ",
"  ..++++@@###%%%%%####%%%%%$$$----$$$%%%%%####%%%%%###@@++++..  ",
"  ..++++@@###%%%%%####%%%%%%%%$$$$%%%%%%%%####%%%%%###@@++++..  ",
"  ..++++@@###%%%%%####%%%%%%%%$$$$%%%%%%%%####%%%%%###@@++++..  ",
"  ..++++@@--------------------------------------------@@++++..  ",
"  ..++++@@--------------------------------------------@@++++..  ",
"  ..++++@@--------------------------------------------@@++++..  ",
"  ..++++++@@@@@@@@@@@@@@@@@@@@@@@@@@@@@@@@@@@@@@@@@@@@++++++..  ",
"  ..++++++@@@@@@@@@@@@@@@@@@@@@@@@@@@@@@@@@@@@@@@@@@@@++++++..  ",
"  ..++++++++++++++++++++++++++++++++++++++++++++++++++++++++..  ",
"  ....++++++++++++++++++++++++++++++++++++++++++++++++++++++..  ",
"  ....++++++++++++++++++++++++++++++++++++++++++++++++++++++..  ",
"    ....++++++++++++++++++++++++++++++++++++++++++++++++++..    ",
"    ....++++++++++++++++++++++++++++++++++++++++++++++++++..    ",
"      ....................................................      ",
"      ....................................................      ",
"                                                                ",
"                                                                "};
