/* XPM */
static char * collectible_xpm[] = {
"64 64 377 2",
"  	c #40264D",
". 	c #432950",
"+ 	c #492E56",
"@ 	c #4C3059",
"# 	c #4C3159",
"$ 	c #563965",
"% 	c #5C3F6B",
"& 	c #5C3F6C",
"* 	c #432850",
"= 	c #523660",
"- 	c #5C3E6B",
"; 	c #614271",
"> 	c #5B3C6B",
", 	c #5A3B6B",
"' 	c #5E3F6E",
") 	c #593A6A",
"! 	c #563767",
"~ 	c #573868",
"{ 	c #553667",
"] 	c #533467",
"^ 	c #523367",
"/ 	c #523267",
"( 	c #543567",
"_ 	c #6A4866",
": 	c #8A6262",
"< 	c #986E60",
"[ 	c #996E60",
"} 	c #997062",
"| 	c #9B7564",
"1 	c #9C7766",
"2 	c #9D7866",
"3 	c #8E6A66",
"4 	c #6C4C67",
"5 	c #C49059",
"6 	c #DCA353",
"7 	c #DBA253",
"8 	c #DDA757",
"9 	c #E1AE5F",
"0 	c #E2B263",
"a 	c #E3B263",
"b 	c #E3B363",
"c 	c #CA9E64",
"d 	c #8D6A66",
"e 	c #8B6362",
"f 	c #B3835B",
"g 	c #DAA250",
"h 	c #ECB049",
"i 	c #EDB149",
"j 	c #EEB54E",
"k 	c #F1BB57",
"l 	c #F3BF5B",
"m 	c #F2BF5B",
"n 	c #E0B05E",
"o 	c #B88E63",
"p 	c #6A4A67",
"q 	c #D9A249",
"r 	c #D7A146",
"s 	c #D7A348",
"t 	c #D9A64C",
"u 	c #D9A74D",
"v 	c #DDAB53",
"w 	c #593A65",
"x 	c #68475E",
"y 	c #9D7257",
"z 	c #D49E4E",
"A 	c #E4AA48",
"B 	c #D49F46",
"C 	c #C39343",
"D 	c #B88A3F",
"E 	c #B2863D",
"F 	c #D5A44B",
"G 	c #E9B556",
"H 	c #B88F63",
"I 	c #8E6B66",
"J 	c #6B4B67",
"K 	c #68465E",
"L 	c #845E4B",
"M 	c #A77A40",
"N 	c #C89543",
"O 	c #D39F46",
"P 	c #CC9A45",
"Q 	c #946F33",
"R 	c #7C5C2A",
"S 	c #7B5B2A",
"T 	c #7C5B2A",
"U 	c #7B5A29",
"V 	c #946E32",
"W 	c #B78A3F",
"X 	c #CC9B47",
"Y 	c #604171",
"Z 	c #593B6B",
"` 	c #5B3B65",
" .	c #815B52",
"..	c #9E733E",
"+.	c #B48536",
"@.	c #C29240",
"#.	c #C49443",
"$.	c #B98B40",
"%.	c #A17938",
"&.	c #7A5A2C",
"*.	c #5C4325",
"=.	c #5A4124",
"-.	c #573F22",
";.	c #4E371D",
">.	c #483219",
",.	c #E8B556",
"'.	c #DBAB5C",
").	c #A8805E",
"!.	c #7B585E",
"~.	c #704D5C",
"{.	c #67455E",
"].	c #5C3C64",
"^.	c #B5863D",
"/.	c #C69543",
"(.	c #956F33",
"_.	c #71542F",
":.	c #6F5331",
"<.	c #674C2C",
"[.	c #563E22",
"}.	c #4A341A",
"|.	c #4A331A",
"1.	c #CD9B47",
"2.	c #D1A04E",
"3.	c #BE904F",
"4.	c #AB7F4B",
"5.	c #9A7043",
"6.	c #69475E",
"7.	c #4B305A",
"8.	c #66466E",
"9.	c #6D4B63",
"0.	c #825C52",
"a.	c #A07837",
"b.	c #755628",
"c.	c #5D4325",
"d.	c #6D512F",
"e.	c #765834",
"f.	c #765934",
"g.	c #755834",
"h.	c #745733",
"i.	c #735633",
"j.	c #705431",
"k.	c #795B32",
"l.	c #8C6935",
"m.	c #957037",
"n.	c #745528",
"o.	c #BD9042",
"p.	c #D1A04A",
"q.	c #D9A74E",
"r.	c #D2A149",
"s.	c #C59641",
"t.	c #AE8345",
"u.	c #896354",
"v.	c #714F69",
"w.	c #876051",
"x.	c #C69643",
"y.	c #967033",
"z.	c #745628",
"A.	c #614623",
"B.	c #5E4425",
"C.	c #684D2B",
"D.	c #6E522E",
"E.	c #6C502D",
"F.	c #684C2B",
"G.	c #614727",
"H.	c #8D6A35",
"I.	c #C4964A",
"J.	c #DCA853",
"K.	c #DDA853",
"L.	c #604523",
"M.	c #A67F3B",
"N.	c #DBAB51",
"O.	c #F2BE5A",
"P.	c #F2BE59",
"Q.	c #EDBA57",
"R.	c #D9A84F",
"S.	c #704E69",
"T.	c #4A2F5A",
"U.	c #765366",
"V.	c #936A45",
"W.	c #AB7E2F",
"X.	c #BF8F3D",
"Y.	c #A17837",
"Z.	c #775729",
"`.	c #583F21",
" +	c #5A4023",
".+	c #604626",
"++	c #664B29",
"@+	c #694D2A",
"#+	c #614626",
"$+	c #674B29",
"%+	c #654928",
"&+	c #70532B",
"*+	c #8A6733",
"=+	c #B48841",
"-+	c #E1AB52",
";+	c #F5BB59",
">+	c #F6BC59",
",+	c #583F22",
"'+	c #8C6C34",
")+	c #C99E4B",
"!+	c #EAB958",
"~+	c #F9C55E",
"{+	c #FFCB61",
"]+	c #FFCA61",
"^+	c #EBB955",
"/+	c #BE903B",
"(+	c #755266",
"_+	c #775466",
":+	c #AC7F2F",
"<+	c #765729",
"[+	c #684C27",
"}+	c #604526",
"|+	c #664A28",
"1+	c #604525",
"2+	c #624727",
"3+	c #5B4122",
"4+	c #896733",
"5+	c #C49549",
"6+	c #ECB250",
"7+	c #F0B54F",
"8+	c #F1B54F",
"9+	c #5D4324",
"0+	c #71542B",
"a+	c #8D6D34",
"b+	c #BB9346",
"c+	c #EBBA59",
"d+	c #FFCB62",
"e+	c #ECB955",
"f+	c #BF913B",
"g+	c #AC7E30",
"h+	c #7D5C2B",
"i+	c #51391E",
"j+	c #594023",
"k+	c #946F36",
"l+	c #DBA852",
"m+	c #E4AA45",
"n+	c #D7A040",
"o+	c #573E22",
"p+	c #987638",
"q+	c #E2B255",
"r+	c #ECB956",
"s+	c #BF913C",
"t+	c #4D361C",
"u+	c #50391E",
"v+	c #553C1F",
"w+	c #533B1E",
"x+	c #543C1F",
"y+	c #553D20",
"z+	c #4F381D",
"A+	c #4F381C",
"B+	c #D69F40",
"C+	c #A57A2F",
"D+	c #4E361D",
"E+	c #4C351B",
"F+	c #977537",
"G+	c #E1B255",
"H+	c #967034",
"I+	c #7E5D2B",
"J+	c #A9803E",
"K+	c #E0AB54",
"L+	c #F6BB59",
"M+	c #CD993D",
"N+	c #805E22",
"O+	c #A7803C",
"P+	c #DCAC52",
"Q+	c #F1BE5A",
"R+	c #EEBB57",
"S+	c #DBAA4B",
"T+	c #B78A35",
"U+	c #B1853D",
"V+	c #C89748",
"W+	c #E8B257",
"X+	c #F0B44F",
"Y+	c #CD983D",
"Z+	c #7F5D22",
"`+	c #CF9F4A",
" @	c #C69741",
".@	c #A87B2B",
"+@	c #B4863D",
"@@	c #BE8F3E",
"#@	c #BE8E3E",
"$@	c #BD8E3E",
"%@	c #CF9D48",
"&@	c #EBB357",
"*@	c #B4863E",
"=@	c #91683D",
"-@	c #90673E",
";@	c #725069",
">@	c #C49340",
",@	c #E7B055",
"'@	c #AC7E2F",
")@	c #AB7D2F",
"!@	c #9D723E",
"~@	c #805B52",
"{@	c #6D4B5A",
"]@	c #6E4B5B",
"^@	c #67476E",
"/@	c #6F4C5B",
"(@	c #A4782B",
"_@	c #AE8134",
":@	c #B2863A",
"<@	c #B3873B",
"[@	c #B18538",
"}@	c #AE8133",
"|@	c #5F4171",
"1@	c #6D4B5B",
"2@	c #AD8135",
"3@	c #C49749",
"4@	c #CFA153",
"5@	c #CFA154",
"6@	c #CB9C4E",
"7@	c #C39444",
"8@	c #543568",
"9@	c #D0A253",
"0@	c #D7A95B",
"a@	c #CCA056",
"b@	c #C49A53",
"c@	c #C49A52",
"d@	c #C0954E",
"e@	c #B78B43",
"f@	c #C89848",
"g@	c #E9B257",
"h@	c #A58045",
"i@	c #886937",
"j@	c #876836",
"k@	c #866634",
"l@	c #81602E",
"m@	c #CB9D4E",
"n@	c #50391D",
"o@	c #50381D",
"p@	c #7F5F2E",
"q@	c #594022",
"r@	c #6F522A",
"s@	c #5E4424",
"t@	c #6E4C5B",
"u@	c #5B4223",
"v@	c #604625",
"w@	c #644928",
"x@	c #523A1E",
"y@	c #6D4A5B",
"z@	c #543668",
"A@	c #D7A95C",
"B@	c #7D5750",
"C@	c #936A38",
"D@	c #AC8034",
"E@	c #C39649",
"F@	c #CEA153",
"G@	c #CA9C4E",
"H@	c #C29344",
"I@	c #BD8E3D",
"J@	c #946A38",
"K@	c #5D3D64",
"L@	c #715069",
"M@	c #9C702B",
"N@	c #9C702C",
"O@	c #69475F",
"P@	c #A77A2B",
"Q@	c #B68734",
"R@	c #BD8D3B",
"S@	c #B68735",
"T@	c #B58634",
"U@	c #D6A249",
"V@	c #E5AE53",
"W@	c #E5AF53",
"X@	c #D6A24A",
"Y@	c #E6AF53",
"Z@	c #91683E",
"`@	c #624372",
" #	c #5D3E6E",
".#	c #4B3059",
"+#	c #634473",
"@#	c #5F416E",
"##	c #624472",
"$#	c #5D3E6D",
"%#	c #533761",
"&#	c #5F406E",
"*#	c #422850",
"                                                                                                                                ",
"          . + @ # @ @ @ @ @ @ @ @ @ @ @ @ @ @ @ @ @ @ @ @ @ @ @ @ @ @ @ @ @ @ @ @ @ @ @ @ @ @ @ @ @ @ @ @ @ @ # @ + .           ",
"          + $ % & % % % % % % % % % % % % % % % % % % % % % % % % % % % % % % % % % % % % % % % % % % % % % % & % $ +           ",
"      * + = - ; ; ; ; ; ; ; ; ; ; ; ; ; ; ; ; ; ; ; ; ; ; ; ; ; ; ; ; ; ; ; ; ; ; ; ; ; ; ; ; ; ; ; ; ; ; ; ; ; ; - = + *       ",
"      + $ - > , , , , , , , , , , , , , , , , , , , , , , , , , , , , , , , , , , , , , , , , , , , , , , , , , , > - $ +       ",
"  . + = - ' ) ! ! ! ! ! ! ! ! ! ! ! ! ! ! ! ! ! ! ! ! ! ! ! ! ! ! ! ! ! ! ! ! ! ! ! ! ! ! ! ! ! ! ! ! ! ! ! ! ! ! ) ' - = + .   ",
"  + $ - > ) ~ ! ! ! ! ! ! ! ! ! ! ! ! ! ! ! ! ! ! ! ! ! ! ! ! ! ! ! ! ! ! ! ! ! ! ! ! ! ! ! ! ! ! ! ! ! ! ! ! ! ! ~ ) > - $ +   ",
"  @ % ; , ! ! ! ! ! ! ! ! ! ! ! ! ! ! ! ! ! ! ! ! ! ! ! ! ! ! ! ! ! ! ! ! ! ! ! ! ! ! ! ! ! ! ! ! ! ! ! ! ! ! ! ! ! ! , ; % @   ",
"  # & ; , ! ! ! ! ! ! ! ! ! ! ! ! ! ! ! ! ! ! ! ! ! ! ! ! ! ! ! ! ! ! ! ! ! ! ! ! ! ! ! ! ! ! ! ! ! ! ! ! ! ! ! ! ! ! , ; & #   ",
"  @ % ; , ! ! ! ! ! ! { ] ^ ^ ^ ^ ^ ^ ^ ^ ^ ^ ^ ^ ^ ^ ^ ^ ^ ^ ^ ^ / / / / / / / / / / / / / / / / ] { ! ! ! ! ! ! ! ! , ; % @   ",
"  @ % ; , ! ! ! ! ! ! ! ! ! ! ! ! ! ! ! ! ! ! ! ! ! ! ! ! ! ! ! ! ! ! ! ! ! ! ! ! ! ! ! ! ! ! ! ! ! ! ! ! ! ! ! ! ! ! , ; % @   ",
"  @ % ; , ! ! ! ! ( ] _ : < [ < < < < < < < < < < < < < < < < } | 1 1 1 1 1 1 1 1 1 1 1 1 1 1 2 1 3 4 ] ( ! ! ! ! ! ! , ; % @   ",
"  @ % ; , ! ! ! ! ] ! : 5 6 6 6 6 6 6 6 6 6 6 6 6 6 6 6 6 7 6 8 9 0 a 0 0 0 0 0 0 0 0 0 0 0 0 b 0 c d ! ] ! ! ! ! ! ! , ; % @   ",
"  @ % ; , ! ! { { _ e f g h i i i i i i i i i i i i i i i i i j k l l l l l l l l l l l l l l l m n o 3 p ] ( ! ! ! ! , ; % @   ",
"  @ % ; , ! ! ] ! : 5 g q r r r r r r r r r r r r r r r r r r s t u u u u u u u u u u u u u u u u v n c 3 ! ] ! ! ! ! , ; % @   ",
"  @ % ; , { { w x y z A B C D E E E E E E E E E E E E E E E E E E E E E E E E E E E E E E E E D C F G n H I J ( ] { ! , ; % @   ",
"  @ % ; , { ! K L M N O P D Q R S R R R R R R R R R R R R R R T T T T T T T T T T T T T T U T V W X F v n c 3 ! ] ! ! , ; % @   ",
"  @ % Y Z ` x  ...+.@.#.$.%.&.*.=.*.*.*.*.*.*.*.*.*.*.-.;.>.>.>.>.;.-.*.*.*.*.*.*.*.*.*.*.=.*.&.%.D #.F ,.'.).!.~.{.].Z Y % @   ",
"  @ % Y , x L ..^.@./.D (.&._.:.:.:.:.:.:.:.:.:.:.:.:.<.[.}.|.|.}.[.<.:.:.:.:.:.:.:.:.:.:.:.:._.&.(.D 1.F 2.3.4.5.L 6., Y % @   ",
"  7.% 8.9.0...+.@.#.$.a.b.c.d.e.f.e.e.g.h.h.g.f.f.i.j.k.l.m.m.m.m.l.k.j.i.f.f.g.h.h.g.e.e.f.e.d.c.n.a.o.p.q.q.r.s.t.u.9.8.% 7.  ",
"  7.% v.w...^.@.x.$.y.z.A.B.C.D.D.D.D.E.C.C.E.D.D.F.G.H.I.J.K.K.J.I.H.G.F.D.D.E.C.C.E.D.D.D.D.C.B.L.z.M.N.O.l P.Q.R.t.w.S.% 7.  ",
"  T.% U.V.W.X.C $.Y.Z.`. +.+++@+@+@+@+++.+#+++$+%+&+*+=+-+;+>+>+;+-+=+*+&+%+$+++#+.+++@+@+@+@+++.+,+`.'+)+!+~+{+]+^+/+V.(+% T.  ",
"  T.% _+V.:+X.$.y.<+[+}+B..+|+@+@+@+@+|+1+.+|+2+3+4+5+-+6+7+8+8+7+6+-+5+4+3+2+|+.+1+|+@+@+@+@+|+.+9+}+0+a+b+c+d+d+e+f+V.(+% T.  ",
"  T.% U.V.g+X.E h+i+j+B. + +B.#+#+#+#+B. + +B.,+i+k+l+;+7+m+n+n+m+7+;+l+k+i+,+B. + +B.#+#+#+#+B. + +B.o+i+p+q+d+d+r+s+V.(+% T.  ",
"  T.% U.V.g+X.E h+t+u+v+w+w+x+y+y+y+y+x+w+w+x+z+A+m.K.>+7+B+C+C+B+7+>+K.m.A+z+x+w+w+x+y+y+y+y+x+w+w+v+D+E+F+G+{+{+^+/+V.(+% T.  ",
"  T.% _+V.:+X.$.H+I+h+I+I+I+I+I+I+I+I+I+I+I+I+T I+J+K+L+7+M+N+N+M+7+L+K+J+I+T I+I+I+I+I+I+I+I+I+I+I+I+T I+O+P+Q+R+S+T+V.U.% T.  ",
"  T.% U.V.W.X.C $.E E E E E E E E E E E E E E U+E V+W+L+X+Y+Z+Z+Y+X+L+W+V+E U+E E E E E E E E E E E E E E o.`+r. @T+.@V.U.% T.  ",
"  7.% v.w...+@@@@@#@#@#@#@#@#@#@#@#@#@#@#@#@#@$@#@%@&@L+X+M+N+N+M+X+L+&@%@#@$@#@#@#@#@#@#@#@#@#@#@#@#@#@#@@@@@*@..=@-@w.;@% 7.  ",
"  7.% 8.9.0...W.:+g+g+g+g+g+g+g+g+g+g+g+g+g+g+W.g+>@,@L+X+M+N+N+M+X+L+,@>@g+W.g+g+g+g+g+g+g+g+g+g+g+g+g+g+'@)@!@~@{@]@9.^@% 7.  ",
"  @ % Y , /@-@(@_@:@<@<@<@[@}@g+'@g+g+g+g+g+g+W.g+>@,@L+X+Y+Z+Z+Y+X+L+,@>@g+W.g+g+g+g+'@g+}@[@<@<@<@<@<@:@_@(@-@/@! { , ; % @   ",
"  @ % |@Z 1@-@2@3@4@5@4@4@6@7@#@#@#@#@#@#@#@#@$@#@%@&@L+X+M+N+N+M+X+L+&@%@#@$@#@#@#@#@#@#@7@6@4@4@4@4@5@4@3@2@-@1@{ 8@Z Y % @   ",
"  @ % Y , ]@-@:@9@0@a@b@c@d@e@E E E E E E E E U+E f@g@>+X+B+C+C+B+X+>+g@f@E U+E E E E E E e@d@b@b@c@b@a@0@9@:@-@]@! { , ; % @   ",
"  @ % Y , ]@-@<@9@a@h@i@j@k@l@I+I+I+I+I+I+I+I+T I+J+K+;+7+m+n+n+m+7+;+K+J+I+T I+I+I+I+I+I+l@k@i@i@j@i@h@a@9@<@-@]@! { , ; % @   ",
"  @ % Y , ]@-@[@m@d@k@A+n@y+y+x+w+w+x+y+y+x+w+z+x+4+5+-+6+7+7+7+7+6+-+5+4+x+z+w+x+y+y+x+w+w+x+y+y+o@A+i@b@9@<@-@]@! { , ; % @   ",
"  @ % Y , ]@-@}@7@e@p@o@,+.+#+B. + +B.#+#+B. +q@B.r@*+=+-+;+>+>+;+-+=+*+r@B.q@ +B.#+#+B. +q@s@.+.+`.o@j@c@9@<@-@]@! { , ; % @   ",
"  @ % Y , t@-@g+X.E I+y+#+@+@+|+.+.+|+@+@+|+.+#+|+2+u@*+5+J.K.K.J.5+*+u@2+|+#+.+|+@+@+|+.+.+|+@+@+v@y+i@b@9@<@-@]@! { , ; % @   ",
"  @ % Y , t@-@'@X.E I+y+#+@+@+++.+.+++@+@+++.+#+++++2+&+4+m.m.m.m.4+&+2+++++#+.+++@+@+++.+.+++@+@+.+y+i@b@9@<@-@]@! { , ; % @   ",
"  @ % Y , t@-@g+X.E I+y+#+@+@+|+.+.+|+@+@+|+.+.+|+@+@+w@u@x+x@x@x+u@w@@+@+|+.+.+|+@+@+|+.+.+|+@+@+.+y+k@d@m@[@-@]@! { , ; % @   ",
"  @ % Y , t@-@g+X.E I+y+#+@+@+|+.+.+|+@+@+|+.+.+|+@+@+$+2+9+,+,+9+2+$+@+@+|+.+.+|+@+@+|+.+.+|+@+@+.+y+l@e@7@}@-@]@! { , ; % @   ",
"  @ % Y , t@-@'@X.E I+y+#+@+@+++.+.+++@+@+++.+.+++@+@+@+@+++.+.+++@+@+@+@+++.+.+++@+@+++.+.+++@+@+#+y+I+E X.'@-@t@! { , ; % @   ",
"  @ % Y , t@-@g+X.E I+y+#+@+@+|+.+.+|+@+@+|+.+.+|+@+@+@+@+++.+.+++@+@+@+@+|+.+.+|+@+@+|+.+.+|+@+@+#+y+I+E X.'@-@t@! { , ; % @   ",
"  @ % Y , ]@-@}@7@e@p@n@q@#+#+B. + +B.#+#+B. + +B.#+#+#+#+B. + +B.#+#+#+#+B. + +B.#+#+B. + +B.#+#+q@n@p@e@7@}@-@]@! { , ; % @   ",
"  @ % Y , ]@-@[@m@d@k@A+n@y+y+x+w+w+x+y+y+x+w+w+x+y+y+y+y+x+w+w+x+y+y+y+y+x+w+w+x+y+y+x+w+w+x+y+y+n@A+k@d@m@[@-@]@! { , ; % @   ",
"  @ % |@Z y@-@<@9@a@h@k@p@I+I+I+I+I+I+I+I+I+I+I+I+I+I+I+I+I+I+I+I+I+I+I+I+I+I+I+I+I+I+I+I+I+I+I+I+p@k@h@a@9@<@-@y@{ z@, ; % @   ",
"  @ % Y , ]@-@:@9@A@a@d@e@E E E E E E E E E E E E E E E E E E E E E E E E E E E E E E E E E E E E e@d@a@A@9@:@-@]@! { , ; % @   ",
"  7.% 8.9.B@C@D@E@F@4@G@H@$@I@$@$@$@$@$@$@$@$@$@$@$@$@$@$@$@$@$@$@$@$@$@$@$@$@$@$@$@$@$@$@$@$@I@$@H@G@4@F@E@D@J@B@6.K@, Y % @   ",
"  7.% L@w.J@M@(@2@:@<@[@}@g+'@g+g+g+g+g+g+g+g+g+g+g+g+g+g+g+g+g+g+g+g+g+g+g+g+g+g+g+g+g+g+g+g+'@g+}@[@<@:@2@(@N@J@L O@, Y % @   ",
"  T.% _+V.P@Q@R@R@R@R@R@R@R@R@R@R@R@R@R@R@R@R@R@R@R@R@R@R@R@R@R@R@R@R@R@R@R@R@R@R@R@R@R@R@R@R@R@R@R@R@R@R@R@R@S@P@-@/@, Y % @   ",
"  T.% U.V.T@U@V@W@V@V@V@V@V@V@V@V@V@V@V@V@V@V@V@V@V@V@V@V@V@V@V@V@V@V@V@V@V@V@V@V@V@V@V@V@V@V@V@V@V@V@V@V@W@V@X@T@=@]@, Y % @   ",
"  T.% U.V.T@U@W@Y@W@W@W@W@W@W@W@W@W@W@W@W@W@W@W@W@W@W@W@W@W@W@W@W@W@W@W@W@W@W@W@W@W@W@W@W@W@W@W@W@W@W@W@W@Y@W@U@T@=@]@, Y % @   ",
"  T.% _+V.P@Q@R@R@R@R@R@R@R@R@R@R@R@R@R@R@R@R@R@R@R@R@R@R@R@R@R@R@R@R@R@R@R@R@R@R@R@R@R@R@R@R@R@R@R@R@R@R@R@R@S@P@-@/@, Y % @   ",
"  7.% ;@w.-@=@-@-@-@-@-@-@-@-@-@-@-@-@-@-@-@-@-@-@-@-@-@-@-@-@-@-@-@-@-@-@-@-@-@-@-@-@-@-@-@-@-@-@-@-@-@-@-@-@Z@-@L 6., Y % @   ",
"  7.% ^@9./@]@y@y@y@y@y@y@y@y@y@y@y@y@y@y@y@y@y@y@y@y@y@y@y@y@y@y@y@y@y@y@y@y@y@y@y@y@y@y@y@y@y@y@y@y@y@y@y@y@]@/@6.K@, Y % @   ",
"  @ % ; , ! ! ! ! ! ! ! ! ! ! ! ! ! ! ! ! ! ! ! ! ! ! ! ! ! ! ! ! ! ! ! ! ! ! ! ! ! ! ! ! ! ! ! ! ! ! ! ! ! ! ! ! ! ! , ; % @   ",
"  @ % Y Z { { { { { { { { { { { { { { { { { { { { { { { { { { { { { { { { { { { { { { { { { { { { { { { { { { { { { ! , ; % @   ",
"  @ & `@ #) ~ ! ! ! ! ! ! ! ! ! ! ! ! ! ! ! ! ! ! ! ! ! ! ! ! ! ! ! ! ! ! ! ! ! ! ! ! ! ! ! ! ! ! ! ! ! ! ! ! ! ! ! ! , ; & #   ",
"  .#% +#`@' ) ! ! ! ! ! ! ! ! ! ! ! ! ! ! ! ! ! ! ! ! ! ! ! ! ! ! ! ! ! ! ! ! ! ! ! ! ! ! ! ! ! ! ! ! ! ! ! ! ! ! ! ! , ; % @   ",
"  + $ @###`@$#) ~ ! ! ! ! ! ! ! ! ! ! ! ! ! ! ! ! ! ! ! ! ! ! ! ! ! ! ! ! ! ! ! ! ! ! ! ! ! ! ! ! ! ! ! ! ! ! ! ! ~ ) > - $ +   ",
"  . + %#&#+#`@' ) ! ! ! ! ! ! ! ! ! ! ! ! ! ! ! ! ! ! ! ! ! ! ! ! ! ! ! ! ! ! ! ! ! ! ! ! ! ! ! ! ! ! ! ! ! ! ! ! ) ' - = + .   ",
"      + $ &###`@ #, , , , , , , , , , , , , , , , , , , , , , , , , , , , , , , , , , , , , , , , , , , , , , , , > - $ +       ",
"      *#+ %#@#+#`@; ; ; ; ; ; ; ; ; ; ; ; ; ; ; ; ; ; ; ; ; ; ; ; ; ; ; ; ; ; ; ; ; ; ; ; ; ; ; ; ; ; ; ; ; ; ; ; - = + *       ",
"          + $ % & % % % % % % % % % % % % % % % % % % % % % % % % % % % % % % % % % % % % % % % % % % % % % % & % $ +           ",
"          . + .#@ @ @ @ @ @ @ @ @ @ @ @ @ @ @ @ @ @ @ @ @ @ @ @ @ @ @ @ @ @ @ @ @ @ @ @ @ @ @ @ @ @ @ @ @ @ @ # @ + .           ",
"                                                                                                                                "};
