/* XPM */
static char * door_closed_xpm[] = {
"64 64 259 2",
"  	c #40264D",
". 	c #432950",
"+ 	c #492E56",
"@ 	c #4C3059",
"# 	c #4C3159",
"$ 	c #4B3059",
"% 	c #4B2F59",
"& 	c #4E365C",
"* 	c #524062",
"= 	c #544565",
"- 	c #554565",
"; 	c #563965",
"> 	c #5C3F6B",
", 	c #5C3F6C",
"' 	c #5C3E6B",
") 	c #614B72",
"! 	c #6A5D7D",
"~ 	c #6E6583",
"{ 	c #6F6583",
"] 	c #432850",
"^ 	c #523660",
"/ 	c #604171",
"( 	c #634674",
"_ 	c #685079",
": 	c #6B547C",
"< 	c #6B547D",
"[ 	c #6D5B7F",
"} 	c #706585",
"| 	c #726B87",
"1 	c #5B3C6B",
"2 	c #5A3B6B",
"3 	c #624A74",
"4 	c #6F5F83",
"5 	c #75698A",
"6 	c #716685",
"7 	c #68607C",
"8 	c #635C76",
"9 	c #5E3F6E",
"0 	c #59396A",
"a 	c #593C6A",
"b 	c #5E4770",
"c 	c #665679",
"d 	c #6E6483",
"e 	c #736B88",
"f 	c #6C6581",
"g 	c #605973",
"h 	c #58526A",
"i 	c #573868",
"j 	c #6B5D7F",
"k 	c #675F7B",
"l 	c #625C76",
"m 	c #605A73",
"n 	c #5B546D",
"o 	c #575169",
"p 	c #66567A",
"q 	c #5A546D",
"r 	c #634673",
"s 	c #624B74",
"t 	c #544F66",
"u 	c #534D64",
"v 	c #524D64",
"w 	c #544E65",
"x 	c #4C475C",
"y 	c #484357",
"z 	c #3F244C",
"A 	c #4D355B",
"B 	c #624B72",
"C 	c #6D5B80",
"D 	c #4E495F",
"E 	c #464155",
"F 	c #433F50",
"G 	c #474452",
"H 	c #4A4654",
"I 	c #706685",
"J 	c #423E51",
"K 	c #484453",
"L 	c #534F5A",
"M 	c #58555D",
"N 	c #544464",
"O 	c #5D516F",
"P 	c #6B627F",
"Q 	c #524F5A",
"R 	c #5F5C65",
"S 	c #65626A",
"T 	c #656169",
"U 	c #66626A",
"V 	c #656269",
"W 	c #646168",
"X 	c #646068",
"Y 	c #6C6380",
"Z 	c #665E79",
"` 	c #53505A",
" .	c #6B6771",
"..	c #716C77",
"+.	c #706B76",
"@.	c #6E6973",
"#.	c #6D6872",
"$.	c #7A7290",
"%.	c #625C75",
"&.	c #524E5A",
"*.	c #6A666F",
"=.	c #726D78",
"-.	c #7B7782",
";.	c #85818B",
">.	c #75707C",
",.	c #76707D",
"'.	c #76717D",
").	c #746E7A",
"!.	c #726C78",
"~.	c #716B77",
"{.	c #7A7291",
"].	c #87828C",
"^.	c #9E9AA2",
"/.	c #716C78",
"(.	c #726E79",
"_.	c #86828C",
":.	c #9B989F",
"<.	c #B2B0B4",
"[.	c #736E7A",
"}.	c #9E9AA1",
"|.	c #C1C0C3",
"1.	c #75707B",
"2.	c #6E6974",
"3.	c #6C6772",
"4.	c #6B6570",
"5.	c #746F7B",
"6.	c #736F78",
"7.	c #7A777D",
"8.	c #807E83",
"9.	c #858487",
"0.	c #88868A",
"a.	c #88878A",
"b.	c #828085",
"c.	c #76737B",
"d.	c #98959A",
"e.	c #ABA9AD",
"f.	c #B4B3B5",
"g.	c #B8B8B9",
"h.	c #B8B8BA",
"i.	c #B9B9BA",
"j.	c #A8A7A9",
"k.	c #7B787E",
"l.	c #908D92",
"m.	c #ABA8AD",
"n.	c #BCBABE",
"o.	c #C4C3C5",
"p.	c #C8C7C9",
"q.	c #C8C8CA",
"r.	c #B9B8BA",
"s.	c #979598",
"t.	c #726E78",
"u.	c #AAA8AD",
"v.	c #B4B1B6",
"w.	c #B9B7BB",
"x.	c #BEBCC0",
"y.	c #B8B6BA",
"z.	c #ACAAAE",
"A.	c #74707B",
"B.	c #747079",
"C.	c #7A777E",
"D.	c #8A878C",
"E.	c #9D9A9F",
"F.	c #A6A3A8",
"G.	c #B3B0B5",
"H.	c #B7B4B9",
"I.	c #8B888D",
"J.	c #7E7B80",
"K.	c #8F8D92",
"L.	c #AAA7AC",
"M.	c #8F8C91",
"N.	c #7D7A80",
"O.	c #756F7B",
"P.	c #6F6B75",
"Q.	c #7F7C81",
"R.	c #7E7C81",
"S.	c #5C595F",
"T.	c #7D7A7F",
"U.	c #B8B5BA",
"V.	c #726D79",
"W.	c #AAA8AC",
"X.	c #98959B",
"Y.	c #908E93",
"Z.	c #7E7B81",
"`.	c #A5A3A7",
" +	c #7B787F",
".+	c #979499",
"++	c #77747A",
"@+	c #5E5B61",
"#+	c #75707A",
"$+	c #767479",
"%+	c #67646A",
"&+	c #5D5A60",
"*+	c #706C76",
"=+	c #636067",
"-+	c #6C6871",
";+	c #4A4754",
">+	c #615E64",
",+	c #4E4B58",
"'+	c #625F67",
")+	c #6B686F",
"!+	c #6D6A71",
"~+	c #6D6A72",
"{+	c #524C63",
"]+	c #55525F",
"^+	c #716E76",
"/+	c #7E7B83",
"(+	c #827E87",
"_+	c #837F89",
":+	c #595662",
"<+	c #78757D",
"[+	c #87848C",
"}+	c #8B8791",
"|+	c #8C8893",
"1+	c #8D8994",
"2+	c #8C8892",
"3+	c #8D8995",
"4+	c #595562",
"5+	c #8B888F",
"6+	c #95929A",
"7+	c #9C99A1",
"8+	c #A09DA5",
"9+	c #A29FA6",
"0+	c #97939C",
"a+	c #908C97",
"b+	c #585562",
"c+	c #918E94",
"d+	c #A4A1A8",
"e+	c #B2B0B5",
"f+	c #BBBABD",
"g+	c #BFBEC1",
"h+	c #A6A2AA",
"i+	c #96929C",
"j+	c #88848C",
"k+	c #524D63",
"l+	c #534F5D",
"m+	c #6D6873",
"n+	c #7E7983",
"o+	c #88848F",
"p+	c #898590",
"q+	c #827D8A",
"r+	c #474053",
"s+	c #53485D",
"t+	c #696171",
"u+	c #827D89",
"v+	c #6C6374",
"w+	c #3F364D",
"x+	c #402D4D",
"y+	c #5B4F65",
"z+	c #7D7784",
"A+	c #7C7683",
"B+	c #3F2B4C",
"C+	c #594C62",
"D+	c #79747F",
"E+	c #79737F",
"F+	c #40364E",
"G+	c #594C61",
"H+	c #78737D",
"I+	c #858389",
"J+	c #77727C",
"                                                                                                                                ",
"          . + @ # $ $ % % & * = - = = = = = = = = = = = = = = = = = = = = = = = = = = = = = = - = * & % % $ $ # @ + .           ",
"          + ; > , > > ' > ) ! ~ { ~ ~ ~ ~ ~ ~ ~ ~ ~ ~ ~ ~ ~ ~ ~ ~ ~ ~ ~ ~ ~ ~ ~ ~ ~ ~ ~ ~ ~ ~ { ~ ! ) > ' > > , > ; +           ",
"      ] + ^ ' / / ( _ : < [ } | | | | | | | | | | | | | | | | | | | | | | | | | | | | | | | | | | } [ < : _ ( / / ' ^ + ]       ",
"      + ; ' 1 2 2 3 4 5 5 6 7 8 8 8 8 8 8 8 8 8 8 8 8 8 8 8 8 8 8 8 8 8 8 8 8 8 8 8 8 8 8 8 8 8 8 7 6 5 5 4 3 2 2 1 ' ; +       ",
"  . + ^ ' 9 0 a b c d e e f g h h h h h h h h h h h h h h h h h h h h h h h h h h h h h h h h h h g f e e d c b a 0 9 ' ^ + .   ",
"  + ; ' 1 0 i b j d k 8 l m n h o h h h h h h h h h h h h h h h h h h h h h h h h h h h h h h o h n m l 8 k d j b i 0 1 ' ; +   ",
"  @ > / 2 a b p d f m h h h h h h h h h h h h h h h h h h h h h h h h h h h h h h h h h h h h h h h h h h m f d p b a 2 / > @   ",
"  # , / 2 b j d k m q h o h h h h h h h h h h h h h h h h h h h h h h h h h h h h h h h h h h h h h h o h q m k d j b 2 / , #   ",
"  $ ' r s p d f m h h h h o t u v v v v v v v v v v v v v v v v v v v v v v v v v v v v v v v v u t o h h h h m f d p s r ' $   ",
"  $ > _ 4 d k m q h h h h w x y y y y y y y y y y y y y y y y y y y y y y y y y y y y y y y y y y x w h h h h q m k d 4 _ > $   ",
"z A B C 6 f m h h h h o t D E F G H H H H H H H H H H H H H H H H H H H H H H H H H H H H H H G F E D t o h h h h m f 6 C B A z ",
"  * ! I 7 m q h h h h t x E J K L M M M M M M M M M M M M M M M M M M M M M M M M M M M M M M L K J E x t h h h h q m 7 I ! *   ",
"N O P f m h h h h o t D E F G Q R S T T S U U U U U U U U V W X X W V U U U U U U U U S T T S R Q G F E D t o h h h h m f P O N ",
"~ Y Z m q h h h h t x E J G ` R  .........................+.@.#.#.@.+......................... .R ` G J E x t h h h h q m Z Y ~ ",
"$.| %.h h h h o w D E F G &.R *.=.-.;.;.-.>.,.'.'.'.'.'.>.).!.~.~.!.).>.'.'.'.'.'.,.>.-.;.;.-.=.*.R &.G F E D w o h h h h %.| $.",
"{.e %.h o h h t x E J G ` R  .=.>.].^.^.].'.,.'.'.'.'.>.).!./.~.~./.!.).>.'.'.'.'.,.'.].^.^.].>.=. .R ` G J E x t h h o h %.e {.",
"$.| %.h h h h u y F K Q R *.(.-._.:.<.<.:._.-.'.'.'.'.>.[.!./.~.~./.!.[.>.'.'.'.'.-._.:.<.<.:._.-.(.*.R Q K F y u h h h h %.| $.",
"$.| %.h h h h v y G L R  .=.>.;.}.<.|.|.<.}.;.'.>.'.'.'.>.).!.~.~.!.).>.'.'.'.>.'.;.}.<.|.|.<.}.;.>.=. .R L G y v h h h h %.| $.",
"$.| %.h h h h v y H M U ..>.'.;.}.<.|.|.<.}.;.'.>.'.'.1./.2.3.4.4.3.2...5.'.'.>.'.;.}.<.|.|.<.}.;.'.>...U M H y v h h h h %.| $.",
"$.| %.h h h h v y H M U ..'.'.-._.:.<.<.:._.-.'.'.'.'.=.*.V W X X W V *.=.'.'.'.'.-._.:.<.<.:._.-.'.'...U M H y v h h h h %.| $.",
"$.| %.h h h h v y H M U ..'.'.>.'._.}.}._.'.>.'.'.5./.6.7.8.9.0.0.a.0.b.c./.5.'.'.>.'._.}.}._.'.>.'.'...U M H y v h h h h %.| $.",
"$.| %.h h h h v y H M U ..'.'.,.>.-.;.;.-.>.,.'.'./.*.7.d.e.f.g.h.i.g.j.b.*...'.'.,.>.-.;.;.-.>.,.'.'...U M H y v h h h h %.| $.",
"$.| %.h h h h v y H M U ..'.'.'.'.'.'.'.'.'.'.5./.6.k.l.m.n.o.p.p.q.p.r.s.k.t./.5.'.'.'.'.'.'.'.'.'.'...U M H y v h h h h %.| $.",
"$.| %.h h h h v y H M U ..'.'.'.'.'.>.>.'.'.'./.*.7.d.u.v.w.n.x.x.x.x.y.z.d.7.*./.'.'.'.>.>.'.'.'.'.'...U M H y v h h h h %.| $.",
"$.| %.h h h h v y H M U ..'.'.'.'.'.'.'.'.A.=.B.C.D.E.F.F.u.G.H.H.G.u.F.F.E.D.C.B.=.A.'.'.'.'.'.'.'.'...U M H y v h h h h %.| $.",
"$.| %.h h h h v y H M U ..'.'.'.'.'.'.'.'./.*.k.d.E.I.J.J.K.L.H.H.L.M.N.J.I.E.d.k.*./.'.'.'.'.'.'.'.'...U M H y v h h h h %.| $.",
"$.| %.h h h h v y H M U ..'.'.'.>.O.O.>.'.P.S Q.F.F.R.S.S.T.F.U.U.F.T.S.S.R.F.F.Q.S P.'.>.O.O.>.'.'.'...U M H y v h h h h %.| $.",
"$.| %.h h h h v y H M U ..'.'.>.[.V.V.).>.P.S Q.F.F.R.S.S.T.F.U.U.F.T.S.S.R.F.F.Q.S P.>.).V.V.[.>.'.'...U M H y v h h h h %.| $.",
"$.| %.h h h h v y H M U ..'.'.O.V.~.~.V.O./.*.k.d.E.I.J.J.l.W.H.H.W.l.J.J.I.E.d.k.*./.O.V.~.~.V.O.'.'...U M H y v h h h h %.| $.",
"$.| %.h h h h v y H M U ..'.'.O.V.~.~.V.O.A.=.B.C.D.E.F.F.u.G.H.H.G.u.F.F.E.D.C.B.=.A.O.V.~.~.V.O.'.'...U M H y v h h h h %.| $.",
"$.| %.h h h h v y H M U ..'.'.O.V.~.~.V.O.'.'./.*.C.X.W.G.H.U.U.U.U.H.G.W.X.C.*./.'.'.O.V.~.~.V.O.'.'...U M H y v h h h h %.| $.",
"$.| %.h h h h v y H M U ..'.'.O.V.~.~.V.O.'.'.5./.6.k.Y.m.H.U.H.H.U.H.m.Y.k.6./.5.'.'.O.V.~.~.V.O.'.'...U M H y v h h h h %.| $.",
"$.| %.h h h h v y H M U ..'.'.>.[.V.V.[.>.'.'.'.'.P.S Z.F.G.m.F.F.m.G.F.Z.S P.'.'.'.'.>.[.V.V.[.>.'.'...U M H y v h h h h %.| $.",
"$.| %.h h h h v y H M U ..'.'.'.>.O.O.>.'.'.'.'.'.P.T J.`.u.Y.T.T.Y.u.`.J.T P.'.'.'.'.'.>.O.O.>.'.'.'...U M H y v h h h h %.| $.",
"$.| %.h h h h v y H M U ..'.'.'.'.'.'.'.'.'.'.'.'./.*. +d..+++@+@+++.+d. +*./.'.'.'.'.'.'.'.'.'.'.'.'...U M H y v h h h h %.| $.",
"$.| %.h h h h v y H M U ..'.'.'.'.'.'.'.'.'.'.'.'.A.=.#+C.$+%+&+&+%+$+C.#+=.A.'.'.'.'.'.'.'.'.'.'.'.'...U M H y v h h h h %.| $.",
"$.| %.h h h h v y H M U ..'.'.'.'.'.>.>.'.'.'.'.'.'.'.=.*.U S U U S U *.=.'.'.'.'.'.'.'.>.>.'.'.'.'.'...U M H y v h h h h %.| $.",
"$.| %.h h h h v y H M U ..'.'.'.'.'.'.'.'.'.'.'.'.'.'.A./.+.*+....*++./.A.'.'.'.'.'.'.'.'.'.'.'.'.'.'...U M H y v h h h h %.| $.",
"$.| %.h h h h v y H M U ..'.'.,.>.-.;.;.-.>.,.'.'.'.'.'.'.'.'.'.'.'.'.'.'.'.'.'.'.,.>.-.;.;.-.>.,.'.'...U M H y v h h h h %.| $.",
"$.| %.h h h h v y H M U ..'.'.>.'._.}.}._.'.>.'.'.'.'.'.'.'.'.'.'.'.'.'.'.'.'.'.'.>.'._.}.}._.'.>.'.'...U M H y v h h h h %.| $.",
"$.| %.h h h h v y H M U ..'.'.-._.:.<.<.:._.-.'.'.'.'.'.'.'.'.'.'.'.'.'.'.'.'.'.'.-._.:.<.<.:._.-.'.'...U M H y v h h h h %.| $.",
"$.| %.h h h h v y H M U ..>.'.;.}.<.|.|.<.}.;.'.>.'.'.'.'.'.'.'.'.'.'.'.'.'.'.>.'.;.}.<.|.|.<.}.;.'.>...U M H y v h h h h %.| $.",
"$.| %.h h h h v y H M U ..>.'.;.}.<.|.|.<.}.;.'.>.'.'.'.'.'.'.'.'.'.'.'.'.'.'.>.'.;.}.<.|.|.<.}.;.'.>...U M H y v h h h h %.| $.",
"$.| %.h h h h v y H M U ..'.'.-._.:.<.<.:._.-.'.'.'.'.'.'.'.'.'.'.'.'.'.'.'.'.'.'.-._.:.<.<.:._.-.'.'...U M H y v h h h h %.| $.",
"$.| %.h h h h v y H M U ..'.'.,.'.].^.^.].'.,.'.'.'.'.'.'.'.'.'.'.'.'.'.'.'.'.'.'.,.'.].^.^.].'.,.'.'...U M H y v h h h h %.| $.",
"$.| %.h h h h v y H M U ..'.'.,.>.-.;.;.-.>.,.'.'.'.'.'.'.'.'.'.'.'.'.'.'.'.'.'.'.,.>.-.;.;.-.>.,.'.'...U M H y v h h h h %.| $.",
"$.| %.h h h h v y H M =+-+*+*+*+*+*+*+*+*+*+*+*+*+*+*+*+*+*+*+*+*+*+*+*+*+*+*+*+*+*+*+*+*+*+*+*+*+*+*+-+=+M H y v h h h h %.| $.",
"$.| %.h h h h v y ;+M >+W U U U U S T T S U U U U U U U U U U U U U U U U U U U U U U S T T S U U U U W >+M ;+y v h h h h %.| $.",
"$.| %.h h h h v y ,+'+)+!+~+~+~+~+~+~+~+~+~+~+~+~+~+~+~+~+~+~+~+~+~+~+~+~+~+~+~+~+~+~+~+~+~+~+~+~+~+~+!+)+'+,+y v h h h h %.| $.",
"$.| %.h h h h {+y ]+^+/+(+_+_+_+_+_+_+_+_+_+_+_+_+_+_+_+_+_+_+_+_+_+_+_+_+_+_+_+_+_+_+_+_+_+_+_+_+_+_+(+/+^+]+y {+h h h h %.| $.",
"$.| %.h h h h {+y :+<+[+}+|+|+|+|+|+|+1+1+1+1+1+1+1+1+1+1+|+|+|+|+|+|+1+1+1+1+1+1+1+1+1+1+|+|+|+|+|+|+}+[+<+:+y {+h h h h %.| $.",
"$.| %.h h h h {+y :+<+[+2+1+3+1+1+1+1+1+1+1+1+1+1+1+1+1+1+1+1+1+1+1+1+1+1+1+1+1+1+1+1+1+1+1+1+1+1+3+1+2+[+<+:+y {+h h h h %.| $.",
"$.| %.h h h h {+y 4+<+5+6+7+8+9+9+8+7+0+a+1+1+1+1+1+1+a+0+7+8+9+9+8+7+0+a+1+1+1+1+1+1+a+0+7+8+9+9+8+7+6+5+<+4+y {+h h h h %.| $.",
"$.| %.h h h h {+y b+<+c+d+e+f+g+g+f+e+h+i+1+1+1+1+1+1+i+h+e+f+g+g+f+e+h+i+1+1+1+1+1+1+i+h+e+f+g+g+f+e+d+c+<+b+y {+h h h h %.| $.",
"$.| %.h h h h {+y b+<+c+d+e+f+g+g+f+e+h+i+1+1+1+1+1+1+i+h+e+f+g+g+f+e+h+i+1+1+1+1+1+1+i+h+e+f+g+g+f+e+d+c+<+b+y {+h h h h %.| $.",
"$.| %.h h h h {+y 4+<+5+6+7+8+9+9+8+7+0+a+1+1+1+1+1+1+a+0+7+8+9+9+8+7+0+a+1+1+1+1+1+1+a+0+7+8+9+9+8+7+6+5+<+4+y {+h h h h %.| $.",
"$.| %.h h h h {+y :+<+j+2+1+1+1+1+1+1+1+1+1+1+1+1+1+1+1+1+1+1+1+1+1+1+1+1+1+1+1+1+1+1+1+1+1+1+1+1+1+1+2+j+<+:+y {+h h h h %.| $.",
"$.| %.h h h h {+y :+<+[+}+|+|+|+|+|+|+1+1+1+1+1+1+1+1+1+1+|+|+|+|+|+|+1+1+1+1+1+1+1+1+1+1+|+|+|+|+|+|+}+[+<+:+y {+h h h h %.| $.",
"$.| %.h h h h k+y l+m+n+o+1+1+p+q+q+p+1+1+p+q+q+p+1+1+p+q+q+p+1+1+p+q+q+p+1+1+p+q+q+p+1+1+p+q+q+p+1+1+o+n+m+l+y k+h h h h %.| $.",
"$.| %.h h h h u y r+s+t+u+1+1+u+v+v+u+1+1+u+v+v+u+1+1+u+v+v+u+1+1+u+v+v+u+1+1+u+v+v+u+1+1+u+v+v+u+1+1+u+t+s+r+y u h h h h %.| $.",
"$.| %.h h h h u y w+x+y+z+2+2+A+y+y+A+2+2+A+y+y+A+2+2+A+y+y+A+2+2+A+y+y+A+2+2+A+y+y+A+2+2+A+y+y+A+2+2+z+y+x+w+y u h h h h %.| $.",
"$.| %.h h h h u y w+B+C+D+j+j+E+C+C+E+j+j+E+C+C+E+j+j+E+C+C+E+j+j+E+C+C+E+j+j+E+C+C+E+j+j+E+C+C+E+j+j+D+C+B+w+y u h h h h %.| $.",
"$.| %.h h h h u y F+x+G+H+I+I+J+G+G+J+I+I+J+G+G+J+I+I+J+G+G+J+I+I+J+G+G+J+I+I+J+G+G+J+I+I+J+G+G+J+I+I+H+G+x+F+y u h h h h %.| $."};
