/* XPM */
static char *f8b84526525c4f32915abe45a00c7ac1QDqsU43rUHRpMs0H[] = {
/* columns rows colors chars-per-pixel */
"32 32 13 1 ",
"  c #40264D",
". c #413D4F",
"X c #563767",
"o c #5F5C62",
"O c #58526A",
"+ c #644574",
"@ c #716B77",
"# c #76717D",
"$ c #7A7290",
"% c #858289",
"& c #8D8994",
"* c #B7B4B9",
"= c #CDCDCE",
/* pixels */
"                                ",
"   ++++$$$$$$$$$$$$$$$$$$++++   ",
"  +XX$$OOOOOOOOOOOOOOOOOO$$XX+  ",
" +XX$OOOOOOOOOOOOOOOOOOOOOO$XX+ ",
" +X$OOOOOOOOOOOOOOOOOOOOOOOO$X+ ",
" +$OOOO..................OOOO$+ ",
" $OOOO..oooooooooooooooo..OOOO$ ",
"$OOOO..o#######@@#######o..OOOO$",
"$OOO..o##*####@@@@####*##o..OOO$",
"$OOO.o##*=*####@@####*=*##o.OOO$",
"$OOO.o###*####oooo####*###o.OOO$",
"$OOO.o#######o*===o#######o.OOO$",
"$OOO.o######o******o######o.OOO$",
"$OOO.o#####o*oo**oo*o#####o.OOO$",
"$OOO.o##@@#o*oo**oo*o#@@##o.OOO$",
"$OOO.o##@@##o******o##@@##o.OOO$",
"$OOO.o##@@###o****o###@@##o.OOO$",
"$OOO.o#######o*oo*o#######o.OOO$",
"$OOO.o########oooo########o.OOO$",
"$OOO.o####################o.OOO$",
"$OOO.o###*############*###o.OOO$",
"$OOO.o##*=*##########*=*##o.OOO$",
"$OOO.o###*############*###o.OOO$",
"$OOO.o####################o.OOO$",
"$OOO.oooooooooooooooooooooo.OOO$",
"$OOO.%&&&&&&&&&&&&&&&&&&&&%.OOO$",
"$OOO.%&&&&&&&&&&&&&&&&&&&&%.OOO$",
"$OOO.%*==*&&&&*==*&&&&*==*%.OOO$",
"$OOO.%&&&&&&&&&&&&&&&&&&&&%.OOO$",
"$OOO.%&&&&&&&&&&&&&&&&&&&&%.OOO$",
"$OOO. && && && && && && && .OOO$",
"$OOO. %% %% %% %% %% %% %% .OOO$"
};
