/* XPM */
static char * enemy_2_xpm[] = {
"64 64 14 1",
" 	c #40264D",
".	c #644574",
"+	c #563767",
"@	c #141412",
"#	c #BD9168",
"$	c #ECCBAC",
"%	c #825E3A",
"&	c #4B3720",
"*	c #AE3838",
"=	c #551A1C",
"-	c #242A36",
";	c #5C8EA5",
">	c #3B535E",
",	c #8AC6E0",
"                                                                ",
"                                                                ",
"      ....................................................      ",
"      ....................................................      ",
"    ..++++++++++++++++++++++++++++++++++++++++++++++++++++..    ",
"    ..++++++++++++++++++++++++++++++++++++++++++++++++++++..    ",
"  ..++++++++++++++++++++++++++++++++++++++++++++++++++++++++..  ",
"  ..++++++++++++++++++++++++++++++++++++++++++++++++++++++++..  ",
"  ..++++++++++++++++++++++++++++++++++++++++++++++++++++++++..  ",
"  ..++++++++++++++++++++++++++++++++++++++++++++++++++++++++..  ",
"  ..++++++++++++++++++++++++++++++++++++++++++++++++++++++++..  ",
"  ..++++++++++++++++++++++@@@@@@@@@@@@++++++++++++++++++++++..  ",
"  ..++++++++++++++++++++@@###$$$$$$$$$@@++++++++++++++++++++..  ",
"  ..++++++++++++++++++++@@###$$$$$$$$$@@++++++++++++++++++++..  ",
"  ..++++++++++++++++++@@###$$$$$$$$$$$$$@@++++++++++++++++++..  ",
"  ..++++++++++++++++++@@###$$$$$$$$$$$$$@@++++++++++++++++++..  ",
"  ..+++++++++++++++++@%%###$$$$$$$$$$$$$$$@+++++++++++++++++..  ",
"  ..+++++++++++++++@@%%%#####$$$$$$$$$$$$$@+++++++++++++++++..  ",
"  ..+++++++++++++++@@%%%#####$$$$$$$$$$$$$@+++++++++++++++++..  ",
"  ..+++++++++++++++@@%%%%%####$$$$$$$$$$##@+++++++++++++++++..  ",
"  ..+++++++++++++++@@%%%%%%%%%%%@@@@@#@@@@&+++++++++++++++++..  ",
"  ..+++++++++++++++@@%%%%%%%%%%%@@@@@#@@@@&+++++++++++++++++..  ",
"  ..+++++++++++++++@@&%%%%%%%%%%@@@@@$@@@@&+++++++++++++++++..  ",
"  ..+++++++++++++++@@&%%%%%%%%%%@@@@@$@@@@&+++++++++++++++++..  ",
"  ..+++++++++++++++@@&%%%%%&&%%%@@@&&$&&@@&+++++++++++++++++..  ",
"  ..+++++++++++++++++@&&%%%&&#$$$$$##@%%##@+++++++++++++++++..  ",
"  ..+++++++++++++++++@&&%%%&&#$$$$$##@%%##@+++++++++++++++++..  ",
"  ..++++++++++++++++++@@&&%@@%##$$$$$@####@+++++++++++++++++..  ",
"  ..++++++++++++++++++++@@@@@@&&@@&###%%@@++++++++++++++++++..  ",
"  ..++++++++++++++++++++@@@@@@&&@@&###%%@@++++++++++++++++++..  ",
"  ..++++++++++++++++++++@@***@&&&&@@@@@@==@+++++++++++++++++..  ",
"  ..+++++++++++++++++@@@@@-***;;%%######===@@+++++++++++++++..  ",
"  ..+++++++++++++++++@@@@@-***;;%%######===@@+++++++++++++++..  ",
"  ..+++++++++++++++@@;;;;;>--*;;,,,,,,,,;;=>>@++++++++++++++..  ",
"  ..+++++++++++++++@@;;;;;>--*;;,,,,,,,,;;=>>@++++++++++++++..  ",
"  ..++++++++++++++@,,,;;;;;@@-;;;;;;;,,,>>->>@++++++++++++++..  ",
"  ..++++++++++++++@;;,,,,,,@@->>;;;;;,,,>>--->@@++++++++++++..  ",
"  ..++++++++++++++@;;,,,,,,@@->>;;;;;,,,>>--->@@++++++++++++..  ",
"  ..++++++++++++@@;@@@@@@@@@@--->>;;;,,,>>->>@@@++++++++++++..  ",
"  ..++++++++++++@@@;;;>>>>@@@--->>>@@@@@>>@@@@++++++++++++++..  ",
"  ..++++++++++++@@@;;;>>>>@@@--->>>@@@@@>>@@@@++++++++++++++..  ",
"  ..+++++++++++++++@@@@@@@@@@@@@@@@@@@@@@@++++++++++++++++++..  ",
"  ..+++++++++++++++@@@@@@@@@@@@@@@@@@@@@@@++++++++++++++++++..  ",
"  ..++++++++++++++++++++++***%@@@@@@@===@@++++++++++++++++++..  ",
"  ..++++++++++++++++++++@@>**>%%&&&@@-==--@+++++++++++++++++..  ",
"  ..++++++++++++++++++++@@>**>%%&&&@@-==--@+++++++++++++++++..  ",
"  ..++++++++++++++++++@@>>>>>>%%%%@%%------@@+++++++++++++++..  ",
"  ..++++++++++++++++++@@;;;;;@@@@@+@@&>>>>>@@+++++++++++++++..  ",
"  ..++++++++++++++++++@@;;;;;@@@@@+@@&>>>>>@@+++++++++++++++..  ",
"  ..++++++++++++++++++@@@@@@@@+++++@@&%%%%@+++++++++++++++++..  ",
"  ..++++++++++++++++++@@@@@@@@+++++@@&%%%%@+++++++++++++++++..  ",
"  ..+++++++++++++++++@%%%%&@@++++++++@&&&&@+++++++++++++++++..  ",
"  ..+++++++++++++++++@%%%%@++++++++++@&&&&@+++++++++++++++++..  ",
"  ..+++++++++++++++++@%%%%@++++++++++@&&&&@+++++++++++++++++..  ",
"  ..+++++++++++++++@@###%%@++++++++++@&&%%%@@+++++++++++++++..  ",
"  ..++++++++++++++++++++++++++++++++++++++++++++++++++++++++..  ",
"  ....++++++++++++++++++++++++++++++++++++++++++++++++++++++..  ",
"  ....++++++++++++++++++++++++++++++++++++++++++++++++++++++..  ",
"    ....++++++++++++++++++++++++++++++++++++++++++++++++++..    ",
"    ....++++++++++++++++++++++++++++++++++++++++++++++++++..    ",
"      ....................................................      ",
"      ....................................................      ",
"                                                                ",
"                                                                "};
