/* XPM */
static char * idle_3_xpm[] = {
"32 32 23 1",
" 	c #40264D",
".	c #644574",
"+	c #563767",
"@	c #26211D",
"#	c #DB764F",
"$	c #C74D39",
"%	c #855B40",
"&	c #AC302A",
"*	c #CD906D",
"=	c #734630",
"-	c #A7A49F",
";	c #F0C090",
">	c #427D76",
",	c #7F7D7C",
"'	c #854440",
")	c #AE5F5B",
"!	c #3C5014",
"~	c #41671F",
"{	c #EDE4CC",
"]	c #6B3633",
"^	c #B2AD93",
"/	c #5E351E",
"(	c #502417",
"                                ",
"   ..........................   ",
"  .++++++++++++++++++++++++++.  ",
" .++++++++++++++++++++++++++++. ",
" .++++++++++++++++++++++++++++. ",
" .++++++++++++++++++++++++++++. ",
" .++++++++++++++++++++++++++++. ",
" .++++++++++++++++++++++++++++. ",
" .++++++++++++++++++@@@@++++++. ",
" .++++++++++++@+@@@@####@+++++. ",
" .+++++++++++@$@####$$$$@+++++. ",
" .++++++++@+++@#$$$$$$$$@+++++. ",
" .+++++++@%@++@$$$$$$$&&@+++++. ",
" .++++++@+@%@+@&$$&&&&*@++++++. ",
" .+++++@%@%=@@@&$&*****@++++++. ",
" .+++++-@%==@@;;&*;;;;;@++++++. ",
" .+++++-+@@@=@@;&*;>;;>@++++++. ",
" .+++++-+,++@=@@**;;;*;@++++++. ",
" .+++++-+-+++@')'*;;;;;@++++++. ",
" .++++-+-+++@@)!~~!{{!@+++++++. ",
" .++++-+-++@]@'~~~^{{^~@++++++. ",
" .+++++-++++@@]~!!/((/!@++++++. ",
" .++++++++++++@!;;@@(/;@++++++. ",
" .+++++++++++++@@@++@@@+++++++. ",
" .++++++++++++++++++++++++++++. ",
" .++++++++++++++++++++++++++++. ",
" .++++++++++++++++++++++++++++. ",
" .++++++++++++++++++++++++++++. ",
" ..+++++++++++++++++++++++++++. ",
"  ..+++++++++++++++++++++++++.  ",
"   ..........................   ",
"                                "};
