/* XPM */
static char * idle_1_xpm[] = {
"32 32 23 1",
" 	c #40264D",
".	c #644574",
"+	c #563767",
"@	c #26211D",
"#	c #C74D39",
"$	c #DB764F",
"%	c #855B40",
"&	c #AC302A",
"*	c #CD906D",
"=	c #734630",
"-	c #F0C090",
";	c #A7A49F",
">	c #427D76",
",	c #7F7D7C",
"'	c #AE5F5B",
")	c #854440",
"!	c #3C5014",
"~	c #41671F",
"{	c #EDE4CC",
"]	c #6B3633",
"^	c #B2AD93",
"/	c #5E351E",
"(	c #502417",
"                                ",
"   ..........................   ",
"  .++++++++++++++++++++++++++.  ",
" .++++++++++++++++++++++++++++. ",
" .++++++++++++++++++++++++++++. ",
" .++++++++++++++++++++++++++++. ",
" .++++++++++++++++++++++++++++. ",
" .++++++++++++@+@@@@@@@+++++++. ",
" .+++++++++++@#@$$$$$$$@++++++. ",
" .++++++++++++@$####$$$$@+++++. ",
" .++++++++@+++@########$@+++++. ",
" .+++++++@%@++@&##&&####@+++++. ",
" .++++++@+@%@@@&#&**&###@+++++. ",
" .+++++@%@%=@@--&*---&&&@+++++. ",
" .+++++;@%==@+@-&*->-->@++++++. ",
" .+++++;+@@@=@+@**-----@++++++. ",
" .+++++;+,++@=@')*---*-@++++++. ",
" .+++++;+;+++@')!~~!!~@+++++++. ",
" .+++++;+;++@@)!~~!{{!~@++++++. ",
" .+++++;+;+@]@)~~~^{{^~@++++++. ",
" .++++++;+++@@]~!!////!@++++++. ",
" .++++++;+++++@!--/((/-@++++++. ",
" .+++++++++++++@@/@@@/@+++++++. ",
" .++++++++++++++@@++@@++++++++. ",
" .++++++++++++++++++++++++++++. ",
" .++++++++++++++++++++++++++++. ",
" .++++++++++++++++++++++++++++. ",
" .++++++++++++++++++++++++++++. ",
" ..+++++++++++++++++++++++++++. ",
"  ..+++++++++++++++++++++++++.  ",
"   ..........................   ",
"                                "};
