/* XPM */
static char * idle_3_xpm[] = {
"64 64 560 2",
"  	c #40264D",
". 	c #432950",
"+ 	c #492E56",
"@ 	c #4C3059",
"# 	c #4C3159",
"$ 	c #563965",
"% 	c #5C3F6B",
"& 	c #5C3F6C",
"* 	c #432850",
"= 	c #523660",
"- 	c #5C3E6B",
"; 	c #614271",
"> 	c #5B3C6B",
", 	c #5A3B6B",
"' 	c #5E3F6E",
") 	c #593A6A",
"! 	c #563767",
"~ 	c #573868",
"{ 	c #563768",
"] 	c #533664",
"^ 	c #4D335E",
"/ 	c #49315A",
"( 	c #4F345E",
"_ 	c #412C4A",
": 	c #37283B",
"< 	c #48315B",
"[ 	c #5A3752",
"} 	c #71403E",
"| 	c #7C4530",
"1 	c #72413E",
"2 	c #5C3852",
"3 	c #4F335E",
"4 	c #412D4A",
"5 	c #33273B",
"6 	c #AA5C43",
"7 	c #C06845",
"8 	c #C16845",
"9 	c #AA5C42",
"0 	c #593250",
"a 	c #6A3239",
"b 	c #69313A",
"c 	c #573150",
"d 	c #71403F",
"e 	c #7A4430",
"f 	c #9A5238",
"g 	c #C46544",
"h 	c #D66D4A",
"i 	c #D76D4A",
"j 	c #D76E4A",
"k 	c #BC6041",
"l 	c #78402E",
"m 	c #9A3E34",
"n 	c #993E35",
"o 	c #A95C43",
"p 	c #CA5E41",
"q 	c #CE5B40",
"r 	c #B45038",
"s 	c #743728",
"t 	c #543664",
"u 	c #573768",
"v 	c #693139",
"w 	c #9B3E35",
"x 	c #A24432",
"y 	c #8C4531",
"z 	c #C36544",
"A 	c #D26646",
"B 	c #CB573E",
"C 	c #C74D39",
"D 	c #C84E39",
"E 	c #AF4532",
"F 	c #703126",
"G 	c #4A325A",
"H 	c #B05D3E",
"I 	c #CB5F42",
"J 	c #CC573E",
"K 	c #C9503B",
"L 	c #C74C39",
"M 	c #C84D39",
"N 	c #AE4432",
"O 	c #4D3450",
"P 	c #4E363B",
"Q 	c #4D3351",
"R 	c #543665",
"S 	c #79412E",
"T 	c #C54B38",
"U 	c #C24736",
"V 	c #C14635",
"W 	c #A93F2F",
"X 	c #6D2E24",
"Y 	c #694838",
"Z 	c #49315B",
"` 	c #34283C",
" .	c #733729",
"..	c #CA513B",
"+.	c #C24836",
"@.	c #B93F31",
"#.	c #B4392F",
"$.	c #B3392E",
"%.	c #9E3429",
"&.	c #662922",
"*.	c #462F54",
"=.	c #3E2B45",
"-.	c #4E363C",
";.	c #694839",
">.	c #6C4B35",
",.	c #5B3F2E",
"'.	c #50345F",
").	c #4A325B",
"!.	c #38283C",
"~.	c #6D2E25",
"{.	c #C64C38",
"].	c #C04534",
"^.	c #BE4B39",
"/.	c #B85340",
"(.	c #AF4E3D",
"_.	c #A03B30",
":.	c #862B2C",
"<.	c #5C2837",
"[.	c #4E345E",
"}.	c #473053",
"|.	c #4E373B",
"1.	c #5B402E",
"2.	c #6D4B34",
"3.	c #412D4B",
"4.	c #652822",
"5.	c #9D3329",
"6.	c #C34837",
"7.	c #B4392E",
"8.	c #B3382E",
"9.	c #B95441",
"0.	c #C17257",
"a.	c #B27055",
"b.	c #854B3A",
"c.	c #5C2937",
"d.	c #512D50",
"e.	c #533564",
"f.	c #4E315D",
"g.	c #4C324F",
"h.	c #4E363A",
"i.	c #4B3351",
"j.	c #4D363B",
"k.	c #5F4230",
"l.	c #765037",
"m.	c #714C35",
"n.	c #4C3528",
"o.	c #342736",
"p.	c #442E50",
"q.	c #412D4F",
"r.	c #2E2234",
"s.	c #5E1E1D",
"t.	c #962723",
"u.	c #B3372D",
"v.	c #C64B38",
"w.	c #BD4A39",
"x.	c #B8523F",
"y.	c #B55543",
"z.	c #B55643",
"A.	c #B55542",
"B.	c #BC6951",
"C.	c #C78364",
"D.	c #B47E5F",
"E.	c #74523F",
"F.	c #4A305A",
"G.	c #68483A",
"H.	c #765038",
"I.	c #784E36",
"J.	c #6A442F",
"K.	c #473124",
"L.	c #2B2327",
"M.	c #322635",
"N.	c #302635",
"O.	c #2B2328",
"P.	c #612521",
"Q.	c #972C27",
"R.	c #C14736",
"S.	c #B93F32",
"T.	c #C07257",
"U.	c #C57F61",
"V.	c #C58061",
"W.	c #C88565",
"X.	c #CB8C6A",
"Y.	c #B47F60",
"Z.	c #73523F",
"`.	c #35283C",
" +	c #49305A",
".+	c #563667",
"++	c #584364",
"@+	c #5D555D",
"#+	c #665A52",
"$+	c #705442",
"%+	c #5B3F2D",
"&+	c #7E533A",
"*+	c #784B34",
"=+	c #663F2C",
"-+	c #442D23",
";+	c #221F1C",
">+	c #24201D",
",+	c #4E4031",
"'+	c #796048",
")+	c #9A6E53",
"!+	c #B56F54",
"~+	c #C1664E",
"{+	c #C1543F",
"]+	c #B85240",
"^+	c #BF6F55",
"/+	c #CF906D",
"(+	c #D79F77",
"_+	c #D89F78",
":+	c #D79E77",
"<+	c #BE8C69",
"[+	c #7A5A44",
"}+	c #492F5A",
"|+	c #553567",
"1+	c #6B5A73",
"2+	c #868083",
"3+	c #85807B",
"4+	c #675B53",
"5+	c #6C4A33",
"6+	c #744831",
"7+	c #653E2C",
"8+	c #442E23",
"9+	c #1D1B19",
"0+	c #24201B",
"a+	c #765F47",
"b+	c #B9946F",
"c+	c #D7A97F",
"d+	c #DEAA7F",
"e+	c #D69670",
"f+	c #C07156",
"g+	c #E0AA80",
"h+	c #E8B688",
"i+	c #E8B689",
"j+	c #E9B689",
"k+	c #E8B588",
"l+	c #CB9F77",
"m+	c #82664C",
"n+	c #482E5A",
"o+	c #553466",
"p+	c #74647A",
"q+	c #979193",
"r+	c #94908D",
"s+	c #666063",
"t+	c #674636",
"u+	c #6A442E",
"v+	c #663F2B",
"w+	c #653E2A",
"x+	c #5E3B29",
"y+	c #4F3325",
"z+	c #3A271F",
"A+	c #2F241E",
"B+	c #765E47",
"C+	c #DCB084",
"D+	c #EABC8D",
"E+	c #E1A97F",
"F+	c #C16F55",
"G+	c #C47E60",
"H+	c #E9BC8E",
"I+	c #DBB68C",
"J+	c #DBB58B",
"K+	c #F0C090",
"L+	c #F1C090",
"M+	c #EABD8F",
"N+	c #B99B78",
"O+	c #76634D",
"P+	c #492E59",
"Q+	c #74657A",
"R+	c #989294",
"S+	c #969292",
"T+	c #6F6372",
"U+	c #4C3439",
"V+	c #4F3326",
"W+	c #5E3B2A",
"X+	c #593828",
"Y+	c #3F2B22",
"Z+	c #4C3D30",
"`+	c #786048",
" @	c #AD8B68",
".@	c #C27156",
"+@	c #C57F60",
"@@	c #AFA183",
"#@	c #AFA083",
"$@	c #F1C190",
"%@	c #DCB68C",
"&@	c #7D816E",
"*@	c #4F5247",
"=@	c #4B305A",
"-@	c #736479",
";@	c #533C60",
">@	c #4C414F",
",@	c #454143",
"'@	c #3C323E",
")@	c #37283C",
"!@	c #472F38",
"~@	c #5C3A30",
"{@	c #503325",
"]@	c #2E241E",
"^@	c #766048",
"/@	c #B8946E",
"(@	c #CB9872",
"_@	c #BF7559",
":@	c #AEA083",
"<@	c #EEBD8E",
"[@	c #EAB88A",
"}@	c #D5AD86",
"|@	c #AB9C80",
"1@	c #7C806E",
"2@	c #5E4B69",
"3@	c #68626B",
"4@	c #676268",
"5@	c #574860",
"6@	c #4C325B",
"7@	c #4C315A",
"8@	c #4A3150",
"9@	c #503326",
"0@	c #583727",
"a@	c #493C2F",
"b@	c #9A7155",
"c@	c #B87B5D",
"d@	c #DBB58C",
"e@	c #DEA87E",
"f@	c #D7A47D",
"g@	c #D4AC85",
"h@	c #77644E",
"i@	c #543466",
"j@	c #553566",
"k@	c #979293",
"l@	c #675670",
"m@	c #7F797F",
"n@	c #807A7F",
"o@	c #685771",
"p@	c #482F39",
"q@	c #603A2B",
"r@	c #543229",
"s@	c #522F2C",
"t@	c #5F3633",
"u@	c #835345",
"v@	c #AC745B",
"w@	c #C28566",
"x@	c #CA8D6B",
"y@	c #F0C08F",
"z@	c #EAB889",
"A@	c #DFA87F",
"B@	c #EBB98B",
"C@	c #D4A97E",
"D@	c #886D51",
"E@	c #482D59",
"F@	c #706077",
"G@	c #8F898C",
"H@	c #908A8D",
"I@	c #55322A",
"J@	c #6B3A34",
"K@	c #7F4340",
"L@	c #8F4D4A",
"M@	c #98554F",
"N@	c #9B5D4F",
"O@	c #AA6E58",
"P@	c #C28666",
"Q@	c #886C51",
"R@	c #482E59",
"S@	c #5E456C",
"T@	c #6C5A75",
"U@	c #7E7281",
"V@	c #8F878D",
"W@	c #8E878D",
"X@	c #8A8189",
"Y@	c #6C5B75",
"Z@	c #432E4F",
"`@	c #332635",
" #	c #54302D",
".#	c #804440",
"+#	c #94514B",
"@#	c #99584E",
"##	c #92574A",
"$#	c #825240",
"%#	c #8B6145",
"&#	c #A87B58",
"*#	c #BD9168",
"=#	c #CCA377",
"-#	c #DBB488",
";#	c #E9C39A",
">#	c #EFCAA3",
",#	c #E8C39A",
"'#	c #D4AB7E",
")#	c #D2A97D",
"!#	c #BA9471",
"~#	c #7B6054",
"{#	c #4C305D",
"]#	c #8F888D",
"^#	c #50345E",
"/#	c #302535",
"(#	c #2A2227",
"_#	c #914F4B",
":#	c #7F563F",
"<#	c #665731",
"[#	c #5C5C2C",
"}#	c #626430",
"|#	c #736F3A",
"1#	c #7E7441",
"2#	c #88794B",
"3#	c #AC9C79",
"4#	c #DAC8AA",
"5#	c #EFDCBF",
"6#	c #AD9C7A",
"7#	c #8B7850",
"8#	c #876E4E",
"9#	c #7B6053",
"0#	c #604658",
"a#	c #989293",
"b#	c #4A3050",
"c#	c #452B38",
"d#	c #392522",
"e#	c #2F231E",
"f#	c #92584B",
"g#	c #675831",
"h#	c #3E5B1A",
"i#	c #3E631C",
"j#	c #40671E",
"k#	c #41671F",
"l#	c #4C682D",
"m#	c #647049",
"n#	c #9D9C81",
"o#	c #D6CFB7",
"p#	c #EFE6CE",
"q#	c #616848",
"r#	c #414D2D",
"s#	c #383B35",
"t#	c #46344F",
"u#	c #562F31",
"v#	c #532D29",
"w#	c #3C2622",
"x#	c #55302D",
"y#	c #5E5D2D",
"z#	c #3E661D",
"A#	c #3D661B",
"B#	c #3E671D",
"C#	c #607546",
"D#	c #8B8F70",
"E#	c #B6B299",
"F#	c #DCD5BD",
"G#	c #EEE5CD",
"H#	c #8A8D70",
"I#	c #5C6D45",
"J#	c #354F25",
"K#	c #353834",
"L#	c #7F7381",
"M#	c #3B2620",
"N#	c #4B2B27",
"O#	c #703A36",
"P#	c #734D37",
"Q#	c #585F2A",
"R#	c #3F651D",
"S#	c #3B6219",
"T#	c #385F14",
"U#	c #3A6018",
"V#	c #627146",
"W#	c #908D71",
"X#	c #B0A790",
"Y#	c #C8BEA8",
"Z#	c #D3C9B3",
"`#	c #8F8D71",
" $	c #355517",
".$	c #293818",
"+$	c #4D315B",
"@$	c #3B2622",
"#$	c #452826",
"$$	c #653431",
"%$	c #684931",
"&$	c #525E27",
"*$	c #40631D",
"=$	c #3E5C19",
"-$	c #3C5716",
";$	c #3D5717",
">$	c #535B2F",
",$	c #70644A",
"'$	c #826F5C",
")$	c #8C7A6A",
"!$	c #908071",
"~$	c #535C2F",
"{$	c #384D16",
"]$	c #2B3519",
"^$	c #4D325A",
"/$	c #6D5B75",
"($	c #442A38",
"_$	c #574229",
":$	c #4A5821",
"<$	c #5C6A30",
"[$	c #7F7647",
"}$	c #8E7D51",
"|$	c #8E7C51",
"1$	c #826E47",
"2$	c #674D30",
"3$	c #502D1B",
"4$	c #4A2517",
"5$	c #4A2316",
"6$	c #4E2417",
"7$	c #532718",
"8$	c #5B311C",
"9$	c #6E5032",
"0$	c #836F47",
"a$	c #7C6D46",
"b$	c #534830",
"c$	c #4B315A",
"d$	c #553667",
"e$	c #4A2F50",
"f$	c #3B361E",
"g$	c #3E4E1A",
"h$	c #7D7546",
"i$	c #BB9B6E",
"j$	c #D5AC7E",
"k$	c #BB976E",
"l$	c #7C6146",
"m$	c #352017",
"n$	c #2B120E",
"o$	c #37160E",
"p$	c #46180A",
"q$	c #4E1C08",
"r$	c #592D16",
"s$	c #8B6747",
"t$	c #BE986E",
"u$	c #BA966E",
"v$	c #796248",
"w$	c #322F33",
"x$	c #364022",
"y$	c #7B6C45",
"z$	c #BA976E",
"A$	c #32243A",
"B$	c #3C2734",
"C$	c #442424",
"D$	c #472314",
"E$	c #502D1A",
"F$	c #866448",
"G$	c #BC956E",
"H$	c #7C6254",
"I$	c #44314F",
"J$	c #373234",
"K$	c #524730",
"L$	c #896E52",
"M$	c #8A6E52",
"N$	c #7D6254",
"O$	c #614758",
"P$	c #4D325B",
"Q$	c #4B315B",
"R$	c #472F50",
"S$	c #3C2735",
"T$	c #35221B",
"U$	c #39261B",
"V$	c #594331",
"W$	c #7A6149",
"X$	c #624859",
"Y$	c #4C325A",
"Z$	c #624372",
"`$	c #5D3E6E",
" %	c #4B3059",
".%	c #634473",
"+%	c #5F416E",
"@%	c #624472",
"#%	c #5D3E6D",
"$%	c #533761",
"%%	c #5F406E",
"&%	c #422850",
"                                                                                                                                ",
"          . + @ # @ @ @ @ @ @ @ @ @ @ @ @ @ @ @ @ @ @ @ @ @ @ @ @ @ @ @ @ @ @ @ @ @ @ @ @ @ @ @ @ @ @ @ @ @ @ # @ + .           ",
"          + $ % & % % % % % % % % % % % % % % % % % % % % % % % % % % % % % % % % % % % % % % % % % % % % % % & % $ +           ",
"      * + = - ; ; ; ; ; ; ; ; ; ; ; ; ; ; ; ; ; ; ; ; ; ; ; ; ; ; ; ; ; ; ; ; ; ; ; ; ; ; ; ; ; ; ; ; ; ; ; ; ; ; - = + *       ",
"      + $ - > , , , , , , , , , , , , , , , , , , , , , , , , , , , , , , , , , , , , , , , , , , , , , , , , , , > - $ +       ",
"  . + = - ' ) ! ! ! ! ! ! ! ! ! ! ! ! ! ! ! ! ! ! ! ! ! ! ! ! ! ! ! ! ! ! ! ! ! ! ! ! ! ! ! ! ! ! ! ! ! ! ! ! ! ! ) ' - = + .   ",
"  + $ - > ) ~ ! ! ! ! ! ! ! ! ! ! ! ! ! ! ! ! ! ! ! ! ! ! ! ! ! ! ! ! ! ! ! ! ! ! ! ! ! ! ! ! ! ! ! ! ! ! ! ! ! ! ~ ) > - $ +   ",
"  @ % ; , ! ! ! ! ! ! ! ! ! ! ! ! ! ! ! ! ! ! ! ! ! ! ! ! ! ! ! ! ! ! ! ! ! ! ! ! ! ! ! ! ! ! ! ! ! ! ! ! ! ! ! ! ! ! , ; % @   ",
"  # & ; , ! ! ! ! ! ! ! ! ! ! ! ! ! ! ! ! ! ! ! ! ! ! ! ! ! ! ! ! ! ! ! ! ! ! ! ! ! ! ! ! ! ! ! ! ! ! ! ! ! ! ! ! ! ! , ; & #   ",
"  @ % ; , ! ! ! ! ! ! ! ! ! ! ! ! ! ! ! ! ! ! ! ! ! ! ! ! ! ! ! ! ! ! ! ! ! ! ! ! ! ! ! ! ! ! ! ! ! ! ! ! ! ! ! ! ! ! , ; % @   ",
"  @ % ; , ! ! ! ! ! ! ! ! ! ! ! ! ! ! ! ! ! ! ! ! ! ! ! ! ! ! ! ! ! ! ! ! ! ! ! ! ! ! ! ! ! ! ! ! ! ! ! ! ! ! ! ! ! ! , ; % @   ",
"  @ % ; , ! ! ! ! ! ! ! ! ! ! ! ! ! ! ! ! ! ! ! ! ! ! ! ! ! ! ! ! ! ! ! ! ! ! ! ! ! ! ! ! ! ! ! ! ! ! ! ! ! ! ! ! ! ! , ; % @   ",
"  @ % ; , ! ! ! ! ! ! ! ! ! ! ! ! ! ! ! ! ! ! ! ! ! ! ! ! ! ! ! ! ! ! ! ! ! ! ! ! ! ! ! ! ! ! ! ! ! ! ! ! ! ! ! ! ! ! , ; % @   ",
"  @ % ; , ! ! ! ! ! ! ! ! ! ! ! ! ! ! ! ! ! ! ! ! ! ! ! ! ! ! ! ! ! ! ! ! ! ! ! ! ! ! ! ! ! ! ! ! ! ! ! ! ! ! ! ! ! ! , ; % @   ",
"  @ % ; , ! ! ! ! ! ! ! ! ! ! ! ! ! ! ! ! ! ! ! ! ! ! ! ! ! ! ! ! ! ! ! ! ! ! ! ! ! ! ! ! ! ! ! ! ! ! ! ! ! ! ! ! ! ! , ; % @   ",
"  @ % ; , ! ! ! ! ! ! ! ! ! ! ! ! ! ! ! ! ! ! ! ! ! ! ! ! ! ! ! ! ! ! ! ! { ! ] ^ / / / / / / ^ ] ! ! ! ! ! ! ! ! ! ! , ; % @   ",
"  @ % ; , ! ! ! ! ! ! ! ! ! ! ! ! ! ! ! ! ! ! ! ! ! ! ! ! ! ! ! ! ! ! ! ! ! ! ( _ : : : : : : _ ( ! ! ! ! ! ! ! ! ! ! , ; % @   ",
"  @ % ; , ! ! ! ! ! ! ! ! ! ! ! ! ! ! ! ! ! ! ! ! ! ! ] ^ ^ ] ] ^ / / / / < / [ } | | | | | | 1 2 ( ] ! ! ! ! ! ! ! ! , ; % @   ",
"  @ % ; , ! ! ! ! ! ! ! ! ! ! ! ! ! ! ! ! ! ! ! ! ! ! 3 _ 4 3 ( 4 : : : : 5 : } 6 7 8 7 7 8 7 9 } _ ^ ! ! ! ! ! ! ! ! , ; % @   ",
"  @ % ; , ! ! ! ! ! ! ! ! ! ! ! ! ! ! ! ! ! ! ! ! ] 3 0 a b c [ d | | | | e | f g h i h h j h k l : / ! ! ! ! ! ! ! ! , ; % @   ",
"  @ % ; , ! ! ! ! ! ! ! ! ! ! ! ! ! ! ! ! ! ! ! ! ^ _ a m n a } o 7 8 7 7 7 7 g p q q q q q q r s : / ! ! ! ! ! ! ! ! , ; % @   ",
"  @ % ; , ! ! ! ! ! ! ! ! ! ! ! ! ! ! t 3 3 t u ! ^ _ v w x y f z h i h h h h A B C C C C D C E F : G ! ! ! ! ! ! ! ! , ; % @   ",
"  @ % ; , ! ! ! ! ! ! ! ! ! ! ! ! ! ! 3 _ _ 3 ! ! ] 3 c a y H g I q q q q q q J K L L L L M L N F : G ! ! ! ! ! ! ! ! , ; % @   ",
"  @ % ; , ! ! ! ! ! ! ! ! ! ! ! ! t 3 O P P Q 3 R u ! / : S k A J C C C C C C C C C C T U V V W X : G ! ! ! ! ! ! ! ! , ; % @   ",
"  @ % ; , ! ! ! ! ! ! ! ! ! ! ! ! 3 _ P Y Y P _ 3 { u Z `  .r J ..L L L L L L C C C C +.@.#.$.%.&.: G ! ! ! ! ! ! ! ! , ; % @   ",
"  @ % ; , ! ! ! ! ! ! ! ! ! ! t 3 *.=.-.;.>.,.P Q '.R ).!.~.W +.{.C C T U ].].].].].].^./.(._.:.<._ [.! ! ! ! ! ! ! ! , ; % @   ",
"  @ % ; , ! ! ! ! ! ! ! ! ! ! 3 _ =.}.Q |.1.2.Y P 3.3 G !.4.5.@.6.C C +.@.7.$.7.7.8.7.9.0.a.b.c.d.( t ! ! ! ! ! ! ! ! , ; % @   ",
"  @ % ; , ! ! ! ! ! ! ! ! e.f.g.h.-.Q i.j.k.l.m.n.o.p.q.r.s.t.u.V v.+.w.x.y.z.y.y.A.y.B.C.D.E.: F.! ! ! ! ! ! ! ! ! ! , ; % @   ",
"  @ % ; , ! ! ! ! ! ! ! ! 3 _ P Y ;.|.j.G.H.I.J.K.L.M.N.O.P.Q.7.R.U S./.T.U.V.U.U.U.U.W.X.Y.Z.`. +! { ! ! ! ! ! ! ! ! , ; % @   ",
"  @ % ; , ! ! ! ! ! ! .+! ++@+#+$+>.%+k.H.&+*+=+-+;+>+,+'+)+!+~+{+w.]+^+/+(+_+_+(+:+:+_+_+<+[+: }+! ! ! ! ! ! ! ! ! ! , ; % @   ",
"  @ % ; , ! ! ! ! ! ! |+! 1+2+3+4+,.5+l.I.*+6+7+8+9+0+a+b+c+d+e+~+x.f+/+g+h+i+h+h+h+h+j+k+l+m+: n+! ! ! ! ! ! ! ! ! ! , ; % @   ",
"  @ % ; , ! ! ! ! ! ! o+! p+q+r+s+j.t+m.u+v+w+x+y+z+A+B+b+C+D+E+F+A.G+(+h+H+I+J+H+K+L+M+J+N+O+: P+! ! ! ! ! ! ! ! ! ! , ; % @   ",
"  @ % ; , ! ! ! ! ! ! o+! Q+R+S+T+Q U+n.K.-+8+V+W+X+Y+Z+`+ @C+E+.@z.+@_+i+I+@@#@I+$@$@%@#@&@*@: =@! ! ! ! ! ! ! ! ! ! , ; % @   ",
"  @ % ; , ! ! ! ! ! ! o+! -@q+q+-@;@>@,@'@)@: !@~@x+{@z+]@^@/@(@_@B.C._+k+J+#@:@J+<@[@}@|@1@*@: =@! ! ! ! ! ! ! ! ! ! , ; % @   ",
"  @ % ; , ! ! ! ! ! ! o+! -@q+q+p+2@3@4@5@6@7@8@!@9@x+0@z+a@B+b@c@C.X.(+k+H+I+d@H+[@e@f@g@N+h@: P+! ! ! ! ! ! ! ! ! ! , ; % @   ",
"  @ % ; , ! ! ! ! ! ! i@j@-@k@q+-@l@m@n@o@! |+3 4 p@~@q@r@s@t@u@v@w@x@_+j+L+L+y@y@z@A@g+B@C@D@: E@! ! ! ! ! ! ! ! ! ! , ; % @   ",
"  @ % ; , ! ! ! ! ! ! o+! -@q+q+-@F@G@H@F@{ |+R 3 8@!@I@J@K@L@M@N@O@P@:+k+K+$@$@K+<@[@B@<@C@Q@: R@! ! ! ! ! ! ! ! ! ! , ; % @   ",
"  @ % ; , ! ! ! ! .+! S@T@U@V@W@U@U@W@X@Y@! |+R 3 Z@`@ #.#+#@###$#%#&#*#=#-#;#>#>#,#-#'#)#!#~#4 {#! ! ! ! ! ! ! ! ! ! , ; % @   ",
"  @ % ; , ! ! ! ! j@! Y@X@W@U@U@W@]#U@Y@S@! .+^#4 /#(#t@_#@#:#<#[#}#|#1#2#3#4#5#5#4#6#7#8#9#0#( e.! ! ! ! ! ! ! ! ! ! , ; % @   ",
"  @ % ; , ! ! ! ! o+! Q+a#q+-@-@q+a#Q+! o+t 3 b#c#d#e#t@_#f#g#h#i#j#k#l#m#n#o#p#p#o#n#q#r#s#t#( t ! ! ! ! ! ! ! ! ! ! , ; % @   ",
"  @ % ; , ! ! ! ! o+! Q+a#q+-@-@q+k@-@|+i@3 _ c#u#v#w#x#.#$#y#i#z#A#B#C#D#E#F#G#G#F#E#H#I#J#K#4 3 ! ! ! ! ! ! ! ! ! ! , ; % @   ",
"  @ % ; , ! ! ! ! j@! Y@X@V@L#L#V@X@Y@! j@3 _ c#u#v#M#N#O#P#Q#R#S#T#U#V#W#X#Y#Z#Z#Y#X#`#V# $.$: +$! ! ! ! ! ! ! ! ! ! , ; % @   ",
"  @ % ; , ! ! ! ! .+! S@T@U@V@V@U@T@S@! .+t 3 b#c#@$e##$$$%$&$*$=$-$;$>$,$'$)$!$!$)$'$,$~${$]$: ^$! ! ! ! ! ! ! ! ! ! , ; % @   ",
"  @ % ; , ! ! ! ! ! ! j@! /$X@X@/$! j@! ! ! ! ( _ )@: ($u#_$:$<$[$}$|$1$2$3$4$5$6$7$8$9$0$a$b$: c$! ! ! ! ! ! ! ! ! ! , ; % @   ",
"  @ % ; , ! ! ! ! ! ! d$j@S@Y@Y@S@j@d$! ! ! ! t 3 6@^$e$($f$g$h$i$j$j$k$l$m$n$o$p$q$r$s$t$u$v$: }+! ! ! ! ! ! ! ! ! ! , ; % @   ",
"  @ % ; , ! ! ! ! ! ! ! ! ! ! ! ! ! ! ! ! ! ! ! ! ! ! 3 _ w$x$y$z$C@C@!#9#)@A$B$C$D$E$F$G$!#H$_ {#! ! ! ! ! ! ! ! ! ! , ; % @   ",
"  @ % ; , ! ! ! ! ! ! ! ! .+j@j@.+! ! ! ! ! ! ! ! { ! R 3 I$J$K$v$L$M$N$O$P$Q$R$S$T$U$V$W$N$X$( e.! ! ! ! ! ! ! ! ! ! , ; % @   ",
"  @ % ; , ! ! ! ! ! ! ! ! ! ! ! ! ! ! ! ! ! ! ! ! ! ! ! ! ( _ : : : : _ ( ! ! ( _ : : : : _ ( ! ! ! ! ! ! ! ! ! ! ! ! , ; % @   ",
"  @ % ; , ! ! ! ! ! ! ! ! ! ! ! ! ! ! ! ! ! ! ! ! ! ! ! ! t 3 7@}+E@R@{#e.{ { t ( 6@Y$c$}+{#e.! ! ! ! ! ! ! ! ! ! ! ! , ; % @   ",
"  @ % ; , ! ! ! ! ! ! ! ! ! ! ! ! ! ! ! ! ! ! ! ! ! ! ! ! ! ! ! ! ! ! ! ! ! ! ! ! ! ! ! ! ! ! ! ! ! ! ! ! ! ! ! ! ! ! , ; % @   ",
"  @ % ; , ! ! ! ! ! ! ! ! ! ! ! ! ! ! ! ! ! ! ! ! ! ! ! ! ! ! ! ! ! ! ! ! ! ! ! ! ! ! ! ! ! ! ! ! ! ! ! ! ! ! ! ! ! ! , ; % @   ",
"  @ % ; , ! ! ! ! ! ! ! ! ! ! ! ! ! ! ! ! ! ! ! ! ! ! ! ! ! ! ! ! ! ! ! ! ! ! ! ! ! ! ! ! ! ! ! ! ! ! ! ! ! ! ! ! ! ! , ; % @   ",
"  @ % ; , ! ! ! ! ! ! ! ! ! ! ! ! ! ! ! ! ! ! ! ! ! ! ! ! ! ! ! ! ! ! ! ! ! ! ! ! ! ! ! ! ! ! ! ! ! ! ! ! ! ! ! ! ! ! , ; % @   ",
"  @ % ; , ! ! ! ! ! ! ! ! ! ! ! ! ! ! ! ! ! ! ! ! ! ! ! ! ! ! ! ! ! ! ! ! ! ! ! ! ! ! ! ! ! ! ! ! ! ! ! ! ! ! ! ! ! ! , ; % @   ",
"  @ % ; , ! ! ! ! ! ! ! ! ! ! ! ! ! ! ! ! ! ! ! ! ! ! ! ! ! ! ! ! ! ! ! ! ! ! ! ! ! ! ! ! ! ! ! ! ! ! ! ! ! ! ! ! ! ! , ; % @   ",
"  @ & Z$`$) ~ ! ! ! ! ! ! ! ! ! ! ! ! ! ! ! ! ! ! ! ! ! ! ! ! ! ! ! ! ! ! ! ! ! ! ! ! ! ! ! ! ! ! ! ! ! ! ! ! ! ! ! ! , ; & #   ",
"   %% .%Z$' ) ! ! ! ! ! ! ! ! ! ! ! ! ! ! ! ! ! ! ! ! ! ! ! ! ! ! ! ! ! ! ! ! ! ! ! ! ! ! ! ! ! ! ! ! ! ! ! ! ! ! ! ! , ; % @   ",
"  + $ +%@%Z$#%) ~ ! ! ! ! ! ! ! ! ! ! ! ! ! ! ! ! ! ! ! ! ! ! ! ! ! ! ! ! ! ! ! ! ! ! ! ! ! ! ! ! ! ! ! ! ! ! ! ! ~ ) > - $ +   ",
"  . + $%%%.%Z$' ) ! ! ! ! ! ! ! ! ! ! ! ! ! ! ! ! ! ! ! ! ! ! ! ! ! ! ! ! ! ! ! ! ! ! ! ! ! ! ! ! ! ! ! ! ! ! ! ! ) ' - = + .   ",
"      + $ %%@%Z$`$, , , , , , , , , , , , , , , , , , , , , , , , , , , , , , , , , , , , , , , , , , , , , , , , > - $ +       ",
"      &%+ $%+%.%Z$; ; ; ; ; ; ; ; ; ; ; ; ; ; ; ; ; ; ; ; ; ; ; ; ; ; ; ; ; ; ; ; ; ; ; ; ; ; ; ; ; ; ; ; ; ; ; ; - = + *       ",
"          + $ % & % % % % % % % % % % % % % % % % % % % % % % % % % % % % % % % % % % % % % % % % % % % % % % & % $ +           ",
"          . +  %@ @ @ @ @ @ @ @ @ @ @ @ @ @ @ @ @ @ @ @ @ @ @ @ @ @ @ @ @ @ @ @ @ @ @ @ @ @ @ @ @ @ @ @ @ @ @ # @ + .           ",
"                                                                                                                                "};
