/* XPM */
static char * idle_2_xpm[] = {
"64 64 584 2",
"  	c #40264D",
". 	c #432950",
"+ 	c #492E56",
"@ 	c #4C3059",
"# 	c #4C3159",
"$ 	c #563965",
"% 	c #5C3F6B",
"& 	c #5C3F6C",
"* 	c #432850",
"= 	c #523660",
"- 	c #5C3E6B",
"; 	c #614271",
"> 	c #5B3C6B",
", 	c #5A3B6B",
"' 	c #5E3F6E",
") 	c #593A6A",
"! 	c #563767",
"~ 	c #573868",
"{ 	c #533664",
"] 	c #4D335E",
"^ 	c #49315A",
"/ 	c #4F335E",
"( 	c #412C4A",
"_ 	c #412D4A",
": 	c #4F345E",
"< 	c #37283B",
"[ 	c #593250",
"} 	c #6A3239",
"| 	c #69313A",
"1 	c #573150",
"2 	c #5A3752",
"3 	c #71403F",
"4 	c #7C4530",
"5 	c #7B4530",
"6 	c #7B4430",
"7 	c #7C452F",
"8 	c #71403E",
"9 	c #523565",
"0 	c #9A3E34",
"a 	c #993E35",
"b 	c #A95C43",
"c 	c #C06845",
"d 	c #C16845",
"e 	c #AA5C42",
"f 	c #543664",
"g 	c #573768",
"h 	c #693139",
"i 	c #9B3E35",
"j 	c #A24432",
"k 	c #8C4531",
"l 	c #9A5238",
"m 	c #C36544",
"n 	c #D66D4A",
"o 	c #D76D4A",
"p 	c #D7704B",
"q 	c #DA744E",
"r 	c #DB764F",
"s 	c #DC774F",
"t 	c #C86C48",
"u 	c #9C553A",
"v 	c #72413E",
"w 	c #B05D3E",
"x 	c #C46544",
"y 	c #CB5F42",
"z 	c #CE5B40",
"A 	c #CD5A40",
"B 	c #D16344",
"C 	c #D8704C",
"D 	c #D6734D",
"E 	c #4D3450",
"F 	c #4E363B",
"G 	c #4D3351",
"H 	c #543665",
"I 	c #79412E",
"J 	c #BC6041",
"K 	c #D26646",
"L 	c #CC573E",
"M 	c #C74D39",
"N 	c #CB573E",
"O 	c #D76E4A",
"P 	c #78402E",
"Q 	c #694838",
"R 	c #563768",
"S 	c #49315B",
"T 	c #34283C",
"U 	c #733729",
"V 	c #B45038",
"W 	c #CA513B",
"X 	c #C74C39",
"Y 	c #C8503B",
"Z 	c #CC5A40",
"` 	c #743728",
" .	c #462F54",
"..	c #3E2B45",
"+.	c #4E363C",
"@.	c #694839",
"#.	c #6C4B35",
"$.	c #5B3F2E",
"%.	c #50345F",
"&.	c #4A325B",
"*.	c #38283C",
"=.	c #6D2E25",
"-.	c #A93F2F",
";.	c #C24836",
">.	c #C64C38",
",.	c #C54B38",
"'.	c #C24736",
").	c #C04534",
"!.	c #C84E39",
"~.	c #AF4532",
"{.	c #703126",
"].	c #4A325A",
"^.	c #473053",
"/.	c #4E373B",
"(.	c #5B402E",
"_.	c #6D4B34",
":.	c #412D4B",
"<.	c #652822",
"[.	c #9D3329",
"}.	c #B93F31",
"|.	c #C34837",
"1.	c #B4392E",
"2.	c #B3392E",
"3.	c #B93E31",
"4.	c #C84D39",
"5.	c #AE4432",
"6.	c #533564",
"7.	c #4E315D",
"8.	c #4C324F",
"9.	c #4E363A",
"0.	c #4B3351",
"a.	c #4D363B",
"b.	c #5F4230",
"c.	c #765037",
"d.	c #714C35",
"e.	c #4C3528",
"f.	c #342736",
"g.	c #442E50",
"h.	c #412D4F",
"i.	c #2E2234",
"j.	c #5E1E1D",
"k.	c #962723",
"l.	c #B3372D",
"m.	c #C14635",
"n.	c #C64B38",
"o.	c #BD4A39",
"p.	c #B8523F",
"q.	c #B55543",
"r.	c #B55643",
"s.	c #6D2E24",
"t.	c #68483A",
"u.	c #765038",
"v.	c #784E36",
"w.	c #6A442F",
"x.	c #473124",
"y.	c #2B2327",
"z.	c #322635",
"A.	c #302635",
"B.	c #2B2328",
"C.	c #612521",
"D.	c #972C27",
"E.	c #C14736",
"F.	c #B93F32",
"G.	c #B85340",
"H.	c #C07257",
"I.	c #C57F61",
"J.	c #C58061",
"K.	c #C17257",
"L.	c #B3382E",
"M.	c #B4392F",
"N.	c #9E3429",
"O.	c #662922",
"P.	c #563667",
"Q.	c #584364",
"R.	c #5D555D",
"S.	c #665A52",
"T.	c #705442",
"U.	c #5B3F2D",
"V.	c #7E533A",
"W.	c #784B34",
"X.	c #663F2C",
"Y.	c #442D23",
"Z.	c #221F1C",
"`.	c #24201D",
" +	c #4E4031",
".+	c #796048",
"++	c #9A6E53",
"@+	c #B56F54",
"#+	c #C1664E",
"$+	c #C1543F",
"%+	c #B85240",
"&+	c #BF6F55",
"*+	c #CF906D",
"=+	c #D79F77",
"-+	c #D89F78",
";+	c #BE6E54",
">+	c #B65643",
",+	c #B65542",
"'+	c #AF4F3D",
")+	c #A03B30",
"!+	c #862B2C",
"~+	c #5C2837",
"{+	c #4E345E",
"]+	c #553567",
"^+	c #6B5A73",
"/+	c #868083",
"(+	c #85807B",
"_+	c #675B53",
":+	c #6C4A33",
"<+	c #744831",
"[+	c #653E2C",
"}+	c #442E23",
"|+	c #1D1B19",
"1+	c #24201B",
"2+	c #765F47",
"3+	c #B9946F",
"4+	c #D7A97F",
"5+	c #DEAA7F",
"6+	c #D69670",
"7+	c #C07156",
"8+	c #E0AA80",
"9+	c #E8B688",
"0+	c #E8B689",
"a+	c #DFAA7F",
"b+	c #C68061",
"c+	c #C47F60",
"d+	c #B27055",
"e+	c #854A3A",
"f+	c #5C2937",
"g+	c #512D50",
"h+	c #553466",
"i+	c #74647A",
"j+	c #979193",
"k+	c #94908D",
"l+	c #666063",
"m+	c #674636",
"n+	c #6A442E",
"o+	c #663F2B",
"p+	c #653E2A",
"q+	c #5E3B29",
"r+	c #4F3325",
"s+	c #3A271F",
"t+	c #2F241E",
"u+	c #765E47",
"v+	c #DCB084",
"w+	c #EABC8D",
"x+	c #E1A97F",
"y+	c #C16F55",
"z+	c #B55542",
"A+	c #C47E60",
"B+	c #E9BC8E",
"C+	c #DBB68C",
"D+	c #DBB58C",
"E+	c #EAB88A",
"F+	c #DEA87E",
"G+	c #CF9A76",
"H+	c #BE9071",
"I+	c #9E7A61",
"J+	c #654E3F",
"K+	c #4A305A",
"L+	c #74657A",
"M+	c #989294",
"N+	c #969292",
"O+	c #6F6372",
"P+	c #4C3439",
"Q+	c #4F3326",
"R+	c #5E3B2A",
"S+	c #593828",
"T+	c #3F2B22",
"U+	c #4C3D30",
"V+	c #786048",
"W+	c #AD8B68",
"X+	c #C27156",
"Y+	c #C57F60",
"Z+	c #AFA183",
"`+	c #EFBE8E",
" @	c #EBB98B",
".@	c #D3AB84",
"+@	c #A1927A",
"@@	c #6D7365",
"#@	c #444A42",
"$@	c #35283C",
"%@	c #4C315A",
"&@	c #736479",
"*@	c #533C60",
"=@	c #4C414F",
"-@	c #454143",
";@	c #3C323E",
">@	c #37283C",
",@	c #472F38",
"'@	c #5C3A30",
")@	c #503325",
"!@	c #2E241E",
"~@	c #766048",
"{@	c #B8946E",
"]@	c #CB9872",
"^@	c #BF7559",
"/@	c #BC6951",
"(@	c #C78364",
"_@	c #E8B588",
":@	c #DBB58B",
"<@	c #AFA083",
"[@	c #AEA083",
"}@	c #F1C190",
"|@	c #DCB68C",
"1@	c #7C806E",
"2@	c #4F5246",
"3@	c #4B305A",
"4@	c #5E4B69",
"5@	c #68626B",
"6@	c #676268",
"7@	c #574860",
"8@	c #4C325B",
"9@	c #4A3150",
"0@	c #503326",
"a@	c #583727",
"b@	c #493C2F",
"c@	c #9A7155",
"d@	c #B87B5D",
"e@	c #CB8C6A",
"f@	c #F0C090",
"g@	c #F1C090",
"h@	c #EABD8F",
"i@	c #B99C79",
"j@	c #76634D",
"k@	c #492E59",
"l@	c #543466",
"m@	c #553566",
"n@	c #979293",
"o@	c #675670",
"p@	c #7F797F",
"q@	c #807A7F",
"r@	c #685771",
"s@	c #482F39",
"t@	c #603A2B",
"u@	c #543229",
"v@	c #522F2C",
"w@	c #5F3633",
"x@	c #835345",
"y@	c #AC745B",
"z@	c #C28566",
"A@	c #CA8D6B",
"B@	c #E9B689",
"C@	c #F0C08F",
"D@	c #EEBD8D",
"E@	c #ECB98B",
"F@	c #D4A97E",
"G@	c #876C51",
"H@	c #482D59",
"I@	c #706077",
"J@	c #8F898C",
"K@	c #908A8D",
"L@	c #55322A",
"M@	c #6B3A34",
"N@	c #7F4340",
"O@	c #8F4D4A",
"P@	c #98554F",
"Q@	c #9B5D4F",
"R@	c #AA6E58",
"S@	c #C28666",
"T@	c #D79E77",
"U@	c #DFA97F",
"V@	c #886C51",
"W@	c #482E59",
"X@	c #5E456C",
"Y@	c #6C5A75",
"Z@	c #7E7281",
"`@	c #8F878D",
" #	c #8E878D",
".#	c #8A8189",
"+#	c #6C5B75",
"@#	c #432E4F",
"##	c #332635",
"$#	c #54302D",
"%#	c #804440",
"&#	c #94514B",
"*#	c #99584E",
"=#	c #92574A",
"-#	c #825240",
";#	c #8B6145",
">#	c #A87B58",
",#	c #BD9168",
"'#	c #CCA377",
")#	c #DBB488",
"!#	c #E9C39A",
"~#	c #F0CBA3",
"{#	c #EFCAA3",
"]#	c #E2BB94",
"^#	c #C69975",
"/#	c #BE8E68",
"(#	c #CB9F76",
"_#	c #BA9471",
":#	c #7C6154",
"<#	c #4C305D",
"[#	c #8F888D",
"}#	c #50345E",
"|#	c #302535",
"1#	c #2A2227",
"2#	c #914F4B",
"3#	c #7F563F",
"4#	c #665731",
"5#	c #5C5C2C",
"6#	c #626430",
"7#	c #736F3A",
"8#	c #7E7441",
"9#	c #88794B",
"0#	c #AC9C79",
"a#	c #DAC8AA",
"b#	c #EFDCC0",
"c#	c #EFDCBF",
"d#	c #D7C5A9",
"e#	c #A29072",
"f#	c #7D6741",
"g#	c #816849",
"h#	c #7B6053",
"i#	c #604758",
"j#	c #989293",
"k#	c #4A3050",
"l#	c #452B38",
"m#	c #392522",
"n#	c #2F231E",
"o#	c #92584B",
"p#	c #675831",
"q#	c #3E5B1A",
"r#	c #3E631C",
"s#	c #40671E",
"t#	c #41671F",
"u#	c #4C682D",
"v#	c #647049",
"w#	c #9D9C81",
"x#	c #D6CFB7",
"y#	c #EFE6CE",
"z#	c #616848",
"A#	c #414D2D",
"B#	c #383B35",
"C#	c #46344F",
"D#	c #562F31",
"E#	c #532D29",
"F#	c #3C2622",
"G#	c #55302D",
"H#	c #5E5D2D",
"I#	c #3E661D",
"J#	c #3D661B",
"K#	c #3E671D",
"L#	c #607546",
"M#	c #8B8F70",
"N#	c #B6B299",
"O#	c #DCD5BD",
"P#	c #EEE5CD",
"Q#	c #8B8E70",
"R#	c #5C6D45",
"S#	c #354F25",
"T#	c #353834",
"U#	c #3B2620",
"V#	c #4B2B27",
"W#	c #703A36",
"X#	c #734D37",
"Y#	c #585F2A",
"Z#	c #3F651D",
"`#	c #3B6219",
" $	c #385F14",
".$	c #3A6018",
"+$	c #627146",
"@$	c #8F8D71",
"#$	c #B0A790",
"$$	c #C9BEA8",
"%$	c #D4C9B3",
"&$	c #355517",
"*$	c #293818",
"=$	c #4D315B",
"-$	c #3B2622",
";$	c #452826",
">$	c #653431",
",$	c #684931",
"'$	c #525E27",
")$	c #40631D",
"!$	c #3E5C19",
"~$	c #3C5716",
"{$	c #3D5717",
"]$	c #535B2F",
"^$	c #70644A",
"/$	c #84705D",
"($	c #907D6B",
"_$	c #968472",
":$	c #535C2F",
"<$	c #384D16",
"[$	c #2B3519",
"}$	c #4D325A",
"|$	c #442A38",
"1$	c #574229",
"2$	c #4A5821",
"3$	c #5C6A30",
"4$	c #7F7647",
"5$	c #8E7D51",
"6$	c #8E7C51",
"7$	c #836F47",
"8$	c #6D4F31",
"9$	c #5D341E",
"0$	c #5B311C",
"a$	c #6E5032",
"b$	c #7C6D46",
"c$	c #534830",
"d$	c #4B315A",
"e$	c #4A2F50",
"f$	c #3B361E",
"g$	c #3E4E1A",
"h$	c #7D7546",
"i$	c #BB9B6E",
"j$	c #D4AC7E",
"k$	c #D5AC7E",
"l$	c #BE986E",
"m$	c #896546",
"n$	c #5A2E17",
"o$	c #51210B",
"p$	c #50200B",
"q$	c #8B6747",
"r$	c #BA966E",
"s$	c #796248",
"t$	c #492F5A",
"u$	c #6D5B75",
"v$	c #322F33",
"w$	c #364022",
"x$	c #7B6C45",
"y$	c #BA976E",
"z$	c #D5A97F",
"A$	c #D6AA7F",
"B$	c #BF966F",
"C$	c #866447",
"D$	c #502D1B",
"E$	c #472214",
"F$	c #472317",
"G$	c #482318",
"H$	c #4C2517",
"I$	c #59311D",
"J$	c #8B6648",
"K$	c #BD956E",
"L$	c #7C6254",
"M$	c #5F466C",
"N$	c #44314F",
"O$	c #373234",
"P$	c #524730",
"Q$	c #8E6F53",
"R$	c #967153",
"S$	c #886549",
"T$	c #604532",
"U$	c #39261D",
"V$	c #34211B",
"W$	c #34221B",
"X$	c #41261B",
"Y$	c #55311D",
"Z$	c #6C4932",
"`$	c #806249",
" %	c #7D6254",
".%	c #624859",
"+%	c #2A2325",
"@%	c #36261B",
"#%	c #4A2D1B",
"$%	c #4D2E27",
"%%	c #402B35",
"&%	c #2B2326",
"*%	c #4D2E26",
"=%	c #432D4F",
"-%	c #2D2133",
";%	c #231B17",
">%	c #2F1F17",
",%	c #3C2634",
"'%	c #472E4F",
")%	c #4D325B",
"!%	c #452E50",
"~%	c #2C231C",
"{%	c #36261C",
"]%	c #3E2935",
"^%	c #452C4F",
"/%	c #4C325A",
"(%	c #624372",
"_%	c #5D3E6E",
":%	c #4B3059",
"<%	c #634473",
"[%	c #5F416E",
"}%	c #624472",
"|%	c #5D3E6D",
"1%	c #533761",
"2%	c #5F406E",
"3%	c #422850",
"                                                                                                                                ",
"          . + @ # @ @ @ @ @ @ @ @ @ @ @ @ @ @ @ @ @ @ @ @ @ @ @ @ @ @ @ @ @ @ @ @ @ @ @ @ @ @ @ @ @ @ @ @ @ @ # @ + .           ",
"          + $ % & % % % % % % % % % % % % % % % % % % % % % % % % % % % % % % % % % % % % % % % % % % % % % % & % $ +           ",
"      * + = - ; ; ; ; ; ; ; ; ; ; ; ; ; ; ; ; ; ; ; ; ; ; ; ; ; ; ; ; ; ; ; ; ; ; ; ; ; ; ; ; ; ; ; ; ; ; ; ; ; ; - = + *       ",
"      + $ - > , , , , , , , , , , , , , , , , , , , , , , , , , , , , , , , , , , , , , , , , , , , , , , , , , , > - $ +       ",
"  . + = - ' ) ! ! ! ! ! ! ! ! ! ! ! ! ! ! ! ! ! ! ! ! ! ! ! ! ! ! ! ! ! ! ! ! ! ! ! ! ! ! ! ! ! ! ! ! ! ! ! ! ! ! ) ' - = + .   ",
"  + $ - > ) ~ ! ! ! ! ! ! ! ! ! ! ! ! ! ! ! ! ! ! ! ! ! ! ! ! ! ! ! ! ! ! ! ! ! ! ! ! ! ! ! ! ! ! ! ! ! ! ! ! ! ! ~ ) > - $ +   ",
"  @ % ; , ! ! ! ! ! ! ! ! ! ! ! ! ! ! ! ! ! ! ! ! ! ! ! ! ! ! ! ! ! ! ! ! ! ! ! ! ! ! ! ! ! ! ! ! ! ! ! ! ! ! ! ! ! ! , ; % @   ",
"  # & ; , ! ! ! ! ! ! ! ! ! ! ! ! ! ! ! ! ! ! ! ! ! ! ! ! ! ! ! ! ! ! ! ! ! ! ! ! ! ! ! ! ! ! ! ! ! ! ! ! ! ! ! ! ! ! , ; & #   ",
"  @ % ; , ! ! ! ! ! ! ! ! ! ! ! ! ! ! ! ! ! ! ! ! ! ! ! ! ! ! ! ! ! ! ! ! ! ! ! ! ! ! ! ! ! ! ! ! ! ! ! ! ! ! ! ! ! ! , ; % @   ",
"  @ % ; , ! ! ! ! ! ! ! ! ! ! ! ! ! ! ! ! ! ! ! ! ! ! ! ! ! ! ! ! ! ! ! ! ! ! ! ! ! ! ! ! ! ! ! ! ! ! ! ! ! ! ! ! ! ! , ; % @   ",
"  @ % ; , ! ! ! ! ! ! ! ! ! ! ! ! ! ! ! ! ! ! ! ! ! ! ! ! ! ! ! ! ! ! ! ! ! ! ! ! ! ! ! ! ! ! ! ! ! ! ! ! ! ! ! ! ! ! , ; % @   ",
"  @ % ; , ! ! ! ! ! ! ! ! ! ! ! ! ! ! ! ! ! ! ! ! ! ! ! ! ! ! ! ! ! ! ! ! ! ! ! ! ! ! ! ! ! ! ! ! ! ! ! ! ! ! ! ! ! ! , ; % @   ",
"  @ % ; , ! ! ! ! ! ! ! ! ! ! ! ! ! ! ! ! ! ! ! ! ! ! ! ! ! ! ! ! ! ! ! ! ! ! ! ! ! ! ! ! ! ! ! ! ! ! ! ! ! ! ! ! ! ! , ; % @   ",
"  @ % ; , ! ! ! ! ! ! ! ! ! ! ! ! ! ! ! ! ! ! ! ! ! ! ! ! ! ! ! ! ! ! ! ! ! ! ! ! ! ! ! ! ! ! ! ! ! ! ! ! ! ! ! ! ! ! , ; % @   ",
"  @ % ; , ! ! ! ! ! ! ! ! ! ! ! ! ! ! ! ! ! ! ! ! ! ! { ] ] { { ] ^ ^ ^ ^ ^ ^ ^ ^ ^ ^ ^ ^ ] { ! ! ! ! ! ! ! ! ! ! ! ! , ; % @   ",
"  @ % ; , ! ! ! ! ! ! ! ! ! ! ! ! ! ! ! ! ! ! ! ! ! ! / ( _ / : _ < < < < < < < < < < < < ( : ! ! ! ! ! ! ! ! ! ! ! ! , ; % @   ",
"  @ % ; , ! ! ! ! ! ! ! ! ! ! ! ! ! ! ! ! ! ! ! ! { / [ } | 1 2 3 4 4 4 4 4 4 4 5 6 6 7 6 8 2 ] 9 ! ! ! ! ! ! ! ! ! ! , ; % @   ",
"  @ % ; , ! ! ! ! ! ! ! ! ! ! ! ! ! ! ! ! ! ! ! ! ] ( } 0 a } 8 b c d c c c c c c c c d c e 8 ( ] ! ! ! ! ! ! ! ! ! ! , ; % @   ",
"  @ % ; , ! ! ! ! ! ! ! ! ! ! ! ! ! ! f / / f g ! ] ( h i j k l m n o n n n n p q r r s r t u v 2 : { ! ! ! ! ! ! ! ! , ; % @   ",
"  @ % ; , ! ! ! ! ! ! ! ! ! ! ! ! ! ! / ( ( / ! ! { / 1 } k w x y z z z z A z B C s s s s D t e 8 ( ] ! ! ! ! ! ! ! ! , ; % @   ",
"  @ % ; , ! ! ! ! ! ! ! ! ! ! ! ! f / E F F G / H g ! ^ < I J K L M M M M M M N K n n n n O n J P < ^ ! ! ! ! ! ! ! ! , ; % @   ",
"  @ % ; , ! ! ! ! ! ! ! ! ! ! ! ! / ( F Q Q F ( / R g S T U V L W X X X X X X Y N Z A Z Z z A V ` < ^ ! ! ! ! ! ! ! ! , ; % @   ",
"  @ % ; , ! ! ! ! ! ! ! ! ! ! f /  ...+.@.#.$.F G %.H &.*.=.-.;.>.M M ,.'.).).).).'.,.M M !.M ~.{.< ].! ! ! ! ! ! ! ! , ; % @   ",
"  @ % ; , ! ! ! ! ! ! ! ! ! ! / ( ..^.G /.(._.Q F :./ ].*.<.[.}.|.M M ;.}.1.2.2.2.3.;.X M 4.X 5.{.< ].! ! ! ! ! ! ! ! , ; % @   ",
"  @ % ; , ! ! ! ! ! ! ! ! 6.7.8.9.+.G 0.a.b.c.d.e.f.g.h.i.j.k.l.m.n.;.o.p.q.r.r.q.p.o.).).m.m.-.s.< ].! ! ! ! ! ! ! ! , ; % @   ",
"  @ % ; , ! ! ! ! ! ! ! ! / ( F Q @./.a.t.u.v.w.x.y.z.A.B.C.D.1.E.'.F.G.H.I.J.J.I.K.G.1.L.M.1.N.O.< ].! ! ! ! ! ! ! ! , ; % @   ",
"  @ % ; , ! ! ! ! ! ! P.! Q.R.S.T.#.U.b.u.V.W.X.Y.Z.`. +.+++@+#+$+o.%+&+*+=+-+-+=+*+;+>+,+'+)+!+~+( {+! ! ! ! ! ! ! ! , ; % @   ",
"  @ % ; , ! ! ! ! ! ! ]+! ^+/+(+_+$.:+c.v.W.<+[+}+|+1+2+3+4+5+6+#+p.7+*+8+9+0+0+9+a+*+b+c+d+e+f+g+: f ! ! ! ! ! ! ! ! , ; % @   ",
"  @ % ; , ! ! ! ! ! ! h+! i+j+k+l+a.m+d.n+o+p+q+r+s+t+u+3+v+w+x+y+z+A+=+9+B+C+D+B+E+F+G+H+I+J+< K+! ! ! ! ! ! ! ! ! ! , ; % @   ",
"  @ % ; , ! ! ! ! ! ! h+! L+M+N+O+G P+e.x.Y.}+Q+R+S+T+U+V+W+v+x+X+r.Y+-+0+C+Z+Z+C+`+ @.@+@@@#@$@%@! R ! ! ! ! ! ! ! ! , ; % @   ",
"  @ % ; , ! ! ! ! ! ! h+! &@j+j+&@*@=@-@;@>@< ,@'@q+)@s+!@~@{@]@^@/@(@-+_@:@<@[@:@}@}@|@[@1@2@< 3@! ! ! ! ! ! ! ! ! ! , ; % @   ",
"  @ % ; , ! ! ! ! ! ! h+! &@j+j+i+4@5@6@7@8@%@9@,@0@q+a@s+b@u+c@d@(@e@=+_@B+C+:@B+f@g@h@C+i@j@< k@! ! ! ! ! ! ! ! ! ! , ; % @   ",
"  @ % ; , ! ! ! ! ! ! l@m@&@n@j+&@o@p@q@r@! ]+/ _ s@'@t@u@v@w@x@y@z@A@-+B@g@g@C@C@D@E+E@`+F@G@< H@! ! ! ! ! ! ! ! ! ! , ; % @   ",
"  @ % ; , ! ! ! ! ! ! h+! &@j+j+&@I@J@K@I@R ]+H / 9@,@L@M@N@O@P@Q@R@S@T@_@f@}@}@f@E+F+U@E+F@V@< W@! ! ! ! ! ! ! ! ! ! , ; % @   ",
"  @ % ; , ! ! ! ! P.! X@Y@Z@`@ #Z@Z@ #.#+#! ]+H / @###$#%#&#*#=#-#;#>#,#'#)#!#~#{#]#^#/#(#_#:#_ <#! ! ! ! ! ! ! ! ! ! , ; % @   ",
"  @ % ; , ! ! ! ! m@! +#.# #Z@Z@ #[#Z@+#X@! P.}#_ |#1#w@2#*#3#4#5#6#7#8#9#0#a#b#c#d#e#f#g#h#i#: 6.! ! ! ! ! ! ! ! ! ! , ; % @   ",
"  @ % ; , ! ! ! ! h+! L+j#j+&@&@j+j#L+! h+f / k#l#m#n#w@2#o#p#q#r#s#t#u#v#w#x#y#y#x#w#z#A#B#C#: f ! ! ! ! ! ! ! ! ! ! , ; % @   ",
"  @ % ; , ! ! ! ! h+! L+j#j+&@&@j+n@&@]+l@/ ( l#D#E#F#G#%#-#H#r#I#J#K#L#M#N#O#P#P#O#N#Q#R#S#T#_ / ! ! ! ! ! ! ! ! ! ! , ; % @   ",
"  @ % ; , ! ! ! ! m@! +#.# #Z@Z@ #.#+#! m@/ ( l#D#E#U#V#W#X#Y#Z#`# $.$+$@$#$$$%$%$$$#$@$+$&$*$< =$! ! ! ! ! ! ! ! ! ! , ; % @   ",
"  @ % ; , ! ! ! ! P.! X@Y@Z@`@`@Z@Y@X@! P.f / k#l#-$n#;$>$,$'$)$!$~${$]$^$/$($_$_$($/$^$:$<$[$< }$! ! ! ! ! ! ! ! ! ! , ; % @   ",
"  @ % ; , ! ! ! ! ! ! h+! L+j#j#L+! h+! ! ! ! : ( >@< |$D#1$2$3$4$5$6$7$8$9$0$0$0$0$9$a$7$b$c$< d$! ! ! ! ! ! ! ! ! ! , ; % @   ",
"  @ % ; , ! ! ! ! ! ! l@m@&@n@n@&@m@l@! ! ! ! f / 8@}$e$|$f$g$h$i$j$k$l$m$n$o$p$p$o$n$q$l$r$s$< t$! ! ! ! ! ! ! ! ! ! , ; % @   ",
"  @ % ; , ! ! ! ! ! ! m@! u$.#.#u$! m@! ! ! ! ! ! ! ! / ( v$w$x$y$z$A$B$C$D$E$F$G$H$I$J$K$_#L$( <#! ! ! ! ! ! ! ! ! ! , ; % @   ",
"  @ % ; , ! ! ! ! ! ! P.! M$Y@Y@M$! P.! ! ! ! ! ! R ! H / N$O$P$s$Q$R$S$T$U$V$V$W$X$Y$Z$`$ %.%: 6.! ! ! ! ! ! ! ! ! ! , ; % @   ",
"  @ % ; , ! ! ! ! ! ! ! ! ! ! ! ! ! ! ! ! ! ! ! ! ! ! ! ! : ( ##+%@%#%$%%%>@>@##&%@%#%*%%%( / ! ! ! ! ! ! ! ! ! ! ! ! , ; % @   ",
"  @ % ; , ! ! ! ! ! ! ! ! P.m@m@P.! ! ! ! ! ! ! ! ! ! ! ! H / =%-%;%>%,%'%)%)%!%##~%{%]%^%<#6.! ! ! ! ! ! ! ! ! ! ! ! , ; % @   ",
"  @ % ; , ! ! ! ! ! ! ! ! ! ! ! ! ! ! ! ! ! ! ! ! ! ! ! ! ! ! : ( < < ( : ! ! : ( < < ( : ! ! ! ! ! ! ! ! ! ! ! ! ! ! , ; % @   ",
"  @ % ; , ! ! ! ! ! ! ! ! ! ! ! ! ! ! ! ! ! ! ! ! ! ! ! ! ! ! f : }$/%/ f R R f : }$/%/ f ! ! ! ! ! ! ! ! ! ! ! ! ! ! , ; % @   ",
"  @ % ; , ! ! ! ! ! ! ! ! ! ! ! ! ! ! ! ! ! ! ! ! ! ! ! ! ! ! ! ! ! ! ! ! ! ! ! ! ! ! ! ! ! ! ! ! ! ! ! ! ! ! ! ! ! ! , ; % @   ",
"  @ % ; , ! ! ! ! ! ! ! ! ! ! ! ! ! ! ! ! ! ! ! ! ! ! ! ! ! ! ! ! ! ! ! ! ! ! ! ! ! ! ! ! ! ! ! ! ! ! ! ! ! ! ! ! ! ! , ; % @   ",
"  @ % ; , ! ! ! ! ! ! ! ! ! ! ! ! ! ! ! ! ! ! ! ! ! ! ! ! ! ! ! ! ! ! ! ! ! ! ! ! ! ! ! ! ! ! ! ! ! ! ! ! ! ! ! ! ! ! , ; % @   ",
"  @ % ; , ! ! ! ! ! ! ! ! ! ! ! ! ! ! ! ! ! ! ! ! ! ! ! ! ! ! ! ! ! ! ! ! ! ! ! ! ! ! ! ! ! ! ! ! ! ! ! ! ! ! ! ! ! ! , ; % @   ",
"  @ % ; , ! ! ! ! ! ! ! ! ! ! ! ! ! ! ! ! ! ! ! ! ! ! ! ! ! ! ! ! ! ! ! ! ! ! ! ! ! ! ! ! ! ! ! ! ! ! ! ! ! ! ! ! ! ! , ; % @   ",
"  @ % ; , ! ! ! ! ! ! ! ! ! ! ! ! ! ! ! ! ! ! ! ! ! ! ! ! ! ! ! ! ! ! ! ! ! ! ! ! ! ! ! ! ! ! ! ! ! ! ! ! ! ! ! ! ! ! , ; % @   ",
"  @ & (%_%) ~ ! ! ! ! ! ! ! ! ! ! ! ! ! ! ! ! ! ! ! ! ! ! ! ! ! ! ! ! ! ! ! ! ! ! ! ! ! ! ! ! ! ! ! ! ! ! ! ! ! ! ! ! , ; & #   ",
"  :%% <%(%' ) ! ! ! ! ! ! ! ! ! ! ! ! ! ! ! ! ! ! ! ! ! ! ! ! ! ! ! ! ! ! ! ! ! ! ! ! ! ! ! ! ! ! ! ! ! ! ! ! ! ! ! ! , ; % @   ",
"  + $ [%}%(%|%) ~ ! ! ! ! ! ! ! ! ! ! ! ! ! ! ! ! ! ! ! ! ! ! ! ! ! ! ! ! ! ! ! ! ! ! ! ! ! ! ! ! ! ! ! ! ! ! ! ! ~ ) > - $ +   ",
"  . + 1%2%<%(%' ) ! ! ! ! ! ! ! ! ! ! ! ! ! ! ! ! ! ! ! ! ! ! ! ! ! ! ! ! ! ! ! ! ! ! ! ! ! ! ! ! ! ! ! ! ! ! ! ! ) ' - = + .   ",
"      + $ 2%}%(%_%, , , , , , , , , , , , , , , , , , , , , , , , , , , , , , , , , , , , , , , , , , , , , , , , > - $ +       ",
"      3%+ 1%[%<%(%; ; ; ; ; ; ; ; ; ; ; ; ; ; ; ; ; ; ; ; ; ; ; ; ; ; ; ; ; ; ; ; ; ; ; ; ; ; ; ; ; ; ; ; ; ; ; ; - = + *       ",
"          + $ % & % % % % % % % % % % % % % % % % % % % % % % % % % % % % % % % % % % % % % % % % % % % % % % & % $ +           ",
"          . + :%@ @ @ @ @ @ @ @ @ @ @ @ @ @ @ @ @ @ @ @ @ @ @ @ @ @ @ @ @ @ @ @ @ @ @ @ @ @ @ @ @ @ @ @ @ @ @ # @ + .           ",
"                                                                                                                                "};
