/* XPM */
static char * idle_1_xpm[] = {
"64 64 612 2",
"  	c #40264D",
". 	c #432950",
"+ 	c #492E56",
"@ 	c #4C3059",
"# 	c #4C3159",
"$ 	c #563965",
"% 	c #5C3F6B",
"& 	c #5C3F6C",
"* 	c #432850",
"= 	c #523660",
"- 	c #5C3E6B",
"; 	c #614271",
"> 	c #5B3C6B",
", 	c #5A3B6B",
"' 	c #5E3F6E",
") 	c #593A6A",
"! 	c #563767",
"~ 	c #573868",
"{ 	c #533664",
"] 	c #4D335E",
"^ 	c #49315A",
"/ 	c #4F335E",
"( 	c #412C4A",
"_ 	c #412D4A",
": 	c #4F345E",
"< 	c #37283B",
"[ 	c #593250",
"} 	c #6A3239",
"| 	c #69313A",
"1 	c #573150",
"2 	c #5A3752",
"3 	c #71403F",
"4 	c #7C4530",
"5 	c #7B4530",
"6 	c #7B4430",
"7 	c #7C452F",
"8 	c #71403E",
"9 	c #523565",
"0 	c #9A3E34",
"a 	c #993E35",
"b 	c #A95C43",
"c 	c #C06845",
"d 	c #C16845",
"e 	c #AA5C42",
"f 	c #693139",
"g 	c #9B3E35",
"h 	c #A24432",
"i 	c #8C4531",
"j 	c #9A5238",
"k 	c #C36544",
"l 	c #D66D4A",
"m 	c #D76D4A",
"n 	c #D7704B",
"o 	c #DA744E",
"p 	c #DB764F",
"q 	c #DC774F",
"r 	c #C86C48",
"s 	c #9C553A",
"t 	c #B05D3E",
"u 	c #C46544",
"v 	c #CB5F42",
"w 	c #CE5B40",
"x 	c #CD5A40",
"y 	c #D16344",
"z 	c #D8704C",
"A 	c #D6734D",
"B 	c #543664",
"C 	c #79412E",
"D 	c #BC6041",
"E 	c #D26646",
"F 	c #CC573E",
"G 	c #C74D39",
"H 	c #CB573E",
"I 	c #563768",
"J 	c #49315B",
"K 	c #34283C",
"L 	c #733729",
"M 	c #B45038",
"N 	c #CA513B",
"O 	c #C74C39",
"P 	c #C8503B",
"Q 	c #CC5A40",
"R 	c #CC5A3F",
"S 	c #D26345",
"T 	c #4D3450",
"U 	c #4E363B",
"V 	c #4D3351",
"W 	c #543665",
"X 	c #573768",
"Y 	c #4A325B",
"Z 	c #37283C",
"` 	c #6D2E25",
" .	c #A93F2F",
"..	c #C24836",
"+.	c #C64C38",
"@.	c #C54B38",
"#.	c #C24736",
"$.	c #C04534",
"%.	c #79402E",
"&.	c #694838",
"*.	c #4A325A",
"=.	c #652822",
"-.	c #9D3329",
";.	c #B93F31",
">.	c #C34837",
",.	c #B3392E",
"'.	c #C9513B",
").	c #B35038",
"!.	c #462F54",
"~.	c #3E2B45",
"{.	c #4E363C",
"].	c #694839",
"^.	c #6C4B35",
"/.	c #5B3F2E",
"(.	c #4D325B",
"_.	c #412D4F",
":.	c #2E2234",
"<.	c #5E1E1D",
"[.	c #962723",
"}.	c #B3372D",
"|.	c #C14635",
"1.	c #C64B38",
"2.	c #BD4A39",
"3.	c #B8523F",
"4.	c #B55643",
"5.	c #B8513F",
"6.	c #BD4938",
"7.	c #C24635",
"8.	c #C84E39",
"9.	c #AF4532",
"0.	c #703126",
"a.	c #473053",
"b.	c #4E373B",
"c.	c #5B402E",
"d.	c #6D4B34",
"e.	c #36273B",
"f.	c #302635",
"g.	c #2B2327",
"h.	c #612521",
"i.	c #972C27",
"j.	c #B4392E",
"k.	c #C14736",
"l.	c #B93F32",
"m.	c #B85340",
"n.	c #C07257",
"o.	c #C58061",
"p.	c #C84D39",
"q.	c #AE4432",
"r.	c #533564",
"s.	c #4E315D",
"t.	c #4C324F",
"u.	c #4E363A",
"v.	c #4B3351",
"w.	c #4D363B",
"x.	c #5F4230",
"y.	c #765037",
"z.	c #714C36",
"A.	c #4C3528",
"B.	c #231F1B",
"C.	c #23201B",
"D.	c #4E4030",
"E.	c #796048",
"F.	c #9A6E53",
"G.	c #B56F54",
"H.	c #C1664E",
"I.	c #C1543F",
"J.	c #B85240",
"K.	c #BF6F55",
"L.	c #CF906D",
"M.	c #D79F78",
"N.	c #D89F78",
"O.	c #D29570",
"P.	c #C77E5F",
"Q.	c #C0664D",
"R.	c #C0513D",
"S.	c #C04434",
"T.	c #C14534",
"U.	c #C14735",
"V.	c #6D2E24",
"W.	c #68483A",
"X.	c #765038",
"Y.	c #784E36",
"Z.	c #6A4430",
"`.	c #473124",
" +	c #1D1B18",
".+	c #765F47",
"++	c #B9946F",
"@+	c #D7A97F",
"#+	c #DEAA7F",
"$+	c #D69670",
"%+	c #C07156",
"&+	c #E0AA80",
"*+	c #E8B688",
"=+	c #E8B689",
"-+	c #E6B386",
";+	c #E3AC81",
">+	c #D69671",
",+	c #B3362D",
"'+	c #B4392F",
")+	c #9E3429",
"!+	c #662922",
"~+	c #563667",
"{+	c #584364",
"]+	c #5D555D",
"^+	c #665A52",
"/+	c #705442",
"(+	c #5B3F2D",
"_+	c #7E533A",
":+	c #784B34",
"<+	c #663F2C",
"[+	c #442D23",
"}+	c #231D26",
"|+	c #322636",
"1+	c #7A6053",
"2+	c #BA9471",
"3+	c #DCB084",
"4+	c #EABC8C",
"5+	c #E1A97F",
"6+	c #C16F55",
"7+	c #B55542",
"8+	c #C47E60",
"9+	c #D79F77",
"0+	c #E9BC8E",
"a+	c #DBB68C",
"b+	c #E5B084",
"c+	c #CF8A68",
"d+	c #B76751",
"e+	c #A3554A",
"f+	c #984540",
"g+	c #973631",
"h+	c #862B2C",
"i+	c #5D2937",
"j+	c #4E345E",
"k+	c #553567",
"l+	c #6B5A73",
"m+	c #868083",
"n+	c #85807B",
"o+	c #675B53",
"p+	c #6C4A33",
"q+	c #744831",
"r+	c #653E2B",
"s+	c #442E23",
"t+	c #322535",
"u+	c #442E50",
"v+	c #5F4558",
"w+	c #7D6255",
"x+	c #AD8B68",
"y+	c #C27156",
"z+	c #C57F60",
"A+	c #AFA183",
"B+	c #EDBB8C",
"C+	c #E6B084",
"D+	c #CA9D7A",
"E+	c #95816F",
"F+	c #68625C",
"G+	c #61413D",
"H+	c #5C2937",
"I+	c #532E4F",
"J+	c #553466",
"K+	c #74647A",
"L+	c #979193",
"M+	c #94908D",
"N+	c #666063",
"O+	c #674636",
"P+	c #714C35",
"Q+	c #6A442E",
"R+	c #663F2B",
"S+	c #653E2A",
"T+	c #5E3B28",
"U+	c #4F3325",
"V+	c #482F38",
"W+	c #4A3150",
"X+	c #442C53",
"Y+	c #3E2B46",
"Z+	c #7B6254",
"`+	c #B99471",
" @	c #CB9872",
".@	c #BF7559",
"+@	c #BC6951",
"@@	c #C78364",
"#@	c #E8B588",
"$@	c #DBB58B",
"%@	c #AFA083",
"&@	c #AEA083",
"*@	c #F1C190",
"=@	c #DCB68C",
"-@	c #7C806E",
";@	c #4F5246",
">@	c #4B305A",
",@	c #74657A",
"'@	c #989294",
")@	c #969292",
"!@	c #6F6372",
"~@	c #4C3439",
"{@	c #5E3B2A",
"]@	c #5C3A30",
"^@	c #482F39",
"/@	c #3B2845",
"(@	c #5C4457",
"_@	c #9A7155",
":@	c #B87B5D",
"<@	c #CB8C6A",
"[@	c #F0C090",
"}@	c #F1C191",
"|@	c #EABE90",
"1@	c #B99C79",
"2@	c #76644D",
"3@	c #35283C",
"4@	c #492F5A",
"5@	c #736479",
"6@	c #533C60",
"7@	c #4C414F",
"8@	c #454143",
"9@	c #3C323E",
"0@	c #472F38",
"a@	c #503325",
"b@	c #493050",
"c@	c #503252",
"d@	c #5E3842",
"e@	c #835445",
"f@	c #AC745A",
"g@	c #C28566",
"h@	c #CA8D6B",
"i@	c #E9B689",
"j@	c #EFBE8E",
"k@	c #EBB88B",
"l@	c #ECB98B",
"m@	c #D4A97E",
"n@	c #876C51",
"o@	c #482D59",
"p@	c #5E4B69",
"q@	c #68626B",
"r@	c #676268",
"s@	c #574860",
"t@	c #4C325B",
"u@	c #4C315A",
"v@	c #5B3930",
"w@	c #5D3642",
"x@	c #86494B",
"y@	c #98554F",
"z@	c #9C5D4F",
"A@	c #AA6E58",
"B@	c #C28666",
"C@	c #D79E77",
"D@	c #EAB88A",
"E@	c #DEA87E",
"F@	c #DFA97F",
"G@	c #886C51",
"H@	c #482E59",
"I@	c #685771",
"J@	c #7F797E",
"K@	c #807A7F",
"L@	c #643D2E",
"M@	c #653B33",
"N@	c #7A4440",
"O@	c #97524E",
"P@	c #9A544E",
"Q@	c #864C41",
"R@	c #8A5C45",
"S@	c #A87A57",
"T@	c #BE9369",
"U@	c #CDA678",
"V@	c #D4AD7E",
"W@	c #D3AC7D",
"X@	c #D3AB7C",
"Y@	c #D2AA7C",
"Z@	c #CBA275",
"`@	c #BE9168",
" #	c #BF9169",
".#	c #CBA077",
"+#	c #7C6154",
"@#	c #4C305D",
"##	c #706077",
"$#	c #8F898C",
"%#	c #908A8D",
"&#	c #643B33",
"*#	c #894C47",
"=#	c #944F4B",
"-#	c #854C41",
";#	c #694C30",
">#	c #60582C",
",#	c #726B39",
"'#	c #807944",
")#	c #89824D",
"!#	c #8D8351",
"~#	c #8C7E50",
"{#	c #8C7B4F",
"]#	c #8C7A4F",
"^#	c #87794B",
"/#	c #7F7543",
"(#	c #7E7144",
"_#	c #836D4C",
":#	c #7B6053",
"<#	c #604758",
"[#	c #969192",
"}#	c #553467",
"|#	c #422D4F",
"1#	c #332635",
"2#	c #5F3733",
"3#	c #914F4A",
"4#	c #9B554F",
"5#	c #864D42",
"6#	c #6C4B32",
"7#	c #505322",
"8#	c #3E5B1A",
"9#	c #3F631D",
"0#	c #3F651B",
"a#	c #3E621A",
"b#	c #596E3F",
"c#	c #7C8262",
"d#	c #8A8C71",
"e#	c #395918",
"f#	c #31471A",
"g#	c #383A35",
"h#	c #463550",
"i#	c #73657A",
"j#	c #979293",
"k#	c #50345E",
"l#	c #312636",
"m#	c #2A2227",
"n#	c #55302D",
"o#	c #804440",
"p#	c #6B4D31",
"q#	c #445D1E",
"r#	c #3E631C",
"s#	c #3D651D",
"t#	c #376012",
"u#	c #395A15",
"v#	c #798161",
"w#	c #B7B59C",
"x#	c #D1CBB3",
"y#	c #7A8262",
"z#	c #385716",
"A#	c #315610",
"B#	c #354F25",
"C#	c #373A36",
"D#	c #989293",
"E#	c #4E305D",
"F#	c #4A3050",
"G#	c #452B38",
"H#	c #3A2622",
"I#	c #2F231E",
"J#	c #4F2D2A",
"K#	c #753D39",
"L#	c #784939",
"M#	c #585327",
"N#	c #40671E",
"O#	c #41671F",
"P#	c #4C682D",
"Q#	c #647049",
"R#	c #9D9C81",
"S#	c #D6CFB7",
"T#	c #EFE6CE",
"U#	c #647149",
"V#	c #3B5B1D",
"W#	c #2E3D1D",
"X#	c #4D315B",
"Y#	c #3F2949",
"Z#	c #562F31",
"`#	c #532D29",
" $	c #3C2622",
".$	c #4E2C2A",
"+$	c #743D39",
"@$	c #774D39",
"#$	c #595B29",
"$$	c #3F661E",
"%$	c #3F661C",
"&$	c #627647",
"*$	c #8D9071",
"=$	c #B7B299",
"-$	c #DDD5BD",
";$	c #3B5B1C",
">$	c #2B3C19",
",$	c #4D315A",
"'$	c #553566",
")$	c #6C5B75",
"!$	c #8A8189",
"~$	c #8E878D",
"{$	c #7E7281",
"]$	c #402A49",
"^$	c #3B2620",
"/$	c #4B2B27",
"($	c #703A36",
"_$	c #734D37",
":$	c #585F2A",
"<$	c #3F651D",
"[$	c #3B6219",
"}$	c #385F14",
"|$	c #3A6018",
"1$	c #627146",
"2$	c #8F8D71",
"3$	c #B0A790",
"4$	c #C9BEA8",
"5$	c #D4C9B3",
"6$	c #355517",
"7$	c #293818",
"8$	c #5E456C",
"9$	c #6C5A75",
"0$	c #8F878D",
"a$	c #4F335D",
"b$	c #3B2622",
"c$	c #452826",
"d$	c #653531",
"e$	c #684932",
"f$	c #525E27",
"g$	c #40631D",
"h$	c #3E5C19",
"i$	c #3C5716",
"j$	c #3D5717",
"k$	c #535B2F",
"l$	c #70644A",
"m$	c #84705D",
"n$	c #907D6B",
"o$	c #968472",
"p$	c #384D17",
"q$	c #2C351A",
"r$	c #442A38",
"s$	c #574229",
"t$	c #4A5821",
"u$	c #5C6A30",
"v$	c #7F7647",
"w$	c #8E7D51",
"x$	c #8E7C51",
"y$	c #836F47",
"z$	c #6D4F31",
"A$	c #5D341E",
"B$	c #5B311C",
"C$	c #6E5032",
"D$	c #7C6D46",
"E$	c #534830",
"F$	c #4B315A",
"G$	c #543466",
"H$	c #4D325A",
"I$	c #4A2F50",
"J$	c #3B361E",
"K$	c #3E4E1A",
"L$	c #7D7546",
"M$	c #BB9B6E",
"N$	c #D4AC7E",
"O$	c #D5AC7E",
"P$	c #BE986E",
"Q$	c #896546",
"R$	c #5A2E17",
"S$	c #51210B",
"T$	c #50200B",
"U$	c #8B6747",
"V$	c #BA966E",
"W$	c #796248",
"X$	c #6D5B75",
"Y$	c #322F33",
"Z$	c #364022",
"`$	c #7B6C45",
" %	c #BA976E",
".%	c #D5A97F",
"+%	c #D6AA7F",
"@%	c #BF966F",
"#%	c #866447",
"$%	c #502D1B",
"%%	c #472214",
"&%	c #472317",
"*%	c #482318",
"=%	c #4C2517",
"-%	c #59311D",
";%	c #8B6648",
">%	c #BD956E",
",%	c #7C6254",
"'%	c #5F466C",
")%	c #44314F",
"!%	c #373234",
"~%	c #524730",
"{%	c #8E6F53",
"]%	c #967153",
"^%	c #886549",
"/%	c #604532",
"(%	c #39261D",
"_%	c #34211B",
":%	c #34221B",
"<%	c #41261B",
"[%	c #55311D",
"}%	c #6C4932",
"|%	c #806249",
"1%	c #7D6254",
"2%	c #624859",
"3%	c #2A2325",
"4%	c #36261B",
"5%	c #4A2D1B",
"6%	c #4D2E27",
"7%	c #402B35",
"8%	c #2B2326",
"9%	c #4D2E26",
"0%	c #432D4F",
"a%	c #2D2133",
"b%	c #231B17",
"c%	c #2F1F17",
"d%	c #3C2634",
"e%	c #472E4F",
"f%	c #452E50",
"g%	c #2C231C",
"h%	c #36261C",
"i%	c #3E2935",
"j%	c #452C4F",
"k%	c #4C325A",
"l%	c #624372",
"m%	c #5D3E6E",
"n%	c #4B3059",
"o%	c #634473",
"p%	c #5F416E",
"q%	c #624472",
"r%	c #5D3E6D",
"s%	c #533761",
"t%	c #5F406E",
"u%	c #422850",
"                                                                                                                                ",
"          . + @ # @ @ @ @ @ @ @ @ @ @ @ @ @ @ @ @ @ @ @ @ @ @ @ @ @ @ @ @ @ @ @ @ @ @ @ @ @ @ @ @ @ @ @ @ @ @ # @ + .           ",
"          + $ % & % % % % % % % % % % % % % % % % % % % % % % % % % % % % % % % % % % % % % % % % % % % % % % & % $ +           ",
"      * + = - ; ; ; ; ; ; ; ; ; ; ; ; ; ; ; ; ; ; ; ; ; ; ; ; ; ; ; ; ; ; ; ; ; ; ; ; ; ; ; ; ; ; ; ; ; ; ; ; ; ; - = + *       ",
"      + $ - > , , , , , , , , , , , , , , , , , , , , , , , , , , , , , , , , , , , , , , , , , , , , , , , , , , > - $ +       ",
"  . + = - ' ) ! ! ! ! ! ! ! ! ! ! ! ! ! ! ! ! ! ! ! ! ! ! ! ! ! ! ! ! ! ! ! ! ! ! ! ! ! ! ! ! ! ! ! ! ! ! ! ! ! ! ) ' - = + .   ",
"  + $ - > ) ~ ! ! ! ! ! ! ! ! ! ! ! ! ! ! ! ! ! ! ! ! ! ! ! ! ! ! ! ! ! ! ! ! ! ! ! ! ! ! ! ! ! ! ! ! ! ! ! ! ! ! ~ ) > - $ +   ",
"  @ % ; , ! ! ! ! ! ! ! ! ! ! ! ! ! ! ! ! ! ! ! ! ! ! ! ! ! ! ! ! ! ! ! ! ! ! ! ! ! ! ! ! ! ! ! ! ! ! ! ! ! ! ! ! ! ! , ; % @   ",
"  # & ; , ! ! ! ! ! ! ! ! ! ! ! ! ! ! ! ! ! ! ! ! ! ! ! ! ! ! ! ! ! ! ! ! ! ! ! ! ! ! ! ! ! ! ! ! ! ! ! ! ! ! ! ! ! ! , ; & #   ",
"  @ % ; , ! ! ! ! ! ! ! ! ! ! ! ! ! ! ! ! ! ! ! ! ! ! ! ! ! ! ! ! ! ! ! ! ! ! ! ! ! ! ! ! ! ! ! ! ! ! ! ! ! ! ! ! ! ! , ; % @   ",
"  @ % ; , ! ! ! ! ! ! ! ! ! ! ! ! ! ! ! ! ! ! ! ! ! ! ! ! ! ! ! ! ! ! ! ! ! ! ! ! ! ! ! ! ! ! ! ! ! ! ! ! ! ! ! ! ! ! , ; % @   ",
"  @ % ; , ! ! ! ! ! ! ! ! ! ! ! ! ! ! ! ! ! ! ! ! ! ! ! ! ! ! ! ! ! ! ! ! ! ! ! ! ! ! ! ! ! ! ! ! ! ! ! ! ! ! ! ! ! ! , ; % @   ",
"  @ % ; , ! ! ! ! ! ! ! ! ! ! ! ! ! ! ! ! ! ! ! ! ! ! ! ! ! ! ! ! ! ! ! ! ! ! ! ! ! ! ! ! ! ! ! ! ! ! ! ! ! ! ! ! ! ! , ; % @   ",
"  @ % ; , ! ! ! ! ! ! ! ! ! ! ! ! ! ! ! ! ! ! ! ! ! ! { ] ] { { ] ^ ^ ^ ^ ^ ^ ^ ^ ^ ^ ^ ^ ] { ! ! ! ! ! ! ! ! ! ! ! ! , ; % @   ",
"  @ % ; , ! ! ! ! ! ! ! ! ! ! ! ! ! ! ! ! ! ! ! ! ! ! / ( _ / : _ < < < < < < < < < < < < ( : ! ! ! ! ! ! ! ! ! ! ! ! , ; % @   ",
"  @ % ; , ! ! ! ! ! ! ! ! ! ! ! ! ! ! ! ! ! ! ! ! { / [ } | 1 2 3 4 4 4 4 4 4 4 5 6 6 7 6 8 2 ] 9 ! ! ! ! ! ! ! ! ! ! , ; % @   ",
"  @ % ; , ! ! ! ! ! ! ! ! ! ! ! ! ! ! ! ! ! ! ! ! ] ( } 0 a } 8 b c d c c c c c c c c d c e 8 ( ] ! ! ! ! ! ! ! ! ! ! , ; % @   ",
"  @ % ; , ! ! ! ! ! ! ! ! ! ! ! ! ! ! ! ! ! ! ! ! ] ( f g h i j k l m l l l l n o p p q p r s 8 2 : { ! ! ! ! ! ! ! ! , ; % @   ",
"  @ % ; , ! ! ! ! ! ! ! ! ! ! ! ! ! ! ! ! ! ! ! ! { / 1 } i t u v w w w w x w y z q q q q A r e 8 ( ] ! ! ! ! ! ! ! ! , ; % @   ",
"  @ % ; , ! ! ! ! ! ! ! ! ! ! ! ! ! ! B / / B ! ! ! ! ^ < C D E F G G G G G G H E l l l l z o c 5 < ^ ! ! ! ! ! ! ! ! , ; % @   ",
"  @ % ; , ! ! ! ! ! ! ! ! ! ! ! ! ! ! / ( ( / ! ! I ! J K L M F N O O O O O O P H Q x R Q S z d 7 < ^ ! ! ! ! ! ! ! ! , ; % @   ",
"  @ % ; , ! ! ! ! ! ! ! ! ! ! ! ! B / T U U V / W X I Y Z `  ...+.G G @.#.$.$.#.@.G G G G F E D %.< ^ ! ! ! ! ! ! ! ! , ; % @   ",
"  @ % ; , ! ! ! ! ! ! ! ! ! ! ! ! / ( U &.&.U ( / ! ! *.< =.-.;.>.G G ..;.,.,.;...O G O O '.H ).L < *.! ! ! ! ! ! ! ! , ; % @   ",
"  @ % ; , ! ! ! ! ! ! ! ! ! ! B / !.~.{.].^./.U V (.(._.:.<.[.}.|.1...2.3.4.4.5.6.7.@.G G 8.G 9.0.< *.! ! ! ! ! ! ! ! , ; % @   ",
"  @ % ; , ! ! ! ! ! ! ! ! ! ! / ( ~.a.V b.c.d.].U Z e.f.g.h.i.j.k.#.l.m.n.o.o.n.m.;.#.G G p.G q.0.< *.! ! ! ! ! ! ! ! , ; % @   ",
"  @ % ; , ! ! ! ! ! ! ! ! r.s.t.u.{.V v.w.x.y.z.A.B.C.D.E.F.G.H.I.2.J.K.L.M.N.O.P.Q.R.S.T.7.U. .V.< *.! ! ! ! ! ! ! ! , ; % @   ",
"  @ % ; , ! ! ! ! ! ! ! ! / ( U &.].b.w.W.X.Y.Z.`. +C..+++@+#+$+H.3.%+L.&+*+=+-+;+>+H.j.,+'+j.)+!+< *.! ! ! ! ! ! ! ! , ; % @   ",
"  @ % ; , ! ! ! ! ! ! ~+! {+]+^+/+^.(+x.X._+:+<+[+}+|+1+2+3+4+5+6+7+8+9+*+0+a+a+0+b+c+d+e+f+g+h+i+( j+! ! ! ! ! ! ! ! , ; % @   ",
"  @ % ; , ! ! ! ! ! ! k+! l+m+n+o+/.p+y.Y.:+q+r+s+t+u+v+w+x+3+5+y+4.z+N.=+a+A+A+a+B+C+D+E+F+G+H+I+: B ! ! ! ! ! ! ! ! , ; % @   ",
"  @ % ; , ! ! ! ! ! ! J+! K+L+M+N+w.O+P+Q+R+S+T+U+V+W+X+Y+Z+`+ @.@+@@@N.#@$@%@&@$@*@*@=@&@-@;@< >@! ! ! ! ! ! ! ! ! ! , ; % @   ",
"  @ % ; , ! ! ! ! ! ! J+! ,@'@)@!@V ~@A.`.[+s+U+{@]@^@/@X+(@1+_@:@@@<@9+#@0+a+$@0+[@}@|@=@1@2@3@4@! I ! ! ! ! ! ! ! ! , ; % @   ",
"  @ % ; , ! ! ! ! ! ! J+! 5@L+L+5@6@7@8@9@Z < 0@]@T+a@0@b@c@d@e@f@g@h@N.i@}@}@}@}@j@k@l@j@m@n@< o@! ! ! ! ! ! ! ! ! ! , ; % @   ",
"  @ % ; , ! ! ! ! ! ! J+! 5@L+L+K+p@q@r@s@t@u@W+0@a@T+v@V+w@x@y@z@A@B@C@#@[@*@*@[@D@E@F@D@m@G@< H@! ! ! ! ! ! ! ! ! ! , ; % @   ",
"  @ % ; , ! ! ! ! ! ! J+! 5@L+L+5@I@J@K@I@! k+/ _ 0@]@L@M@N@O@P@Q@R@S@T@U@V@W@X@Y@Z@`@ #.#2++#_ @#! ! ! ! ! ! ! ! ! ! , ; % @   ",
"  @ % ; , ! ! ! ! ! ! J+! 5@L+L+5@##$#%###I k+W / b@0@&#*#O@=#-#;#>#,#'#)#!#~#{#]#^#/#(#_#:#<#: r.! ! ! ! ! ! ! ! ! ! , ; % @   ",
"  @ % ; , ! ! ! ! ! ! J+! 5@L+[#5@5@[#L+5@! }#W / |#1#2#3#4#5#6#7#8#9#0#a#b#c#d#d#c#b#e#f#g#h#: B ! ! ! ! ! ! ! ! ! ! , ; % @   ",
"  @ % ; , ! ! ! ! ! ! J+! 5@L+[#5@i#L+j#i#! J+k#_ l#m#n#o#Q@p#7#q#r#s#t#u#v#w#x#x#w#y#z#A#B#C#_ / ! ! ! ! ! ! ! ! ! ! , ; % @   ",
"  @ % ; , ! ! ! ! ! ! J+! ,@D#L+5@5@L+D#,@B E#F#G#H#I#J#K#L#M#8#9#N#O#P#Q#R#S#T#T#S#R#U#P#V#W#< X#! ! ! ! ! ! ! ! ! ! , ; % @   ",
"  @ % ; , ! ! ! ! ! ! J+! 5@L+[#5@5@[#L+5@/ Y#G#Z#`# $.$+$@$#$9#$$%$O#&$*$=$-$T#T#-$=$*$&$;$>$< ,$! ! ! ! ! ! ! ! ! ! , ; % @   ",
"  @ % ; , ! ! ! ! ! ! '$! )$!$~${${$~$!$)$/ ]$G#Z#`#^$/$($_$:$<$[$}$|$1$2$3$4$5$5$4$3$2$1$6$7$< X#! ! ! ! ! ! ! ! ! ! , ; % @   ",
"  @ % ; , ! ! ! ! ! ! ~+! 8$9${$0$0${$9$8$B a$F#G#b$I#c$d$e$f$g$h$i$j$k$l$m$n$o$o$n$m$l$k$p$q$< (.! ! ! ! ! ! ! ! ! ! , ; % @   ",
"  @ % ; , ! ! ! ! ! ! ! ! J+! ,@D#D#,@! J+! ! : ( Z < r$Z#s$t$u$v$w$x$y$z$A$B$B$B$B$A$C$y$D$E$< F$! ! ! ! ! ! ! ! ! ! , ; % @   ",
"  @ % ; , ! ! ! ! ! ! ! ! G$'$5@j#j#5@'$G$! ! B / t@H$I$r$J$K$L$M$N$O$P$Q$R$S$T$T$S$R$U$P$V$W$< 4@! ! ! ! ! ! ! ! ! ! , ; % @   ",
"  @ % ; , ! ! ! ! ! ! ! ! '$! X$!$!$X$! '$! ! ! ! ! ! / ( Y$Z$`$ %.%+%@%#%$%%%&%*%=%-%;%>%2+,%( @#! ! ! ! ! ! ! ! ! ! , ; % @   ",
"  @ % ; , ! ! ! ! ! ! ! ! ~+! '%9$9$'%! ~+! ! ! ! I ! W / )%!%~%W${%]%^%/%(%_%_%:%<%[%}%|%1%2%: r.! ! ! ! ! ! ! ! ! ! , ; % @   ",
"  @ % ; , ! ! ! ! ! ! ! ! ! ! ! ! ! ! ! ! ! ! ! ! ! ! ! ! : ( 1#3%4%5%6%7%Z Z 1#8%4%5%9%7%( / ! ! ! ! ! ! ! ! ! ! ! ! , ; % @   ",
"  @ % ; , ! ! ! ! ! ! ! ! ! ! ~+'$'$~+! ! ! ! ! ! ! ! ! ! W / 0%a%b%c%d%e%(.(.f%1#g%h%i%j%@#r.! ! ! ! ! ! ! ! ! ! ! ! , ; % @   ",
"  @ % ; , ! ! ! ! ! ! ! ! ! ! ! ! ! ! ! ! ! ! ! ! ! ! ! ! ! ! : ( < < ( : ! ! : ( < < ( : ! ! ! ! ! ! ! ! ! ! ! ! ! ! , ; % @   ",
"  @ % ; , ! ! ! ! ! ! ! ! ! ! ! ! ! ! ! ! ! ! ! ! ! ! ! ! ! ! B : H$k%/ B I I B : H$k%/ B ! ! ! ! ! ! ! ! ! ! ! ! ! ! , ; % @   ",
"  @ % ; , ! ! ! ! ! ! ! ! ! ! ! ! ! ! ! ! ! ! ! ! ! ! ! ! ! ! ! ! ! ! ! ! ! ! ! ! ! ! ! ! ! ! ! ! ! ! ! ! ! ! ! ! ! ! , ; % @   ",
"  @ % ; , ! ! ! ! ! ! ! ! ! ! ! ! ! ! ! ! ! ! ! ! ! ! ! ! ! ! ! ! ! ! ! ! ! ! ! ! ! ! ! ! ! ! ! ! ! ! ! ! ! ! ! ! ! ! , ; % @   ",
"  @ % ; , ! ! ! ! ! ! ! ! ! ! ! ! ! ! ! ! ! ! ! ! ! ! ! ! ! ! ! ! ! ! ! ! ! ! ! ! ! ! ! ! ! ! ! ! ! ! ! ! ! ! ! ! ! ! , ; % @   ",
"  @ % ; , ! ! ! ! ! ! ! ! ! ! ! ! ! ! ! ! ! ! ! ! ! ! ! ! ! ! ! ! ! ! ! ! ! ! ! ! ! ! ! ! ! ! ! ! ! ! ! ! ! ! ! ! ! ! , ; % @   ",
"  @ % ; , ! ! ! ! ! ! ! ! ! ! ! ! ! ! ! ! ! ! ! ! ! ! ! ! ! ! ! ! ! ! ! ! ! ! ! ! ! ! ! ! ! ! ! ! ! ! ! ! ! ! ! ! ! ! , ; % @   ",
"  @ % ; , ! ! ! ! ! ! ! ! ! ! ! ! ! ! ! ! ! ! ! ! ! ! ! ! ! ! ! ! ! ! ! ! ! ! ! ! ! ! ! ! ! ! ! ! ! ! ! ! ! ! ! ! ! ! , ; % @   ",
"  @ & l%m%) ~ ! ! ! ! ! ! ! ! ! ! ! ! ! ! ! ! ! ! ! ! ! ! ! ! ! ! ! ! ! ! ! ! ! ! ! ! ! ! ! ! ! ! ! ! ! ! ! ! ! ! ! ! , ; & #   ",
"  n%% o%l%' ) ! ! ! ! ! ! ! ! ! ! ! ! ! ! ! ! ! ! ! ! ! ! ! ! ! ! ! ! ! ! ! ! ! ! ! ! ! ! ! ! ! ! ! ! ! ! ! ! ! ! ! ! , ; % @   ",
"  + $ p%q%l%r%) ~ ! ! ! ! ! ! ! ! ! ! ! ! ! ! ! ! ! ! ! ! ! ! ! ! ! ! ! ! ! ! ! ! ! ! ! ! ! ! ! ! ! ! ! ! ! ! ! ! ~ ) > - $ +   ",
"  . + s%t%o%l%' ) ! ! ! ! ! ! ! ! ! ! ! ! ! ! ! ! ! ! ! ! ! ! ! ! ! ! ! ! ! ! ! ! ! ! ! ! ! ! ! ! ! ! ! ! ! ! ! ! ) ' - = + .   ",
"      + $ t%q%l%m%, , , , , , , , , , , , , , , , , , , , , , , , , , , , , , , , , , , , , , , , , , , , , , , , > - $ +       ",
"      u%+ s%p%o%l%; ; ; ; ; ; ; ; ; ; ; ; ; ; ; ; ; ; ; ; ; ; ; ; ; ; ; ; ; ; ; ; ; ; ; ; ; ; ; ; ; ; ; ; ; ; ; ; - = + *       ",
"          + $ % & % % % % % % % % % % % % % % % % % % % % % % % % % % % % % % % % % % % % % % % % % % % % % % & % $ +           ",
"          . + n%@ @ @ @ @ @ @ @ @ @ @ @ @ @ @ @ @ @ @ @ @ @ @ @ @ @ @ @ @ @ @ @ @ @ @ @ @ @ @ @ @ @ @ @ @ @ @ # @ + .           ",
"                                                                                                                                "};
