/* XPM */
static char * idle_4_xpm[] = {
"64 64 574 2",
"  	c #40264D",
". 	c #432950",
"+ 	c #492E56",
"@ 	c #4C3059",
"# 	c #4C3159",
"$ 	c #563965",
"% 	c #5C3F6B",
"& 	c #5C3F6C",
"* 	c #432850",
"= 	c #523660",
"- 	c #5C3E6B",
"; 	c #614271",
"> 	c #5B3C6B",
", 	c #5A3B6B",
"' 	c #5E3F6E",
") 	c #593A6A",
"! 	c #563767",
"~ 	c #573868",
"{ 	c #533664",
"] 	c #4D335E",
"^ 	c #49315A",
"/ 	c #4F335E",
"( 	c #412C4A",
"_ 	c #412D4A",
": 	c #4F345E",
"< 	c #37283B",
"[ 	c #593250",
"} 	c #6A3239",
"| 	c #69313A",
"1 	c #573150",
"2 	c #5A3752",
"3 	c #71403F",
"4 	c #7C4530",
"5 	c #7B4530",
"6 	c #7C452F",
"7 	c #7B4430",
"8 	c #71403E",
"9 	c #5C3852",
"0 	c #9A3E34",
"a 	c #993E35",
"b 	c #A95C43",
"c 	c #C06845",
"d 	c #C16845",
"e 	c #AA5C42",
"f 	c #693139",
"g 	c #9B3E35",
"h 	c #A24432",
"i 	c #8C4531",
"j 	c #9A5238",
"k 	c #C36544",
"l 	c #D66D4A",
"m 	c #D76D4A",
"n 	c #D7704B",
"o 	c #DA744E",
"p 	c #DC7750",
"q 	c #DB764F",
"r 	c #B05D3E",
"s 	c #C46544",
"t 	c #CB5F42",
"u 	c #CE5B40",
"v 	c #CD5A40",
"w 	c #D16344",
"x 	c #D8704C",
"y 	c #DD7750",
"z 	c #DC774F",
"A 	c #543664",
"B 	c #79412E",
"C 	c #BC6041",
"D 	c #D26646",
"E 	c #CC573E",
"F 	c #C74D39",
"G 	c #CB573E",
"H 	c #D76E4A",
"I 	c #D66E4A",
"J 	c #79402E",
"K 	c #563768",
"L 	c #49315B",
"M 	c #34283C",
"N 	c #733729",
"O 	c #B45038",
"P 	c #CA513B",
"Q 	c #C74C39",
"R 	c #C8503B",
"S 	c #B35038",
"T 	c #4A325A",
"U 	c #4D3450",
"V 	c #4E363B",
"W 	c #4D3351",
"X 	c #543665",
"Y 	c #573768",
"Z 	c #4A325B",
"` 	c #37283C",
" .	c #6D2E25",
"..	c #A93F2F",
"+.	c #C24836",
"@.	c #C64C38",
"#.	c #C54B38",
"$.	c #C24736",
"%.	c #C04534",
"&.	c #C14635",
"*.	c #6D2E24",
"=.	c #694838",
"-.	c #652822",
";.	c #9D3329",
">.	c #B93F31",
",.	c #C34837",
"'.	c #B4392E",
").	c #B3392E",
"!.	c #B3382E",
"~.	c #662822",
"{.	c #462F54",
"].	c #3E2B45",
"^.	c #4E363C",
"/.	c #694839",
"(.	c #6C4B35",
"_.	c #5B3F2E",
":.	c #4D325B",
"<.	c #412D4F",
"[.	c #2E2234",
"}.	c #5E1E1D",
"|.	c #962723",
"1.	c #B3372D",
"2.	c #C64B38",
"3.	c #BD4A39",
"4.	c #B8523F",
"5.	c #B55543",
"6.	c #B55643",
"7.	c #AE4D3D",
"8.	c #A03B30",
"9.	c #862B2C",
"0.	c #5C2937",
"a.	c #4E345E",
"b.	c #473053",
"c.	c #4E373B",
"d.	c #5B402E",
"e.	c #6D4B34",
"f.	c #36273B",
"g.	c #302635",
"h.	c #2B2327",
"i.	c #612521",
"j.	c #972C27",
"k.	c #C14736",
"l.	c #B93F32",
"m.	c #B85340",
"n.	c #C07257",
"o.	c #C57F61",
"p.	c #C58061",
"q.	c #C68061",
"r.	c #B27055",
"s.	c #854A3A",
"t.	c #512D50",
"u.	c #533564",
"v.	c #4E315D",
"w.	c #4C324F",
"x.	c #4E363A",
"y.	c #4B3351",
"z.	c #4D363B",
"A.	c #5F4230",
"B.	c #765037",
"C.	c #714C36",
"D.	c #4C3528",
"E.	c #231F1B",
"F.	c #23201B",
"G.	c #4E4030",
"H.	c #796048",
"I.	c #9A6E53",
"J.	c #B56F54",
"K.	c #C1664E",
"L.	c #C1543F",
"M.	c #B85240",
"N.	c #BF6F55",
"O.	c #CF906D",
"P.	c #D79F77",
"Q.	c #D89F78",
"R.	c #D79E77",
"S.	c #BE8C69",
"T.	c #7A5A44",
"U.	c #492F5A",
"V.	c #68483A",
"W.	c #765038",
"X.	c #784E36",
"Y.	c #6A4430",
"Z.	c #473124",
"`.	c #1D1B18",
" +	c #765F47",
".+	c #B9946F",
"++	c #D7A97F",
"@+	c #DEAA7F",
"#+	c #D69670",
"$+	c #C07156",
"%+	c #E0AA80",
"&+	c #E8B688",
"*+	c #E8B689",
"=+	c #E9B689",
"-+	c #CB9F77",
";+	c #81664D",
">+	c #35283C",
",+	c #482E5A",
"'+	c #563667",
")+	c #584364",
"!+	c #5D555D",
"~+	c #665A52",
"{+	c #705442",
"]+	c #5B3F2D",
"^+	c #7E533A",
"/+	c #784B34",
"(+	c #663F2C",
"_+	c #442D23",
":+	c #231D26",
"<+	c #322636",
"[+	c #7A6053",
"}+	c #BA9471",
"|+	c #DCB084",
"1+	c #EABC8C",
"2+	c #E1A97F",
"3+	c #C16F55",
"4+	c #B55542",
"5+	c #C47E60",
"6+	c #E9BC8E",
"7+	c #DBB68C",
"8+	c #DBB58B",
"9+	c #F0C090",
"0+	c #EABD8F",
"a+	c #B99B78",
"b+	c #76634D",
"c+	c #492E59",
"d+	c #553567",
"e+	c #6B5A73",
"f+	c #868083",
"g+	c #85807B",
"h+	c #675B53",
"i+	c #6C4A33",
"j+	c #744831",
"k+	c #653E2B",
"l+	c #442E23",
"m+	c #322535",
"n+	c #442E50",
"o+	c #5F4558",
"p+	c #7D6255",
"q+	c #AD8B68",
"r+	c #C27156",
"s+	c #C57F60",
"t+	c #AFA183",
"u+	c #AFA083",
"v+	c #F1C190",
"w+	c #DCB68C",
"x+	c #7D816E",
"y+	c #4F5247",
"z+	c #4B305A",
"A+	c #553466",
"B+	c #74647A",
"C+	c #979193",
"D+	c #94908D",
"E+	c #666063",
"F+	c #674636",
"G+	c #714C35",
"H+	c #6A442E",
"I+	c #663F2B",
"J+	c #653E2A",
"K+	c #5E3B28",
"L+	c #4F3325",
"M+	c #482F38",
"N+	c #4A3150",
"O+	c #442C53",
"P+	c #3E2B46",
"Q+	c #7B6254",
"R+	c #B99471",
"S+	c #CB9872",
"T+	c #BF7559",
"U+	c #BC6951",
"V+	c #C78364",
"W+	c #E8B588",
"X+	c #AEA083",
"Y+	c #7C806E",
"Z+	c #4F5246",
"`+	c #74657A",
" @	c #989294",
".@	c #969292",
"+@	c #6F6372",
"@@	c #4C3439",
"#@	c #5E3B2A",
"$@	c #5C3A30",
"%@	c #482F39",
"&@	c #3B2845",
"*@	c #5C4457",
"=@	c #9A7155",
"-@	c #B87B5D",
";@	c #CB8C6A",
">@	c #736479",
",@	c #533C60",
"'@	c #4C414F",
")@	c #454143",
"!@	c #3C323E",
"~@	c #472F38",
"{@	c #503325",
"]@	c #493050",
"^@	c #503252",
"/@	c #5E3842",
"(@	c #835445",
"_@	c #AC745A",
":@	c #C28566",
"<@	c #CA8D6B",
"[@	c #F1C191",
"}@	c #EFBE8E",
"|@	c #EBB88B",
"1@	c #ECB98B",
"2@	c #D4A97E",
"3@	c #876C51",
"4@	c #482D59",
"5@	c #5E4B69",
"6@	c #68626B",
"7@	c #676268",
"8@	c #574860",
"9@	c #4C325B",
"0@	c #4C315A",
"a@	c #5B3930",
"b@	c #5D3642",
"c@	c #86494B",
"d@	c #98554F",
"e@	c #9C5D4F",
"f@	c #AA6E58",
"g@	c #C28666",
"h@	c #EAB88A",
"i@	c #DEA87E",
"j@	c #DFA97F",
"k@	c #886C51",
"l@	c #482E59",
"m@	c #685771",
"n@	c #7F797E",
"o@	c #807A7F",
"p@	c #643D2E",
"q@	c #653B33",
"r@	c #7A4440",
"s@	c #97524E",
"t@	c #9A544E",
"u@	c #864C41",
"v@	c #8A5C45",
"w@	c #A87A57",
"x@	c #BE9369",
"y@	c #CDA678",
"z@	c #D4AD7E",
"A@	c #D3AC7D",
"B@	c #D3AB7C",
"C@	c #D2AA7C",
"D@	c #CBA275",
"E@	c #BE9168",
"F@	c #BF9169",
"G@	c #CBA077",
"H@	c #7C6154",
"I@	c #4C305D",
"J@	c #706077",
"K@	c #8F898C",
"L@	c #908A8D",
"M@	c #643B33",
"N@	c #894C47",
"O@	c #944F4B",
"P@	c #854C41",
"Q@	c #694C30",
"R@	c #60582C",
"S@	c #726B39",
"T@	c #807944",
"U@	c #89824D",
"V@	c #8D8351",
"W@	c #8C7E50",
"X@	c #8C7B4F",
"Y@	c #8C7A4F",
"Z@	c #87794B",
"`@	c #7F7543",
" #	c #7E7144",
".#	c #836D4C",
"+#	c #7B6053",
"@#	c #604758",
"##	c #969192",
"$#	c #553467",
"%#	c #422D4F",
"&#	c #332635",
"*#	c #5F3733",
"=#	c #914F4A",
"-#	c #9B554F",
";#	c #864D42",
">#	c #6C4B32",
",#	c #505322",
"'#	c #3E5B1A",
")#	c #3F631D",
"!#	c #3F651B",
"~#	c #3E621A",
"{#	c #596E3F",
"]#	c #7C8262",
"^#	c #8A8C71",
"/#	c #395918",
"(#	c #31471A",
"_#	c #383A35",
":#	c #463550",
"<#	c #73657A",
"[#	c #979293",
"}#	c #50345E",
"|#	c #312636",
"1#	c #2A2227",
"2#	c #55302D",
"3#	c #804440",
"4#	c #6B4D31",
"5#	c #445D1E",
"6#	c #3E631C",
"7#	c #3D651D",
"8#	c #376012",
"9#	c #395A15",
"0#	c #798161",
"a#	c #B7B59C",
"b#	c #D1CBB3",
"c#	c #7A8262",
"d#	c #385716",
"e#	c #315610",
"f#	c #354F25",
"g#	c #373A36",
"h#	c #989293",
"i#	c #4E305D",
"j#	c #4A3050",
"k#	c #452B38",
"l#	c #3A2622",
"m#	c #2F231E",
"n#	c #4F2D2A",
"o#	c #753D39",
"p#	c #784939",
"q#	c #585327",
"r#	c #40671E",
"s#	c #41671F",
"t#	c #4C682D",
"u#	c #647049",
"v#	c #9D9C81",
"w#	c #D6CFB7",
"x#	c #EFE6CE",
"y#	c #647149",
"z#	c #3B5B1D",
"A#	c #2E3D1D",
"B#	c #4D315B",
"C#	c #3F2949",
"D#	c #562F31",
"E#	c #532D29",
"F#	c #3C2622",
"G#	c #4E2C2A",
"H#	c #743D39",
"I#	c #774D39",
"J#	c #595B29",
"K#	c #3F661E",
"L#	c #3F661C",
"M#	c #627647",
"N#	c #8D9071",
"O#	c #B7B299",
"P#	c #DDD5BD",
"Q#	c #3B5B1C",
"R#	c #2B3C19",
"S#	c #4D315A",
"T#	c #553566",
"U#	c #6C5B75",
"V#	c #8A8189",
"W#	c #8F878D",
"X#	c #7F7381",
"Y#	c #402A49",
"Z#	c #3B2620",
"`#	c #4B2B27",
" $	c #703A36",
".$	c #734D37",
"+$	c #585F2A",
"@$	c #3F651D",
"#$	c #3B6219",
"$$	c #385F14",
"%$	c #3A6018",
"&$	c #627146",
"*$	c #908D71",
"=$	c #B0A790",
"-$	c #C8BEA8",
";$	c #D3C9B3",
">$	c #8F8D71",
",$	c #355517",
"'$	c #293818",
")$	c #5E456C",
"!$	c #6C5A75",
"~$	c #7E7281",
"{$	c #4F335D",
"]$	c #3B2622",
"^$	c #452826",
"/$	c #653531",
"($	c #684932",
"_$	c #525E27",
":$	c #40631D",
"<$	c #3E5C19",
"[$	c #3C5716",
"}$	c #3D5717",
"|$	c #535B2F",
"1$	c #70644A",
"2$	c #826F5C",
"3$	c #8C7A6A",
"4$	c #908071",
"5$	c #384D17",
"6$	c #2C351A",
"7$	c #6D5B75",
"8$	c #442A38",
"9$	c #574229",
"0$	c #4A5821",
"a$	c #5C6A30",
"b$	c #7F7647",
"c$	c #8E7D51",
"d$	c #8E7C51",
"e$	c #826E47",
"f$	c #674D30",
"g$	c #502D1B",
"h$	c #4A2517",
"i$	c #4A2316",
"j$	c #4E2417",
"k$	c #532718",
"l$	c #5B311C",
"m$	c #6E5032",
"n$	c #836F47",
"o$	c #7C6D46",
"p$	c #534830",
"q$	c #4B315A",
"r$	c #553667",
"s$	c #4D325A",
"t$	c #4A2F50",
"u$	c #3B361E",
"v$	c #3E4E1A",
"w$	c #7D7546",
"x$	c #BB9B6E",
"y$	c #D5AC7E",
"z$	c #BB976E",
"A$	c #7C6146",
"B$	c #352017",
"C$	c #2B120E",
"D$	c #37160E",
"E$	c #46180A",
"F$	c #4E1C08",
"G$	c #592D16",
"H$	c #8B6747",
"I$	c #BE986E",
"J$	c #BA966E",
"K$	c #796248",
"L$	c #322F33",
"M$	c #364022",
"N$	c #7B6C45",
"O$	c #BA976E",
"P$	c #32243A",
"Q$	c #3C2734",
"R$	c #442424",
"S$	c #472314",
"T$	c #502D1A",
"U$	c #866448",
"V$	c #BC956E",
"W$	c #7C6254",
"X$	c #44314F",
"Y$	c #373234",
"Z$	c #524730",
"`$	c #896E52",
" %	c #8A6E52",
".%	c #7D6254",
"+%	c #614758",
"@%	c #4B315B",
"#%	c #472F50",
"$%	c #3C2735",
"%%	c #35221B",
"&%	c #39261B",
"*%	c #594331",
"=%	c #7A6149",
"-%	c #624859",
";%	c #4C325A",
">%	c #624372",
",%	c #5D3E6E",
"'%	c #4B3059",
")%	c #634473",
"!%	c #5F416E",
"~%	c #624472",
"{%	c #5D3E6D",
"]%	c #533761",
"^%	c #5F406E",
"/%	c #422850",
"                                                                                                                                ",
"          . + @ # @ @ @ @ @ @ @ @ @ @ @ @ @ @ @ @ @ @ @ @ @ @ @ @ @ @ @ @ @ @ @ @ @ @ @ @ @ @ @ @ @ @ @ @ @ @ # @ + .           ",
"          + $ % & % % % % % % % % % % % % % % % % % % % % % % % % % % % % % % % % % % % % % % % % % % % % % % & % $ +           ",
"      * + = - ; ; ; ; ; ; ; ; ; ; ; ; ; ; ; ; ; ; ; ; ; ; ; ; ; ; ; ; ; ; ; ; ; ; ; ; ; ; ; ; ; ; ; ; ; ; ; ; ; ; - = + *       ",
"      + $ - > , , , , , , , , , , , , , , , , , , , , , , , , , , , , , , , , , , , , , , , , , , , , , , , , , , > - $ +       ",
"  . + = - ' ) ! ! ! ! ! ! ! ! ! ! ! ! ! ! ! ! ! ! ! ! ! ! ! ! ! ! ! ! ! ! ! ! ! ! ! ! ! ! ! ! ! ! ! ! ! ! ! ! ! ! ) ' - = + .   ",
"  + $ - > ) ~ ! ! ! ! ! ! ! ! ! ! ! ! ! ! ! ! ! ! ! ! ! ! ! ! ! ! ! ! ! ! ! ! ! ! ! ! ! ! ! ! ! ! ! ! ! ! ! ! ! ! ~ ) > - $ +   ",
"  @ % ; , ! ! ! ! ! ! ! ! ! ! ! ! ! ! ! ! ! ! ! ! ! ! ! ! ! ! ! ! ! ! ! ! ! ! ! ! ! ! ! ! ! ! ! ! ! ! ! ! ! ! ! ! ! ! , ; % @   ",
"  # & ; , ! ! ! ! ! ! ! ! ! ! ! ! ! ! ! ! ! ! ! ! ! ! ! ! ! ! ! ! ! ! ! ! ! ! ! ! ! ! ! ! ! ! ! ! ! ! ! ! ! ! ! ! ! ! , ; & #   ",
"  @ % ; , ! ! ! ! ! ! ! ! ! ! ! ! ! ! ! ! ! ! ! ! ! ! ! ! ! ! ! ! ! ! ! ! ! ! ! ! ! ! ! ! ! ! ! ! ! ! ! ! ! ! ! ! ! ! , ; % @   ",
"  @ % ; , ! ! ! ! ! ! ! ! ! ! ! ! ! ! ! ! ! ! ! ! ! ! ! ! ! ! ! ! ! ! ! ! ! ! ! ! ! ! ! ! ! ! ! ! ! ! ! ! ! ! ! ! ! ! , ; % @   ",
"  @ % ; , ! ! ! ! ! ! ! ! ! ! ! ! ! ! ! ! ! ! ! ! ! ! ! ! ! ! ! ! ! ! ! ! ! ! ! ! ! ! ! ! ! ! ! ! ! ! ! ! ! ! ! ! ! ! , ; % @   ",
"  @ % ; , ! ! ! ! ! ! ! ! ! ! ! ! ! ! ! ! ! ! ! ! ! ! ! ! ! ! ! ! ! ! ! ! ! ! ! ! ! ! ! ! ! ! ! ! ! ! ! ! ! ! ! ! ! ! , ; % @   ",
"  @ % ; , ! ! ! ! ! ! ! ! ! ! ! ! ! ! ! ! ! ! ! ! ! ! ! ! ! ! ! ! ! ! ! ! ! ! ! ! ! ! ! ! ! ! ! ! ! ! ! ! ! ! ! ! ! ! , ; % @   ",
"  @ % ; , ! ! ! ! ! ! ! ! ! ! ! ! ! ! ! ! ! ! ! ! ! ! ! ! ! ! ! ! ! ! ! ! ! ! ! ! ! ! ! ! ! ! ! ! ! ! ! ! ! ! ! ! ! ! , ; % @   ",
"  @ % ; , ! ! ! ! ! ! ! ! ! ! ! ! ! ! ! ! ! ! ! ! ! ! { ] ] { { ] ^ ^ ^ ^ ^ ^ ^ ^ ^ ^ ^ ^ ^ ^ ] { ! ! ! ! ! ! ! ! ! ! , ; % @   ",
"  @ % ; , ! ! ! ! ! ! ! ! ! ! ! ! ! ! ! ! ! ! ! ! ! ! / ( _ / : _ < < < < < < < < < < < < < < ( : ! ! ! ! ! ! ! ! ! ! , ; % @   ",
"  @ % ; , ! ! ! ! ! ! ! ! ! ! ! ! ! ! ! ! ! ! ! ! { / [ } | 1 2 3 4 4 4 4 4 4 4 4 4 4 4 5 6 7 8 9 : { ! ! ! ! ! ! ! ! , ; % @   ",
"  @ % ; , ! ! ! ! ! ! ! ! ! ! ! ! ! ! ! ! ! ! ! ! ] ( } 0 a } 8 b c d c c c c c c c c c c d c e 8 ( ] ! ! ! ! ! ! ! ! , ; % @   ",
"  @ % ; , ! ! ! ! ! ! ! ! ! ! ! ! ! ! ! ! ! ! ! ! ] ( f g h i j k l m l l l l l l l l n o p q c 5 < ^ ! ! ! ! ! ! ! ! , ; % @   ",
"  @ % ; , ! ! ! ! ! ! ! ! ! ! ! ! ! ! ! ! ! ! ! ! { / 1 } i r s t u u u u u u u u v u w x y z d 6 < ^ ! ! ! ! ! ! ! ! , ; % @   ",
"  @ % ; , ! ! ! ! ! ! ! ! ! ! ! ! ! ! A / / A ! ! ! ! ^ < B C D E F F F F F F F F F F G D H I C J < ^ ! ! ! ! ! ! ! ! , ; % @   ",
"  @ % ; , ! ! ! ! ! ! ! ! ! ! ! ! ! ! / ( ( / ! ! K ! L M N O E P Q Q Q Q Q Q Q Q Q Q R G v v S N < T ! ! ! ! ! ! ! ! , ; % @   ",
"  @ % ; , ! ! ! ! ! ! ! ! ! ! ! ! A / U V V W / X Y K Z `  ...+.@.F F #.$.%.%.%.%.%.%.%.%.&.&...*.< T ! ! ! ! ! ! ! ! , ; % @   ",
"  @ % ; , ! ! ! ! ! ! ! ! ! ! ! ! / ( V =.=.V ( / ! ! T < -.;.>.,.F F +.>.'.).'.'.'.'.).).'.!.;.~.< T ! ! ! ! ! ! ! ! , ; % @   ",
"  @ % ; , ! ! ! ! ! ! ! ! ! ! A / {.].^./.(._.V W :.:.<.[.}.|.1.&.2.+.3.4.5.6.5.5.5.5.6.5.7.8.9.0.( a.! ! ! ! ! ! ! ! , ; % @   ",
"  @ % ; , ! ! ! ! ! ! ! ! ! ! / ( ].b.W c.d.e./.V ` f.g.h.i.j.'.k.$.l.m.n.o.p.o.o.o.o.q.o.r.s.0.t.: A ! ! ! ! ! ! ! ! , ; % @   ",
"  @ % ; , ! ! ! ! ! ! ! ! u.v.w.x.^.W y.z.A.B.C.D.E.F.G.H.I.J.K.L.3.M.N.O.P.Q.Q.P.R.R.Q.Q.S.T.< U.! ! ! ! ! ! ! ! ! ! , ; % @   ",
"  @ % ; , ! ! ! ! ! ! ! ! / ( V =./.c.z.V.W.X.Y.Z.`.F. +.+++@+#+K.4.$+O.%+&+*+&+&+&+&+=+&+-+;+>+,+! K ! ! ! ! ! ! ! ! , ; % @   ",
"  @ % ; , ! ! ! ! ! ! '+! )+!+~+{+(.]+A.W.^+/+(+_+:+<+[+}+|+1+2+3+4+5+P.&+6+7+8+6+9+9+0+8+a+b+< c+! ! ! ! ! ! ! ! ! ! , ; % @   ",
"  @ % ; , ! ! ! ! ! ! d+! e+f+g+h+_.i+B.X./+j+k+l+m+n+o+p+q+|+2+r+6.s+Q.*+7+t+u+7+v+v+w+u+x+y+< z+! ! ! ! ! ! ! ! ! ! , ; % @   ",
"  @ % ; , ! ! ! ! ! ! A+! B+C+D+E+z.F+G+H+I+J+K+L+M+N+O+P+Q+R+S+T+U+V+Q.W+8+u+X+8+v+v+w+X+Y+Z+< z+! ! ! ! ! ! ! ! ! ! , ; % @   ",
"  @ % ; , ! ! ! ! ! ! A+! `+ @.@+@W @@D.Z._+l+L+#@$@%@&@O+*@[+=@-@V+;@P.W+6+7+8+6+9+9+0+8+a+b+< c+! ! ! ! ! ! ! ! ! ! , ; % @   ",
"  @ % ; , ! ! ! ! ! ! A+! >@C+C+>@,@'@)@!@` < ~@$@K+{@~@]@^@/@(@_@:@<@Q.=+[@[@[@[@}@|@1@}@2@3@< 4@! ! ! ! ! ! ! ! ! ! , ; % @   ",
"  @ % ; , ! ! ! ! ! ! A+! >@C+C+B+5@6@7@8@9@0@N+~@{@K+a@M+b@c@d@e@f@g@R.W+9+v+v+9+h@i@j@h@2@k@< l@! ! ! ! ! ! ! ! ! ! , ; % @   ",
"  @ % ; , ! ! ! ! ! ! A+! >@C+C+>@m@n@o@m@! d+/ _ ~@$@p@q@r@s@t@u@v@w@x@y@z@A@B@C@D@E@F@G@}+H@_ I@! ! ! ! ! ! ! ! ! ! , ; % @   ",
"  @ % ; , ! ! ! ! ! ! A+! >@C+C+>@J@K@L@J@K d+X / ]@~@M@N@s@O@P@Q@R@S@T@U@V@W@X@Y@Z@`@ #.#+#@#: u.! ! ! ! ! ! ! ! ! ! , ; % @   ",
"  @ % ; , ! ! ! ! ! ! A+! >@C+##>@>@##C+>@! $#X / %#&#*#=#-#;#>#,#'#)#!#~#{#]#^#^#]#{#/#(#_#:#: A ! ! ! ! ! ! ! ! ! ! , ; % @   ",
"  @ % ; , ! ! ! ! ! ! A+! >@C+##>@<#C+[#<#! A+}#_ |#1#2#3#u@4#,#5#6#7#8#9#0#a#b#b#a#c#d#e#f#g#_ / ! ! ! ! ! ! ! ! ! ! , ; % @   ",
"  @ % ; , ! ! ! ! ! ! A+! `+h#C+>@>@C+h#`+A i#j#k#l#m#n#o#p#q#'#)#r#s#t#u#v#w#x#x#w#v#y#t#z#A#< B#! ! ! ! ! ! ! ! ! ! , ; % @   ",
"  @ % ; , ! ! ! ! ! ! A+! >@C+##>@>@##C+>@/ C#k#D#E#F#G#H#I#J#)#K#L#s#M#N#O#P#x#x#P#O#N#M#Q#R#< S#! ! ! ! ! ! ! ! ! ! , ; % @   ",
"  @ % ; , ! ! ! ! ! ! T#! U#V#W#X#X#W#V#U#/ Y#k#D#E#Z#`# $.$+$@$#$$$%$&$*$=$-$;$;$-$=$>$&$,$'$< B#! ! ! ! ! ! ! ! ! ! , ; % @   ",
"  @ % ; , ! ! ! ! ! ! '+! )$!$~$W#W#~$!$)$A {$j#k#]$m#^$/$($_$:$<$[$}$|$1$2$3$4$4$3$2$1$|$5$6$< :.! ! ! ! ! ! ! ! ! ! , ; % @   ",
"  @ % ; , ! ! ! ! ! ! ! ! T#! 7$V#V#7$! T#! ! : ( ` < 8$D#9$0$a$b$c$d$e$f$g$h$i$j$k$l$m$n$o$p$< q$! ! ! ! ! ! ! ! ! ! , ; % @   ",
"  @ % ; , ! ! ! ! ! ! ! ! r$T#)$U#U#)$T#r$! ! A / 9@s$t$8$u$v$w$x$y$y$z$A$B$C$D$E$F$G$H$I$J$K$< U.! ! ! ! ! ! ! ! ! ! , ; % @   ",
"  @ % ; , ! ! ! ! ! ! ! ! ! ! ! ! ! ! ! ! ! ! ! ! ! ! / ( L$M$N$O$2@2@}++#` P$Q$R$S$T$U$V$}+W$( I@! ! ! ! ! ! ! ! ! ! , ; % @   ",
"  @ % ; , ! ! ! ! ! ! ! ! ! ! '+T#T#'+! ! ! ! ! ! K ! X / X$Y$Z$K$`$ %.%+%:.@%#%$%%%&%*%=%.%-%: u.! ! ! ! ! ! ! ! ! ! , ; % @   ",
"  @ % ; , ! ! ! ! ! ! ! ! ! ! ! ! ! ! ! ! ! ! ! ! ! ! ! ! : ( < < < < ( : ! ! : ( < < < < ( : ! ! ! ! ! ! ! ! ! ! ! ! , ; % @   ",
"  @ % ; , ! ! ! ! ! ! ! ! ! ! ! ! ! ! ! ! ! ! ! ! ! ! ! ! A / 0@U.4@l@I@u.K K A : 9@;%q$U.I@u.! ! ! ! ! ! ! ! ! ! ! ! , ; % @   ",
"  @ % ; , ! ! ! ! ! ! ! ! ! ! ! ! ! ! ! ! ! ! ! ! ! ! ! ! ! ! ! ! ! ! ! ! ! ! ! ! ! ! ! ! ! ! ! ! ! ! ! ! ! ! ! ! ! ! , ; % @   ",
"  @ % ; , ! ! ! ! ! ! ! ! ! ! ! ! ! ! ! ! ! ! ! ! ! ! ! ! ! ! ! ! ! ! ! ! ! ! ! ! ! ! ! ! ! ! ! ! ! ! ! ! ! ! ! ! ! ! , ; % @   ",
"  @ % ; , ! ! ! ! ! ! ! ! ! ! ! ! ! ! ! ! ! ! ! ! ! ! ! ! ! ! ! ! ! ! ! ! ! ! ! ! ! ! ! ! ! ! ! ! ! ! ! ! ! ! ! ! ! ! , ; % @   ",
"  @ % ; , ! ! ! ! ! ! ! ! ! ! ! ! ! ! ! ! ! ! ! ! ! ! ! ! ! ! ! ! ! ! ! ! ! ! ! ! ! ! ! ! ! ! ! ! ! ! ! ! ! ! ! ! ! ! , ; % @   ",
"  @ % ; , ! ! ! ! ! ! ! ! ! ! ! ! ! ! ! ! ! ! ! ! ! ! ! ! ! ! ! ! ! ! ! ! ! ! ! ! ! ! ! ! ! ! ! ! ! ! ! ! ! ! ! ! ! ! , ; % @   ",
"  @ % ; , ! ! ! ! ! ! ! ! ! ! ! ! ! ! ! ! ! ! ! ! ! ! ! ! ! ! ! ! ! ! ! ! ! ! ! ! ! ! ! ! ! ! ! ! ! ! ! ! ! ! ! ! ! ! , ; % @   ",
"  @ & >%,%) ~ ! ! ! ! ! ! ! ! ! ! ! ! ! ! ! ! ! ! ! ! ! ! ! ! ! ! ! ! ! ! ! ! ! ! ! ! ! ! ! ! ! ! ! ! ! ! ! ! ! ! ! ! , ; & #   ",
"  '%% )%>%' ) ! ! ! ! ! ! ! ! ! ! ! ! ! ! ! ! ! ! ! ! ! ! ! ! ! ! ! ! ! ! ! ! ! ! ! ! ! ! ! ! ! ! ! ! ! ! ! ! ! ! ! ! , ; % @   ",
"  + $ !%~%>%{%) ~ ! ! ! ! ! ! ! ! ! ! ! ! ! ! ! ! ! ! ! ! ! ! ! ! ! ! ! ! ! ! ! ! ! ! ! ! ! ! ! ! ! ! ! ! ! ! ! ! ~ ) > - $ +   ",
"  . + ]%^%)%>%' ) ! ! ! ! ! ! ! ! ! ! ! ! ! ! ! ! ! ! ! ! ! ! ! ! ! ! ! ! ! ! ! ! ! ! ! ! ! ! ! ! ! ! ! ! ! ! ! ! ) ' - = + .   ",
"      + $ ^%~%>%,%, , , , , , , , , , , , , , , , , , , , , , , , , , , , , , , , , , , , , , , , , , , , , , , , > - $ +       ",
"      /%+ ]%!%)%>%; ; ; ; ; ; ; ; ; ; ; ; ; ; ; ; ; ; ; ; ; ; ; ; ; ; ; ; ; ; ; ; ; ; ; ; ; ; ; ; ; ; ; ; ; ; ; ; - = + *       ",
"          + $ % & % % % % % % % % % % % % % % % % % % % % % % % % % % % % % % % % % % % % % % % % % % % % % % & % $ +           ",
"          . + '%@ @ @ @ @ @ @ @ @ @ @ @ @ @ @ @ @ @ @ @ @ @ @ @ @ @ @ @ @ @ @ @ @ @ @ @ @ @ @ @ @ @ @ @ @ @ @ # @ + .           ",
"                                                                                                                                "};
