/* XPM */
static char * wall_xpm[] = {
"64 64 135 2",
"  	c #40264D",
". 	c #5A4466",
"+ 	c #543E60",
"@ 	c #483054",
"# 	c #432B4F",
"$ 	c #483253",
"% 	c #4B3656",
"& 	c #796485",
"* 	c #7A6486",
"= 	c #6E5879",
"- 	c #483254",
"; 	c #54425E",
"> 	c #5B4963",
", 	c #5B4A64",
"' 	c #6D5879",
") 	c #7F6A8A",
"! 	c #725E7D",
"~ 	c #564062",
"{ 	c #5A4963",
"] 	c #62526A",
"^ 	c #7F6B8A",
"/ 	c #725D7D",
"( 	c #6E5C77",
"_ 	c #64526E",
": 	c #4F3A5A",
"< 	c #63536B",
"[ 	c #64516E",
"} 	c #493354",
"| 	c #55445F",
"1 	c #5C4C64",
"2 	c #625269",
"3 	c #4A3556",
"4 	c #442E50",
"5 	c #4B3955",
"6 	c #4E3F58",
"7 	c #4F3F58",
"8 	c #483153",
"9 	c #54415D",
"0 	c #473152",
"a 	c #40284D",
"b 	c #422E4E",
"c 	c #44324F",
"d 	c #453350",
"e 	c #432F4F",
"f 	c #41294D",
"g 	c #40274D",
"h 	c #422B4E",
"i 	c #533D5F",
"j 	c #7A6485",
"k 	c #543D60",
"l 	c #6E597A",
"m 	c #63536A",
"n 	c #725E7E",
"o 	c #56455F",
"p 	c #4F4058",
"q 	c #432F4E",
"r 	c #3F244C",
"s 	c #41294E",
"t 	c #55445E",
"u 	c #483354",
"v 	c #4E3F57",
"w 	c #4E3E56",
"x 	c #4A3853",
"y 	c #442D4F",
"z 	c #44314E",
"A 	c #422E4D",
"B 	c #463052",
"C 	c #40284C",
"D 	c #412A4E",
"E 	c #412A4D",
"F 	c #3F264C",
"G 	c #40294D",
"H 	c #5A4566",
"I 	c #422A4F",
"J 	c #473054",
"K 	c #594465",
"L 	c #53415D",
"M 	c #463152",
"N 	c #523C5E",
"O 	c #7E6A89",
"P 	c #554061",
"Q 	c #4A3555",
"R 	c #594862",
"S 	c #615169",
"T 	c #493453",
"U 	c #543F60",
"V 	c #715D7C",
"W 	c #7E6989",
"X 	c #3F254C",
"Y 	c #6C5A75",
"Z 	c #6C5A76",
"` 	c #62506C",
" .	c #4D3858",
"..	c #493454",
"+.	c #584761",
"@.	c #605068",
"#.	c #483453",
"$.	c #6C5B76",
"%.	c #6D5B77",
"&.	c #4D3859",
"*.	c #3E254B",
"=.	c #594961",
"-.	c #594A61",
";.	c #53425C",
">.	c #463151",
",.	c #483353",
"'.	c #584760",
").	c #5F4F67",
"!.	c #605067",
"~.	c #3D244A",
"{.	c #4C3C55",
"].	c #4C3D55",
"^.	c #483752",
"/.	c #412C4D",
"(.	c #584660",
"_.	c #574660",
":.	c #5E4F66",
"<.	c #584661",
"[.	c #412C4E",
"}.	c #493752",
"|.	c #3D244B",
"1.	c #43314D",
"2.	c #412D4C",
"3.	c #3E274B",
"4.	c #452F51",
"5.	c #513F5B",
"6.	c #513F5A",
"7.	c #442F50",
"8.	c #574661",
"9.	c #3E264B",
"0.	c #402D4B",
"a.	c #42304C",
"b.	c #42304D",
"c.	c #412E4C",
"d.	c #3D234B",
"                                                                                                                                ",
". . . . . . . . . . . + @ # $ % % % % % % % % % % % % $ # @ + . . . . . . . . . . + @ @ + . . . . . . . . . . + @ @ + . . . . . ",
"& & & & & & & & & * & = + - ; > , > > > > > > > > , > ; - + = & * & & & & & & * & ' + + ' & * & & & & & & * & ' + + ' & * & & & ",
") ) ) ) ) ) ) ) ) ) ) ! ~ % { ] ] ] ] ] ] ] ] ] ] ] ] { % ~ ! ) ^ ) ) ) ) ) ) ^ ) / ~ ~ / ) ) ) ) ) ) ) ) ) ) / ~ ~ / ) ^ ) ) ) ",
"( ( ( ( ( ( ( ( ( ( ( _ : % { ] < ] ] ] ] ] ] ] ] < ] { % : _ ( ( ( ( ( ( ( ( ( ( [ : : [ ( ( ( ( ( ( ( ( ( ( [ : : [ ( ( ( ( ( ",
"] ] ] ] ] ] ] ] ] < ] > % % > ] < ] ] ] ] ] ] ] ] < ] > % } | 1 1 1 1 1 1 1 1 1 1 | } % > ] < ] ] ] ] ] ] < ] > % } | 1 1 1 1 1 ",
"2 2 2 2 2 2 2 2 2 ] 2 { 3 % { ] ] ] ] ] ] ] ] ] ] ] ] { % 4 5 6 7 6 6 6 6 6 6 7 6 5 4 3 { 2 ] 2 2 2 2 2 2 ] 2 { 3 4 5 6 7 6 6 6 ",
"{ { { { { { > > { > { ; 8 8 ; { > { { { > { { { { { { 9 0 a b c c c d d d d d d d e f 8 ; { > { > { { { { { { 9 0 a b c c c d d ",
"% % % % % % % % % % % $ # # $ % % % % % % % % % % % % - # g f h h h h h h h h h h f g # - % % % % % % % % % % - # g f h h h h h ",
"% % % % % $ # # $ % % % % % % % % % % $ # @ + . . . . . . . . . . + @ # $ % % % % % % % % % % $ # @ + . . . . . . . . . . + @   ",
"{ { { > { ; 8 8 ; { > { > > { { { > { 9 8 i = & j & & & & & & * & = k - 9 > , > > > > > { > { 9 8 i = & j & & & & & & * & l k   ",
"] ] ] m ] { % % { ] ] ] ] ] ] ] ] ] ] { % ~ ! ) ) ) ) ) ) ) ) ) ) ! ~ % { ] ] ] ] ] ] ] ] ] ] { % ~ ! ) ^ ) ) ) ) ) ) ^ ) n ~   ",
"] ] ] < ] > % % > ] < ] ] ] ] ] ] < ] { % : _ ( ( ( ( ( ( ( ( ( ( _ : % { ] < ] ] ] ] ] ] < ] { % : _ ( ( ( ( ( ( ( ( ( ( _ :   ",
"1 1 1 1 1 | } % > ] < ] ] ] ] ] ] < ] > % % > ] < ] ] ] ] ] ] < ] > % % > ] < ] ] ] ] ] ] < ] > % } | 1 1 1 1 1 1 1 1 1 1 o }   ",
"7 7 7 p 7 5 4 % { ] ] ] ] ] ] ] ] ] ] { % 3 { 2 ] 2 2 2 2 2 2 ] 2 { 3 % { ] ] ] ] ] ] ] ] ] ] { % 4 5 6 7 6 6 6 6 6 6 7 6 5 4   ",
"c c c c c b a 0 9 { { { { > { { { > { ; 8 8 ; { > { { { > > { > { ; 8 8 ; { > { { { > { { { { 9 0 a b c c c c c d d c c c q a r ",
"h h h h h f g # - % % % % % % % % % % $ # # $ % % % % % % % % % % $ # # $ % % % % % % % % % % - # g f h h h h h h h h h h s g   ",
". . . . . . . . . . . + @ # $ % % % % % % % % % % % % $ # # $ % % % % % % % % % % $ # @ + . . . . . . . . . . + @ @ + . . . . . ",
"& & & & & & & & & j & = i 8 9 { > { { { > > { { { > { ; 8 8 ; { > { > > { { { > { 9 8 i = & j & & & & & & * & ' k k ' & * & & & ",
") ) ) ) ) ) ) ) ) ^ ) ! ~ % { ] ] ] ] ] ] ] ] ] ] ] ] { % % { ] m ] ] ] ] ] ] m ] { % ~ ! ) ) ) ) ) ) ) ) ) ) / ~ ~ / ) ^ ) ) ) ",
"( ( ( ( ( ( ( ( ( ( ( _ : % { ] < ] ] ] ] ] ] ] ] < ] > % % > ] < ] ] ] ] ] ] < ] { % : _ ( ( ( ( ( ( ( ( ( ( [ : : [ ( ( ( ( ( ",
"1 1 1 1 1 1 1 1 1 1 1 t u % > ] < ] ] ] ] ] ] ] ] < ] > % } | 1 1 1 1 1 1 1 1 1 1 | } % > ] < ] ] ] ] ] ] < ] > % } | 1 1 1 1 1 ",
"6 6 6 6 6 6 6 6 6 v w x y % > ] ] ] ] ] ] ] ] ] ] ] ] { % 4 5 7 p 7 7 7 7 7 7 p 7 5 4 3 { 2 ] 2 2 2 2 2 2 ] 2 { 3 4 5 6 7 6 6 6 ",
"c c c c c c d d d c z A f 8 ; { > { { { > { { { { { { 9 B C b c c c d d d d d d d e f 8 ; { > { > { { { { { { 9 0 a b c c c d d ",
"h h h h h h h h h D E f g # - % % % % % % % % % % % % $ D F G h h h h h h h h h h f g # - % % % % % % % % % % - # g f h h h h h ",
". . . H . + @ # $ % % % % % % % % % % $ I J + . . . . . K K . H . + @ # $ % % % % % % % % % % $ # @ + . H . . . . . . H . + @   ",
"& & & * & = k - 9 > , > > > { { { > { L M N ' & j & & & & & & * & = k - 9 > , > > > > > { > { 9 8 i = & j & & & & & & * & l k   ",
"O O O ) O / P Q R S 2 S S S S S ] ] S R T U V O ) ) O W W W W ) W / P Q R S 2 S S S S S S 2 S R Q P / O ) O O O O O O ) O / P X ",
"Y Y Y Z Y `  ...+.@.@.@.@.@.@.S ] ] S +.#. .` $.( %.$.Y Y Y Y Z Y ` &...+.@.@.@.@.@.@.@.@.@.@.+...&.` Y Z Y Y Y Y Y Y Z Y `  .*.",
"=.=.=.-.=.;.>.,.'.).!.).).).).@.S S @.'.,.,.'.@.S S @.).).).).!.).+.,.,.+.).!.).).).).).).!.).+.,.M ;.=.-.=.=.=.=.=.=.-.=.;.>.~.",
"{.{.{.].{.^./.,.(.).).).).).).).@.@.)._.,.,._.).).).).:.:.:.:.).:._.,.,._.).).).).).).).).).).<.,.[.^.{.].{.{.{.{.{.{.].{.}./.|.",
"1.1.1.1.1.2.3.4.5._.+._.+._._._._._._.6.7.7.6._._._._._._.+._.+._.5.4.4.5._.'._._.8.+._._._._.5.7.9.0.a.a.a.a.b.1.1.1.1.1.c.3.d.",
"                                                                                                                                ",
". . . . . . . . . . . + @ # $ % % % % % % % % % % % % $ # @ + . . . . . . . . . . + @ @ + . . . . . . . . . . + @ @ + . . . . . ",
"& & & & & & & & & * & = + - ; > , > > > > > > > > , > ; - + = & * & & & & & & * & ' + + ' & * & & & & & & * & ' + + ' & * & & & ",
") ) ) ) ) ) ) ) ) ) ) ! ~ % { ] ] ] ] ] ] ] ] ] ] ] ] { % ~ ! ) ^ ) ) ) ) ) ) ^ ) / ~ ~ / ) ) ) ) ) ) ) ) ) ) / ~ ~ / ) ^ ) ) ) ",
"( ( ( ( ( ( ( ( ( ( ( _ : % { ] < ] ] ] ] ] ] ] ] < ] { % : _ ( ( ( ( ( ( ( ( ( ( [ : : [ ( ( ( ( ( ( ( ( ( ( [ : : [ ( ( ( ( ( ",
"] ] ] ] ] ] ] ] ] < ] > % % > ] < ] ] ] ] ] ] ] ] < ] > % } | 1 1 1 1 1 1 1 1 1 1 | } % > ] < ] ] ] ] ] ] < ] > % } | 1 1 1 1 1 ",
"2 2 2 2 2 2 2 2 2 ] 2 { 3 % { ] ] ] ] ] ] ] ] ] ] ] ] { % 4 5 6 7 6 6 6 6 6 6 7 6 5 4 3 { 2 ] 2 2 2 2 2 2 ] 2 { 3 4 5 6 7 6 6 6 ",
"{ { { { { { > > { > { ; 8 8 ; { > { { { > { { { { { { 9 0 a b c c c d d d d d d d e f 8 ; { > { > { { { { { { 9 0 a b c c c d d ",
"% % % % % % % % % % % $ # # $ % % % % % % % % % % % % - # g f h h h h h h h h h h f g # - % % % % % % % % % % - # g f h h h h h ",
"% % % % % $ # # $ % % % % % % % % % % $ # @ + . . . . . . . . . . + @ # $ % % % % % % % % % % $ # @ + . . . . . . . . . . + @   ",
"{ { { > { ; 8 8 ; { > { > > { { { > { 9 8 i = & j & & & & & & * & = k - 9 > , > > > > > { > { 9 8 i = & j & & & & & & * & l k   ",
"] ] ] m ] { % % { ] ] ] ] ] ] ] ] ] ] { % ~ ! ) ) ) ) ) ) ) ) ) ) ! ~ % { ] ] ] ] ] ] ] ] ] ] { % ~ ! ) ^ ) ) ) ) ) ) ^ ) n ~   ",
"] ] ] < ] > % % > ] < ] ] ] ] ] ] < ] { % : _ ( ( ( ( ( ( ( ( ( ( _ : % { ] < ] ] ] ] ] ] < ] { % : _ ( ( ( ( ( ( ( ( ( ( _ :   ",
"1 1 1 1 1 | } % > ] < ] ] ] ] ] ] < ] > % % > ] < ] ] ] ] ] ] < ] > % % > ] < ] ] ] ] ] ] < ] > % } | 1 1 1 1 1 1 1 1 1 1 o }   ",
"7 7 7 p 7 5 4 % { ] ] ] ] ] ] ] ] ] ] { % 3 { 2 ] 2 2 2 2 2 2 ] 2 { 3 % { ] ] ] ] ] ] ] ] ] ] { % 4 5 6 7 6 6 6 6 6 6 7 6 5 4   ",
"c c c c c b a 0 9 { { { { > { { { > { ; 8 8 ; { > { { { > > { > { ; 8 8 ; { > { { { > { { { { 9 0 a b c c c c c d d c c c q a r ",
"h h h h h f g # - % % % % % % % % % % $ # # $ % % % % % % % % % % $ # # $ % % % % % % % % % % - # g f h h h h h h h h h h s g   ",
". . . . . . . . . . . + @ # $ % % % % % % % % % % % % $ # # $ % % % % % % % % % % $ # @ + . . . . . . . . . . + @ @ + . . . . . ",
"& & & & & & & & & j & = i 8 9 { > { { { > > { { { > { ; 8 8 ; { > { > > { { { > { 9 8 i = & j & & & & & & * & ' k k ' & * & & & ",
") ) ) ) ) ) ) ) ) ^ ) ! ~ % { ] ] ] ] ] ] ] ] ] ] ] ] { % % { ] m ] ] ] ] ] ] m ] { % ~ ! ) ) ) ) ) ) ) ) ) ) / ~ ~ / ) ^ ) ) ) ",
"( ( ( ( ( ( ( ( ( ( ( _ : % { ] < ] ] ] ] ] ] ] ] < ] > % % > ] < ] ] ] ] ] ] < ] { % : _ ( ( ( ( ( ( ( ( ( ( [ : : [ ( ( ( ( ( ",
"1 1 1 1 1 1 1 1 1 1 1 t u % > ] < ] ] ] ] ] ] ] ] < ] > % } | 1 1 1 1 1 1 1 1 1 1 | } % > ] < ] ] ] ] ] ] < ] > % } | 1 1 1 1 1 ",
"6 6 6 6 6 6 6 6 6 v w x y % > ] ] ] ] ] ] ] ] ] ] ] ] { % 4 5 7 p 7 7 7 7 7 7 p 7 5 4 3 { 2 ] 2 2 2 2 2 2 ] 2 { 3 4 5 6 7 6 6 6 ",
"c c c c c c d d d c z A f 8 ; { > { { { > { { { { { { 9 B C b c c c d d d d d d d e f 8 ; { > { > { { { { { { 9 0 a b c c c d d ",
"h h h h h h h h h D E f g # - % % % % % % % % % % % % $ D F G h h h h h h h h h h f g # - % % % % % % % % % % - # g f h h h h h ",
". . . H . + @ # $ % % % % % % % % % % $ I J + . . . . . K K . H . + @ # $ % % % % % % % % % % $ # @ + . H . . . . . . H . + @   ",
"& & & * & = k - 9 > , > > > { { { > { L M N ' & j & & & & & & * & = k - 9 > , > > > > > { > { 9 8 i = & j & & & & & & * & l k   ",
"O O O ) O / P Q R S 2 S S S S S ] ] S R T U V O ) ) O W W W W ) W / P Q R S 2 S S S S S S 2 S R Q P / O ) O O O O O O ) O / P X ",
"Y Y Y Z Y `  ...+.@.@.@.@.@.@.S ] ] S +.#. .` $.( %.$.Y Y Y Y Z Y ` &...+.@.@.@.@.@.@.@.@.@.@.+...&.` Y Z Y Y Y Y Y Y Z Y `  .*.",
"=.=.=.-.=.;.>.,.'.).!.).).).).@.S S @.'.,.,.'.@.S S @.).).).).!.).+.,.,.+.).!.).).).).).).!.).+.,.M ;.=.-.=.=.=.=.=.=.-.=.;.>.~.",
"{.{.{.].{.^./.,.(.).).).).).).).@.@.)._.,.,._.).).).).:.:.:.:.).:._.,.,._.).).).).).).).).).).<.,.[.^.{.].{.{.{.{.{.{.].{.}./.|.",
"1.1.1.1.1.2.3.4.5._.+._.+._._._._._._.6.7.7.6._._._._._._.+._.+._.5.4.4.5._.'._._.8.+._._._._.5.7.9.0.a.a.a.a.b.1.1.1.1.1.c.3.d."};
