/* XPM */
static char *ac64dc876f6b47319c01961c225ab18cV7ydEj7aFHoTroqR[] = {
/* columns rows colors chars-per-pixel */
"64 64 9 1 ",
"  c #3D244A",
". c #3D244B",
"X c #40264D",
"o c #45354E",
"O c #473751",
"+ c #5F4F66",
"@ c #5F4F67",
"# c #62526A",
"$ c #877193",
/* pixels */
"XXXXXXXXXXXXXXXXXXXXXXXXXXXXXXXXXXXXXXXXXXXXXXXXXXXXXXXXXXXXXXXX",
"XXXXXXXXXXXXXXXXXXXXXXXXXXXXXXXXXXXXXXXXXXXXXXXXXXXXXXXXXXXXXXXX",
"$$$$$$XX$$$$$$$$$$$$XX############XX$$$$$$$$$$$$XX$$$$$$$$$$$$XX",
"$$$$$$XX$$$$$$$$$$$$XX############XX$$$$$$$$$$$$XX$$$$$$$$$$$$XX",
"######XX############XX############XX############XX############XX",
"######XX############XX############XX############XX############XX",
"OOOOOOXXOOOOOOOOOOOOXX############XXOOOOOOOOOOOOXX############XX",
"OOOOOOXXOOOOOOOOOOOOXX############XXOOOOOOOOOOOOXX############XX",
"XXXXXXXXXXXXXXXXXXXXXXXXXXXXXXXXXXXXXXXXXXXXXXXXXXXXXXXXXXXXXXXX",
"XXXXXXXXXXXXXXXXXXXXXXXXXXXXXXXXXXXXXXXXXXXXXXXXXXXXXXXXXXXXXXXX",
"############XX$$$$$$$$$$$$XX############XX$$$$$$$$$$$$$$XX######",
"############XX$$$$$$$$$$$$XX############XX$$$$$$$$$$$$$$XX######",
"############XX############XX############XX##############XX######",
"############XX############XX############XX##############XX######",
"OOOOOOOOOOOOXX############XX############XXOOOOOOOOOOOOOOXXOOOOOO",
"OOOOOOOOOOOOXX############XX############XXOOOOOOOOOOOOOOXXOOOOOO",
"XXXXXXXXXXXXXXXXXXXXXXXXXXXXXXXXXXXXXXXXXXXXXXXXXXXXXXXXXXXXXXXX",
"XXXXXXXXXXXXXXXXXXXXXXXXXXXXXXXXXXXXXXXXXXXXXXXXXXXXXXXXXXXXXXXX",
"$$$$$$XX############XX$$$$$$$$$$$$XX############XX$$$$$$$$$$$$XX",
"$$$$$$XX############XX$$$$$$$$$$$$XX############XX$$$$$$$$$$$$XX",
"######XX############XX############XX############XX############XX",
"######XX############XX############XX############XX############XX",
"OOOOOOXX############XXOOOOOOOOOOOoXX############XX############XX",
"OOOOOOXX############XXOOOOOOOOOOOoXX############XX############XX",
"XXXXXXXXXXXXXXXXXXXXXXXXXXXXXXXXXXXXXXXXXXXXXXXXXXXXXXXXXXXXXXXX",
"XXXXXXXXXXXXXXXXXXXXXXXXXXXXXXXXXXXXXXXXXXXXXXXXXXXXXXXXXXXXXXXX",
"############XX############XX$$$$$$$$$$$$XX$$$$$$$$$$$$$$XX$$$$$$",
"############XX############XX$$$$$$$$$$$$XX$$$$$$$$$$$$$$XX$$$$$$",
"@@@@@@@@@@@@..@@@@@@@@@@@@..@@@@@@@@#@@@..@@@@@@@@@@@@++ .@@@@@@",
"@@@@@@@@@@@@..@@@@@@@@@@@@..@@@@@@@@#@@@..@@@@@@@@@@@@++ .@@@@@@",
"@@@@@@@@@@@@..oooooooooooo..@@@@@@@@@@@@..oooooooooooooo  @@@@@@",
"@@@@@@@@@@@@..oooooooooooo..@@@@@@@@@@@@..oooooooooooooo  @@@@@@",
"XXXXXXXXXXXXXXXXXXXXXXXXXXXXXXXX .XXXXXXXXXXXXXXXXXXXXXXXXXXXXXX",
"XXXXXXXXXXXXXXXXXXXXXXXXXXXXXXXXXXXXXXXXXXXXXXXXXXXXXXXXXXXXXXXX",
"$$$$$$XX$$$$$$$$$$$$XX############XX$$$$$$$$$$$$XX$$$$$$$$$$$$XX",
"$$$$$$XX$$$$$$$$$$$$XX############XX$$$$$$$$$$$$XX$$$$$$$$$$$$XX",
"######XX############XX############XX############XX############XX",
"######XX############XX############XX############XX############XX",
"OOOOOOXXOOOOOOOOOOOOXX############XXOOOOOOOOOOOOXX############XX",
"OOOOOOXXOOOOOOOOOOOOXX############XXOOOOOOOOOOOOXX############XX",
"XXXXXXXXXXXXXXXXXXXXXXXXXXXXXXXXXXXXXXXXXXXXXXXXXXXXXXXXXXXXXXXX",
"XXXXXXXXXXXXXXXXXXXXXXXXXXXXXXXXXXXXXXXXXXXXXXXXXXXXXXXXXXXXXXXX",
"############XX$$$$$$$$$$$$XX############XX$$$$$$$$$$$$$$XX######",
"############XX$$$$$$$$$$$$XX############XX$$$$$$$$$$$$$$XX######",
"############XX############XX############XX##############XX######",
"############XX############XX############XX##############XX######",
"OOOOOOOOOOOOXX############XX############XXOOOOOOOOOOOOOOXXOOOOOO",
"OOOOOOOOOOOOXX############XX############XXOOOOOOOOOOOOOOXXOOOOOO",
"XXXXXXXXXXXXXXXXXXXXXXXXXXXXXXXXXXXXXXXXXXXXXXXXXXXXXXXXXXXXXXXX",
"XXXXXXXXXXXXXXXXXXXXXXXXXXXXXXXXXXXXXXXXXXXXXXXXXXXXXXXXXXXXXXXX",
"$$$$$$XX############XX$$$$$$$$$$$$XX############XX$$$$$$$$$$$$XX",
"$$$$$$XX############XX$$$$$$$$$$$$XX############XX$$$$$$$$$$$$XX",
"######XX############XX############XX############XX############XX",
"######XX############XX############XX############XX############XX",
"OOOOOOXX############XXOOOOOOOOOOOOXX############XX############XX",
"OOOOOOXX############XXOOOOOOOOOOOOXX############XX############XX",
"XXXXXXXXXXXXXXXXXXXXXXXXXXXXXXXXXXXXXXXXXXXXXXXXXXXXXXX.XXXXXXXX",
"XXXXXXXXXXXXXXXXXXXXXXXXXXXXXXXXXXXXXXXXXXXXXXXXXXXXXXX XXXXXXXX",
"############XX############XX$$$$$$$$$$$$XX$$$$$$$$$$$$$$XX$$$$$$",
"############XX############XX$$$$$$$$$$$$XX$$$$$$$$$$$$$$XX$$$$$$",
"@@@@@@@@@@@@..@@@@@@@@@@@@..@@@@@@@@@@@@..@@@@@@++++@@++  ++#@@@",
"@@@@@@@@@@@@..@@@@@@@@@@@@..@@@@@@@@@@@@..@@@@@@++++@@++  ++#@@@",
"@@@@@@@@@@@@..oooooooooooo..@@@@@@@@@@@@..oooooooooooooo  ++@@@@",
"@@@@@@@@@@@@..oooooooooooo..@@@@@@@@@@@@..oooooooooooooo  ++@@@@"
};
