/* XPM */
static char * door_open_xpm[] = {
"64 64 13 1",
" 	c #40264D",
".	c #7A7290",
"+	c #644574",
"@	c #58526A",
"#	c #563767",
"$	c #413D4F",
"%	c #5F5C62",
"&	c #76717D",
"*	c #716B77",
"=	c #B7B4B9",
"-	c #CDCDCE",
";	c #858289",
">	c #8D8994",
"              ....................................              ",
"              ....................................              ",
"      ++++....@@@@@@@@@@@@@@@@@@@@@@@@@@@@@@@@@@@@....++++      ",
"      ++++....@@@@@@@@@@@@@@@@@@@@@@@@@@@@@@@@@@@@....++++      ",
"    ++##..@@@@@@@@@@@@@@@@@@@@@@@@@@@@@@@@@@@@@@@@@@@@..##++    ",
"    ++##..@@@@@@@@@@@@@@@@@@@@@@@@@@@@@@@@@@@@@@@@@@@@..##++    ",
"  ++##..@@@@@@@@@@@@@@@@@@@@@@@@@@@@@@@@@@@@@@@@@@@@@@@@..##++  ",
"  ++##..@@@@@@@@@@@@@@@@@@@@@@@@@@@@@@@@@@@@@@@@@@@@@@@@..##++  ",
"  ++..@@@@@@@@$$$$$$$$$$$$$$$$$$$$$$$$$$$$$$$$$$$$@@@@@@@@..++  ",
"  ++..@@@@@@@@$$$$$$$$$$$$$$$$$$$$$$$$$$$$$$$$$$$$@@@@@@@@..++  ",
"  ..@@@@@@@@$$$$%%%%%%%%%%%%%%%%%%%%%%%%%%%%%%%%$$$$@@@@@@@@..  ",
"  ..@@@@@@@@$$$$%%%%%%%%%%%%%%%%%%%%%%%%%%%%%%%%$$$$@@@@@@@@..  ",
"..@@@@@@@@$$$$%%&&&&&&&&&&&&&&****&&&&&&&&&&&&&&%%$$$$@@@@@@@@..",
"..@@@@@@@@$$$$%%&&&&&&&&&&&&&&****&&&&&&&&&&&&&&%%$$$$@@@@@@@@..",
"..@@@@@@$$$$%%&&&&==&&&&&&&&********&&&&&&&&==&&&&%%$$$$@@@@@@..",
"..@@@@@@$$$$%%&&&&==&&&&&&&&********&&&&&&&&==&&&&%%$$$$@@@@@@..",
"..@@@@@@$$$$%%&&&&==&&&&&&&&********&&&&&&&&==&&&&%%$$$$@@@@@@..",
"..@@@@@@$$%%&&&&==--==&&&&&&&&****&&&&&&&&==--==&&&&%%$$@@@@@@..",
"..@@@@@@$$%%&&&&==--==&&&&&&&&****&&&&&&&&==--==&&&&%%$$@@@@@@..",
"..@@@@@@$$%%&&&&&&==&&&&&&&&%%%%%%%%&&&&&&&&==&&&&&&%%$$@@@@@@..",
"..@@@@@@$$%%&&&&&&==&&&&&&&&%%%%%%%%&&&&&&&&==&&&&&&%%$$@@@@@@..",
"..@@@@@@$$%%&&&&&&&&&&&&&&%%==------%%&&&&&&&&&&&&&&%%$$@@@@@@..",
"..@@@@@@$$%%&&&&&&&&&&&&&&%%==------%%&&&&&&&&&&&&&&%%$$@@@@@@..",
"..@@@@@@$$%%&&&&&&&&&&&&%%============%%&&&&&&&&&&&&%%$$@@@@@@..",
"..@@@@@@$$%%&&&&&&&&&&&&%%============%%&&&&&&&&&&&&%%$$@@@@@@..",
"..@@@@@@$$%%&&&&&&&&&&%%==%%%%====%%%%==%%&&&&&&&&&&%%$$@@@@@@..",
"..@@@@@@$$%%&&&&&&&&&&%%==%%%%====%%%%==%%&&&&&&&&&&%%$$@@@@@@..",
"..@@@@@@$$%%&&&&****&&%%==%%%%====%%%%==%%&&****&&&&%%$$@@@@@@..",
"..@@@@@@$$%%&&&&****&&%%==%%%%====%%%%==%%&&****&&&&%%$$@@@@@@..",
"..@@@@@@$$%%&&&&****&&&&%%============%%&&&&****&&&&%%$$@@@@@@..",
"..@@@@@@$$%%&&&&****&&&&%%============%%&&&&****&&&&%%$$@@@@@@..",
"..@@@@@@$$%%&&&&****&&&&&&%%========%%&&&&&&****&&&&%%$$@@@@@@..",
"..@@@@@@$$%%&&&&****&&&&&&%%========%%&&&&&&****&&&&%%$$@@@@@@..",
"..@@@@@@$$%%&&&&&&&&&&&&&&%%==%%%%==%%&&&&&&&&&&&&&&%%$$@@@@@@..",
"..@@@@@@$$%%&&&&&&&&&&&&&&%%==%%%%==%%&&&&&&&&&&&&&&%%$$@@@@@@..",
"..@@@@@@$$%%&&&&&&&&&&&&&&&&%%%%%%%%&&&&&&&&&&&&&&&&%%$$@@@@@@..",
"..@@@@@@$$%%&&&&&&&&&&&&&&&&%%%%%%%%&&&&&&&&&&&&&&&&%%$$@@@@@@..",
"..@@@@@@$$%%&&&&&&&&&&&&&&&&&&&&&&&&&&&&&&&&&&&&&&&&%%$$@@@@@@..",
"..@@@@@@$$%%&&&&&&&&&&&&&&&&&&&&&&&&&&&&&&&&&&&&&&&&%%$$@@@@@@..",
"..@@@@@@$$%%&&&&&&==&&&&&&&&&&&&&&&&&&&&&&&&==&&&&&&%%$$@@@@@@..",
"..@@@@@@$$%%&&&&&&==&&&&&&&&&&&&&&&&&&&&&&&&==&&&&&&%%$$@@@@@@..",
"..@@@@@@$$%%&&&&==--==&&&&&&&&&&&&&&&&&&&&==--==&&&&%%$$@@@@@@..",
"..@@@@@@$$%%&&&&==--==&&&&&&&&&&&&&&&&&&&&==--==&&&&%%$$@@@@@@..",
"..@@@@@@$$%%&&&&&&==&&&&&&&&&&&&&&&&&&&&&&&&==&&&&&&%%$$@@@@@@..",
"..@@@@@@$$%%&&&&&&==&&&&&&&&&&&&&&&&&&&&&&&&==&&&&&&%%$$@@@@@@..",
"..@@@@@@$$%%&&&&&&&&&&&&&&&&&&&&&&&&&&&&&&&&&&&&&&&&%%$$@@@@@@..",
"..@@@@@@$$%%&&&&&&&&&&&&&&&&&&&&&&&&&&&&&&&&&&&&&&&&%%$$@@@@@@..",
"..@@@@@@$$%%%%%%%%%%%%%%%%%%%%%%%%%%%%%%%%%%%%%%%%%%%%$$@@@@@@..",
"..@@@@@@$$%%%%%%%%%%%%%%%%%%%%%%%%%%%%%%%%%%%%%%%%%%%%$$@@@@@@..",
"..@@@@@@$$%%%%%%%%%%%%%%%%%%%%%%%%%%%%%%%%%%%%%%%%%%%%$$@@@@@@..",
"..@@@@@@$$;;>>>>>>>>>>>>>>>>>>>>>>>>>>>>>>>>>>>>>>>>;;$$@@@@@@..",
"..@@@@@@$$;;>>>>>>>>>>>>>>>>>>>>>>>>>>>>>>>>>>>>>>>>;;$$@@@@@@..",
"..@@@@@@$$;;>>>>>>>>>>>>>>>>>>>>>>>>>>>>>>>>>>>>>>>>;;$$@@@@@@..",
"..@@@@@@$$;;>>>>>>>>>>>>>>>>>>>>>>>>>>>>>>>>>>>>>>>>;;$$@@@@@@..",
"..@@@@@@$$;;==----==>>>>>>>>==----==>>>>>>>>==----==;;$$@@@@@@..",
"..@@@@@@$$;;==----==>>>>>>>>==----==>>>>>>>>==----==;;$$@@@@@@..",
"..@@@@@@$$;;>>>>>>>>>>>>>>>>>>>>>>>>>>>>>>>>>>>>>>>>;;$$@@@@@@..",
"..@@@@@@$$;;>>>>>>>>>>>>>>>>>>>>>>>>>>>>>>>>>>>>>>>>;;$$@@@@@@..",
"..@@@@@@$$;;>>>>>>>>>>>>>>>>>>>>>>>>>>>>>>>>>>>>>>>>;;$$@@@@@@..",
"..@@@@@@$$;;>>>>>>>>>>>>>>>>>>>>>>>>>>>>>>>>>>>>>>>>;;$$@@@@@@..",
"..@@@@@@$$  >>>>  >>>>  >>>>  >>>>  >>>>  >>>>  >>>>  $$@@@@@@..",
"..@@@@@@$$  >>>>  >>>>  >>>>  >>>>  >>>>  >>>>  >>>>  $$@@@@@@..",
"..@@@@@@$$  ;;;;  ;;;;  ;;;;  ;;;;  ;;;;  ;;;;  ;;;;  $$@@@@@@..",
"..@@@@@@$$  ;;;;  ;;;;  ;;;;  ;;;;  ;;;;  ;;;;  ;;;;  $$@@@@@@.."};
