/* XPM */
static char * door_open_xpm[] = {
"64 64 7 1",
" 	c #40264D",
".	c #7A7290",
"+	c #644574",
"@	c #58526A",
"#	c #563767",
"$	c #413D4F",
"%	c #000000",
"              ....................................              ",
"              ....................................              ",
"      ++++....@@@@@@@@@@@@@@@@@@@@@@@@@@@@@@@@@@@@....++++      ",
"      ++++....@@@@@@@@@@@@@@@@@@@@@@@@@@@@@@@@@@@@....++++      ",
"    ++##..@@@@@@@@@@@@@@@@@@@@@@@@@@@@@@@@@@@@@@@@@@@@..##++    ",
"    ++##..@@@@@@@@@@@@@@@@@@@@@@@@@@@@@@@@@@@@@@@@@@@@..##++    ",
"  ++##..@@@@@@@@@@@@@@@@@@@@@@@@@@@@@@@@@@@@@@@@@@@@@@@@..##++  ",
"  ++##..@@@@@@@@@@@@@@@@@@@@@@@@@@@@@@@@@@@@@@@@@@@@@@@@..##++  ",
"  ++..@@@@@@@@$$$$$$$$$$$$$$$$$$$$$$$$$$$$$$$$$$$$@@@@@@@@..++  ",
"  ++..@@@@@@@@$$$$$$$$$$$$$$$$$$$$$$$$$$$$$$$$$$$$@@@@@@@@..++  ",
"  ..@@@@@@@@$$$$%%%%%%%%%%%%%%%%%%%%%%%%%%%%%%%%$$$$@@@@@@@@..  ",
"  ..@@@@@@@@$$$$%%%%%%%%%%%%%%%%%%%%%%%%%%%%%%%%$$$$@@@@@@@@..  ",
"..@@@@@@@@$$$$%%%%%%%%%%%%%%%%%%%%%%%%%%%%%%%%%%%%$$$$@@@@@@@@..",
"..@@@@@@@@$$$$%%%%%%%%%%%%%%%%%%%%%%%%%%%%%%%%%%%%$$$$@@@@@@@@..",
"..@@@@@@$$$$%%%%%%%%%%%%%%%%%%%%%%%%%%%%%%%%%%%%%%%%$$$$@@@@@@..",
"..@@@@@@$$$$%%%%%%%%%%%%%%%%%%%%%%%%%%%%%%%%%%%%%%%%$$$$@@@@@@..",
"..@@@@@@$$%%%%%%%%%%%%%%%%%%%%%%%%%%%%%%%%%%%%%%%%%%%%$$@@@@@@..",
"..@@@@@@$$%%%%%%%%%%%%%%%%%%%%%%%%%%%%%%%%%%%%%%%%%%%%$$@@@@@@..",
"..@@@@@@$$%%%%%%%%%%%%%%%%%%%%%%%%%%%%%%%%%%%%%%%%%%%%$$@@@@@@..",
"..@@@@@@$$%%%%%%%%%%%%%%%%%%%%%%%%%%%%%%%%%%%%%%%%%%%%$$@@@@@@..",
"..@@@@@@$$%%%%%%%%%%%%%%%%%%%%%%%%%%%%%%%%%%%%%%%%%%%%$$@@@@@@..",
"..@@@@@@$$%%%%%%%%%%%%%%%%%%%%%%%%%%%%%%%%%%%%%%%%%%%%$$@@@@@@..",
"..@@@@@@$$%%%%%%%%%%%%%%%%%%%%%%%%%%%%%%%%%%%%%%%%%%%%$$@@@@@@..",
"..@@@@@@$$%%%%%%%%%%%%%%%%%%%%%%%%%%%%%%%%%%%%%%%%%%%%$$@@@@@@..",
"..@@@@@@$$%%%%%%%%%%%%%%%%%%%%%%%%%%%%%%%%%%%%%%%%%%%%$$@@@@@@..",
"..@@@@@@$$%%%%%%%%%%%%%%%%%%%%%%%%%%%%%%%%%%%%%%%%%%%%$$@@@@@@..",
"..@@@@@@$$%%%%%%%%%%%%%%%%%%%%%%%%%%%%%%%%%%%%%%%%%%%%$$@@@@@@..",
"..@@@@@@$$%%%%%%%%%%%%%%%%%%%%%%%%%%%%%%%%%%%%%%%%%%%%$$@@@@@@..",
"..@@@@@@$$%%%%%%%%%%%%%%%%%%%%%%%%%%%%%%%%%%%%%%%%%%%%$$@@@@@@..",
"..@@@@@@$$%%%%%%%%%%%%%%%%%%%%%%%%%%%%%%%%%%%%%%%%%%%%$$@@@@@@..",
"..@@@@@@$$%%%%%%%%%%%%%%%%%%%%%%%%%%%%%%%%%%%%%%%%%%%%$$@@@@@@..",
"..@@@@@@$$%%%%%%%%%%%%%%%%%%%%%%%%%%%%%%%%%%%%%%%%%%%%$$@@@@@@..",
"..@@@@@@$$%%%%%%%%%%%%%%%%%%%%%%%%%%%%%%%%%%%%%%%%%%%%$$@@@@@@..",
"..@@@@@@$$%%%%%%%%%%%%%%%%%%%%%%%%%%%%%%%%%%%%%%%%%%%%$$@@@@@@..",
"..@@@@@@$$%%%%%%%%%%%%%%%%%%%%%%%%%%%%%%%%%%%%%%%%%%%%$$@@@@@@..",
"..@@@@@@$$%%%%%%%%%%%%%%%%%%%%%%%%%%%%%%%%%%%%%%%%%%%%$$@@@@@@..",
"..@@@@@@$$%%%%%%%%%%%%%%%%%%%%%%%%%%%%%%%%%%%%%%%%%%%%$$@@@@@@..",
"..@@@@@@$$%%%%%%%%%%%%%%%%%%%%%%%%%%%%%%%%%%%%%%%%%%%%$$@@@@@@..",
"..@@@@@@$$%%%%%%%%%%%%%%%%%%%%%%%%%%%%%%%%%%%%%%%%%%%%$$@@@@@@..",
"..@@@@@@$$%%%%%%%%%%%%%%%%%%%%%%%%%%%%%%%%%%%%%%%%%%%%$$@@@@@@..",
"..@@@@@@$$%%%%%%%%%%%%%%%%%%%%%%%%%%%%%%%%%%%%%%%%%%%%$$@@@@@@..",
"..@@@@@@$$%%%%%%%%%%%%%%%%%%%%%%%%%%%%%%%%%%%%%%%%%%%%$$@@@@@@..",
"..@@@@@@$$%%%%%%%%%%%%%%%%%%%%%%%%%%%%%%%%%%%%%%%%%%%%$$@@@@@@..",
"..@@@@@@$$%%%%%%%%%%%%%%%%%%%%%%%%%%%%%%%%%%%%%%%%%%%%$$@@@@@@..",
"..@@@@@@$$%%%%%%%%%%%%%%%%%%%%%%%%%%%%%%%%%%%%%%%%%%%%$$@@@@@@..",
"..@@@@@@$$%%%%%%%%%%%%%%%%%%%%%%%%%%%%%%%%%%%%%%%%%%%%$$@@@@@@..",
"..@@@@@@$$%%%%%%%%%%%%%%%%%%%%%%%%%%%%%%%%%%%%%%%%%%%%$$@@@@@@..",
"..@@@@@@$$%%%%%%%%%%%%%%%%%%%%%%%%%%%%%%%%%%%%%%%%%%%%$$@@@@@@..",
"..@@@@@@$$%%%%%%%%%%%%%%%%%%%%%%%%%%%%%%%%%%%%%%%%%%%%$$@@@@@@..",
"..@@@@@@$$%%%%%%%%%%%%%%%%%%%%%%%%%%%%%%%%%%%%%%%%%%%%$$@@@@@@..",
"..@@@@@@$$%%%%%%%%%%%%%%%%%%%%%%%%%%%%%%%%%%%%%%%%%%%%$$@@@@@@..",
"..@@@@@@$$%%%%%%%%%%%%%%%%%%%%%%%%%%%%%%%%%%%%%%%%%%%%$$@@@@@@..",
"..@@@@@@$$%%%%%%%%%%%%%%%%%%%%%%%%%%%%%%%%%%%%%%%%%%%%$$@@@@@@..",
"..@@@@@@$$%%%%%%%%%%%%%%%%%%%%%%%%%%%%%%%%%%%%%%%%%%%%$$@@@@@@..",
"..@@@@@@$$%%%%%%%%%%%%%%%%%%%%%%%%%%%%%%%%%%%%%%%%%%%%$$@@@@@@..",
"..@@@@@@$$%%%%%%%%%%%%%%%%%%%%%%%%%%%%%%%%%%%%%%%%%%%%$$@@@@@@..",
"..@@@@@@$$%%%%%%%%%%%%%%%%%%%%%%%%%%%%%%%%%%%%%%%%%%%%$$@@@@@@..",
"..@@@@@@$$%%%%%%%%%%%%%%%%%%%%%%%%%%%%%%%%%%%%%%%%%%%%$$@@@@@@..",
"..@@@@@@$$%%%%%%%%%%%%%%%%%%%%%%%%%%%%%%%%%%%%%%%%%%%%$$@@@@@@..",
"..@@@@@@$$%%%%%%%%%%%%%%%%%%%%%%%%%%%%%%%%%%%%%%%%%%%%$$@@@@@@..",
"..@@@@@@$$%%%%%%%%%%%%%%%%%%%%%%%%%%%%%%%%%%%%%%%%%%%%$$@@@@@@..",
"..@@@@@@$$%%%%%%%%%%%%%%%%%%%%%%%%%%%%%%%%%%%%%%%%%%%%$$@@@@@@..",
"..@@@@@@$$%%%%%%%%%%%%%%%%%%%%%%%%%%%%%%%%%%%%%%%%%%%%$$@@@@@@..",
"..@@@@@@$$%%%%%%%%%%%%%%%%%%%%%%%%%%%%%%%%%%%%%%%%%%%%$$@@@@@@.."};
