/* XPM */
static char *bd08d9925311496afdef1236bdebc570xQYbzEo91VSntE9c[] = {
/* columns rows colors chars-per-pixel */
"64 64 3 1 ",
"  c #40264D",
". c #563767",
"X c #644574",
/* pixels */
"                                                                ",
"                                                                ",
"      XXXXXXXXXXXXXXXXXXXXXXXXXXXXXXXXXXXXXXXXXXXXXXXXXXXX      ",
"      XXXXXXXXXXXXXXXXXXXXXXXXXXXXXXXXXXXXXXXXXXXXXXXXXXXX      ",
"    XX....................................................XX    ",
"    XX....................................................XX    ",
"  XX........................................................XX  ",
"  XX........................................................XX  ",
"  XX........................................................XX  ",
"  XX........................................................XX  ",
"  XX........................................................XX  ",
"  XX........................................................XX  ",
"  XX........................................................XX  ",
"  XX........................................................XX  ",
"  XX........................................................XX  ",
"  XX........................................................XX  ",
"  XX........................................................XX  ",
"  XX........................................................XX  ",
"  XX........................................................XX  ",
"  XX........................................................XX  ",
"  XX........................................................XX  ",
"  XX........................................................XX  ",
"  XX........................................................XX  ",
"  XX........................................................XX  ",
"  XX........................................................XX  ",
"  XX........................................................XX  ",
"  XX........................................................XX  ",
"  XX........................................................XX  ",
"  XX........................................................XX  ",
"  XX........................................................XX  ",
"  XX........................................................XX  ",
"  XX........................................................XX  ",
"  XX........................................................XX  ",
"  XX........................................................XX  ",
"  XX........................................................XX  ",
"  XX........................................................XX  ",
"  XX........................................................XX  ",
"  XX........................................................XX  ",
"  XX........................................................XX  ",
"  XX........................................................XX  ",
"  XX........................................................XX  ",
"  XX........................................................XX  ",
"  XX........................................................XX  ",
"  XX........................................................XX  ",
"  XX........................................................XX  ",
"  XX........................................................XX  ",
"  XX........................................................XX  ",
"  XX........................................................XX  ",
"  XX........................................................XX  ",
"  XX........................................................XX  ",
"  XX........................................................XX  ",
"  XX........................................................XX  ",
"  XX........................................................XX  ",
"  XX........................................................XX  ",
"  XX........................................................XX  ",
"  XX........................................................XX  ",
"  XXXX......................................................XX  ",
"  XXXX......................................................XX  ",
"    XXXX..................................................XX    ",
"    XXXX..................................................XX    ",
"      XXXXXXXXXXXXXXXXXXXXXXXXXXXXXXXXXXXXXXXXXXXXXXXXXXXX      ",
"      XXXXXXXXXXXXXXXXXXXXXXXXXXXXXXXXXXXXXXXXXXXXXXXXXXXX      ",
"                                                                ",
"                                                                "
};
